; NON-PLATED HOLES START AT T1
; THROUGH (PLATED) HOLES START AT T100
M48
INCH
T100C0.025000
T101C0.040639
T102C0.015748
T103C0.038000
%
T100
X010432Y005013
X009646Y005013
X011220Y005013
X008858Y005013
T101
X020479Y001885
X003479Y000885
X001479Y000885
X008479Y000885
X006479Y000885
X004479Y000885
X002479Y000885
X009479Y000885
X007479Y000885
X005479Y000885
X013479Y000885
X011479Y000885
X018479Y000885
X016479Y000885
X014479Y000885
X012479Y000885
X010479Y000885
X019479Y000885
X017479Y000885
X015479Y000885
X001479Y001885
X003479Y001885
X002479Y001885
X004479Y001885
X006479Y001885
X008479Y001885
X005479Y001885
X007479Y001885
X009479Y001885
X020479Y000885
X011479Y001885
X013479Y001885
X010479Y001885
X012479Y001885
X014479Y001885
X016479Y001885
X018479Y001885
X015479Y001885
X017479Y001885
X019479Y001885
T102
X004479Y010885
T103
X007479Y010885
X019479Y005135
X008479Y007885
X006479Y007885
X002479Y007885
X009479Y007885
X007479Y007885
X005479Y007885
X011479Y010885
X013479Y010885
X008479Y013885
X006479Y013885
X012479Y010885
X014479Y010885
X016479Y010885
X002479Y005885
X009479Y013885
X007479Y013885
X005479Y013885
X013479Y007885
X011479Y007885
X015479Y010885
X016479Y007885
X014479Y007885
X012479Y007885
X010479Y007885
X002479Y011885
X015479Y007885
X013479Y013885
X011479Y013885
X016479Y013885
X014479Y013885
X012479Y013885
X010479Y013885
X015479Y013885
X002479Y006885
X002479Y012885
X018479Y003635
X019479Y003635
X008479Y010885
X006479Y010885
X018479Y005135
T00
M30
