G04 MADE WITH FRITZING*
G04 WWW.FRITZING.ORG*
G04 DOUBLE SIDED*
G04 HOLES PLATED*
G04 CONTOUR ON CENTER OF CONTOUR VECTOR*
%ASAXBY*%
%FSLAX23Y23*%
%MOIN*%
%OFA0B0*%
%SFA1.0B1.0*%
%ADD10R,0.031496X0.035433*%
%ADD11R,0.055118X0.059055*%
%ADD12R,0.102362X0.062992*%
%ADD13R,0.001000X0.001000*%
%LNPASTEMASK1*%
G90*
G70*
G54D10*
X394Y338D03*
X468Y338D03*
X431Y417D03*
G54D11*
X665Y299D03*
X746Y299D03*
X665Y417D03*
X746Y417D03*
X1655Y516D03*
X1735Y516D03*
X1655Y366D03*
X1735Y366D03*
G54D12*
X1948Y789D03*
X1806Y789D03*
G36*
X283Y427D02*
X283Y486D01*
X338Y486D01*
X338Y427D01*
X283Y427D01*
G37*
D02*
G36*
X203Y427D02*
X203Y486D01*
X258Y486D01*
X258Y427D01*
X203Y427D01*
G37*
D02*
G36*
X283Y269D02*
X283Y328D01*
X338Y328D01*
X338Y269D01*
X283Y269D01*
G37*
D02*
G36*
X203Y269D02*
X203Y328D01*
X258Y328D01*
X258Y269D01*
X203Y269D01*
G37*
D02*
G36*
X1118Y316D02*
X1177Y316D01*
X1177Y261D01*
X1118Y261D01*
X1118Y316D01*
G37*
D02*
G36*
X1118Y397D02*
X1177Y397D01*
X1177Y342D01*
X1118Y342D01*
X1118Y397D01*
G37*
D02*
G36*
X918Y316D02*
X977Y316D01*
X977Y261D01*
X918Y261D01*
X918Y316D01*
G37*
D02*
G36*
X918Y397D02*
X977Y397D01*
X977Y342D01*
X918Y342D01*
X918Y397D01*
G37*
D02*
G36*
X818Y316D02*
X877Y316D01*
X877Y261D01*
X818Y261D01*
X818Y316D01*
G37*
D02*
G36*
X818Y397D02*
X877Y397D01*
X877Y342D01*
X818Y342D01*
X818Y397D01*
G37*
D02*
G36*
X416Y661D02*
X357Y661D01*
X357Y716D01*
X416Y716D01*
X416Y661D01*
G37*
D02*
G36*
X416Y580D02*
X357Y580D01*
X357Y635D01*
X416Y635D01*
X416Y580D01*
G37*
D02*
G36*
X477Y1261D02*
X418Y1261D01*
X418Y1316D01*
X477Y1316D01*
X477Y1261D01*
G37*
D02*
G36*
X477Y1180D02*
X418Y1180D01*
X418Y1235D01*
X477Y1235D01*
X477Y1180D01*
G37*
D02*
G36*
X1777Y1061D02*
X1718Y1061D01*
X1718Y1116D01*
X1777Y1116D01*
X1777Y1061D01*
G37*
D02*
G36*
X1777Y980D02*
X1718Y980D01*
X1718Y1035D01*
X1777Y1035D01*
X1777Y980D01*
G37*
D02*
G54D13*
D02*
G04 End of PasteMask1*
M02*