G04 MADE WITH FRITZING*
G04 WWW.FRITZING.ORG*
G04 DOUBLE SIDED*
G04 HOLES PLATED*
G04 CONTOUR ON CENTER OF CONTOUR VECTOR*
%ASAXBY*%
%FSLAX23Y23*%
%MOIN*%
%OFA0B0*%
%SFA1.0B1.0*%
%ADD10C,0.049370*%
%ADD11C,0.075000*%
%ADD12C,0.088000*%
%ADD13C,0.085361*%
%ADD14R,0.041496X0.045433*%
%ADD15R,0.065118X0.069055*%
%ADD16R,0.112362X0.072992*%
%ADD17C,0.010000*%
%LNMASK1*%
G90*
G70*
G54D10*
X448Y1089D03*
G54D11*
X1122Y501D03*
X1043Y501D03*
X965Y501D03*
X886Y501D03*
G54D12*
X248Y589D03*
X248Y689D03*
X248Y789D03*
G54D13*
X148Y89D03*
X248Y89D03*
X348Y89D03*
X448Y89D03*
X548Y89D03*
X648Y89D03*
X748Y89D03*
X848Y89D03*
X948Y89D03*
X1048Y89D03*
X1148Y89D03*
X1248Y89D03*
X1348Y89D03*
X1448Y89D03*
X1548Y89D03*
X1648Y89D03*
X1748Y89D03*
X1848Y89D03*
X1948Y89D03*
X2048Y89D03*
X2048Y189D03*
X1948Y189D03*
X1848Y189D03*
X1748Y189D03*
X1648Y189D03*
X1548Y189D03*
X1448Y189D03*
X1348Y189D03*
X1248Y189D03*
X1148Y189D03*
X1048Y189D03*
X948Y189D03*
X848Y189D03*
X748Y189D03*
X648Y189D03*
X548Y189D03*
X448Y189D03*
X348Y189D03*
X248Y189D03*
X148Y189D03*
G54D12*
X248Y1189D03*
X248Y1189D03*
X248Y1289D03*
X1648Y1089D03*
X1548Y1089D03*
X1448Y1089D03*
X1348Y1089D03*
X1248Y1089D03*
X1148Y1089D03*
X548Y789D03*
X648Y789D03*
X748Y789D03*
X848Y789D03*
X948Y789D03*
X1048Y789D03*
X1148Y789D03*
X1248Y789D03*
X1348Y789D03*
X1448Y789D03*
X1548Y789D03*
X1648Y789D03*
X548Y1389D03*
X648Y1389D03*
X748Y1389D03*
X848Y1389D03*
X948Y1389D03*
X1048Y1389D03*
X1148Y1389D03*
X1248Y1389D03*
X1348Y1389D03*
X1448Y1389D03*
X1548Y1389D03*
X1648Y1389D03*
X648Y1089D03*
X748Y1089D03*
X848Y1089D03*
X1948Y514D03*
X1848Y514D03*
X1948Y364D03*
X1848Y364D03*
G54D14*
X394Y338D03*
X468Y338D03*
X431Y417D03*
G54D15*
X665Y299D03*
X746Y299D03*
X665Y417D03*
X746Y417D03*
X1655Y516D03*
X1735Y516D03*
X1655Y366D03*
X1735Y366D03*
G54D16*
X1948Y789D03*
X1806Y789D03*
G54D17*
G36*
X283Y427D02*
X283Y486D01*
X338Y486D01*
X338Y427D01*
X283Y427D01*
G37*
D02*
G36*
X203Y427D02*
X203Y486D01*
X258Y486D01*
X258Y427D01*
X203Y427D01*
G37*
D02*
G36*
X283Y269D02*
X283Y328D01*
X338Y328D01*
X338Y269D01*
X283Y269D01*
G37*
D02*
G36*
X203Y269D02*
X203Y328D01*
X258Y328D01*
X258Y269D01*
X203Y269D01*
G37*
D02*
G36*
X1118Y316D02*
X1177Y316D01*
X1177Y261D01*
X1118Y261D01*
X1118Y316D01*
G37*
D02*
G36*
X1118Y397D02*
X1177Y397D01*
X1177Y342D01*
X1118Y342D01*
X1118Y397D01*
G37*
D02*
G36*
X918Y316D02*
X977Y316D01*
X977Y261D01*
X918Y261D01*
X918Y316D01*
G37*
D02*
G36*
X918Y397D02*
X977Y397D01*
X977Y342D01*
X918Y342D01*
X918Y397D01*
G37*
D02*
G36*
X818Y316D02*
X877Y316D01*
X877Y261D01*
X818Y261D01*
X818Y316D01*
G37*
D02*
G36*
X818Y397D02*
X877Y397D01*
X877Y342D01*
X818Y342D01*
X818Y397D01*
G37*
D02*
G36*
X416Y661D02*
X357Y661D01*
X357Y716D01*
X416Y716D01*
X416Y661D01*
G37*
D02*
G36*
X416Y580D02*
X357Y580D01*
X357Y635D01*
X416Y635D01*
X416Y580D01*
G37*
D02*
G36*
X477Y1261D02*
X418Y1261D01*
X418Y1316D01*
X477Y1316D01*
X477Y1261D01*
G37*
D02*
G36*
X477Y1180D02*
X418Y1180D01*
X418Y1235D01*
X477Y1235D01*
X477Y1180D01*
G37*
D02*
G36*
X1777Y1061D02*
X1718Y1061D01*
X1718Y1116D01*
X1777Y1116D01*
X1777Y1061D01*
G37*
D02*
G36*
X1777Y980D02*
X1718Y980D01*
X1718Y1035D01*
X1777Y1035D01*
X1777Y980D01*
G37*
D02*
G04 End of Mask1*
M02*