G04 MADE WITH FRITZING*
G04 WWW.FRITZING.ORG*
G04 DOUBLE SIDED*
G04 HOLES PLATED*
G04 CONTOUR ON CENTER OF CONTOUR VECTOR*
%ASAXBY*%
%FSLAX23Y23*%
%MOIN*%
%OFA0B0*%
%SFA1.0B1.0*%
%ADD10C,0.075000*%
%ADD11C,0.039370*%
%ADD12C,0.065000*%
%ADD13C,0.078000*%
%ADD14C,0.075361*%
%ADD15R,0.031496X0.035433*%
%ADD16R,0.055118X0.059055*%
%ADD17R,0.102362X0.062992*%
%ADD18C,0.024000*%
%LNCOPPER1*%
G90*
G70*
G54D10*
X117Y1396D03*
X751Y1266D03*
X1262Y1266D03*
X562Y1287D03*
X1054Y903D03*
X651Y549D03*
X1768Y1399D03*
X494Y671D03*
X1223Y487D03*
X1049Y383D03*
G54D11*
X448Y1089D03*
G54D12*
X1122Y501D03*
X1043Y501D03*
X965Y501D03*
X886Y501D03*
G54D13*
X248Y589D03*
X248Y689D03*
X248Y789D03*
G54D14*
X148Y89D03*
X248Y89D03*
X348Y89D03*
X448Y89D03*
X548Y89D03*
X648Y89D03*
X748Y89D03*
X848Y89D03*
X948Y89D03*
X1048Y89D03*
X1148Y89D03*
X1248Y89D03*
X1348Y89D03*
X1448Y89D03*
X1548Y89D03*
X1648Y89D03*
X1748Y89D03*
X1848Y89D03*
X1948Y89D03*
X2048Y89D03*
X2048Y189D03*
X1948Y189D03*
X1848Y189D03*
X1748Y189D03*
X1648Y189D03*
X1548Y189D03*
X1448Y189D03*
X1348Y189D03*
X1248Y189D03*
X1148Y189D03*
X1048Y189D03*
X948Y189D03*
X848Y189D03*
X748Y189D03*
X648Y189D03*
X548Y189D03*
X448Y189D03*
X348Y189D03*
X248Y189D03*
X148Y189D03*
G54D13*
X248Y1189D03*
X248Y1189D03*
X248Y1289D03*
X1648Y1089D03*
X1548Y1089D03*
X1448Y1089D03*
X1348Y1089D03*
X1248Y1089D03*
X1148Y1089D03*
X548Y789D03*
X648Y789D03*
X748Y789D03*
X848Y789D03*
X948Y789D03*
X1048Y789D03*
X1148Y789D03*
X1248Y789D03*
X1348Y789D03*
X1448Y789D03*
X1548Y789D03*
X1648Y789D03*
X548Y1389D03*
X648Y1389D03*
X748Y1389D03*
X848Y1389D03*
X948Y1389D03*
X1048Y1389D03*
X1148Y1389D03*
X1248Y1389D03*
X1348Y1389D03*
X1448Y1389D03*
X1548Y1389D03*
X1648Y1389D03*
X648Y1089D03*
X748Y1089D03*
X848Y1089D03*
X1948Y514D03*
X1848Y514D03*
X1948Y364D03*
X1848Y364D03*
G54D15*
X394Y338D03*
X468Y338D03*
X431Y417D03*
G54D16*
X665Y299D03*
X746Y299D03*
X665Y417D03*
X746Y417D03*
X1655Y516D03*
X1735Y516D03*
X1655Y366D03*
X1735Y366D03*
G54D17*
X1948Y789D03*
X1806Y789D03*
G54D18*
X1127Y478D02*
X1144Y391D01*
D02*
X470Y1311D02*
X527Y1367D01*
D02*
X363Y605D02*
X278Y593D01*
D02*
X363Y689D02*
X278Y689D01*
D02*
X962Y478D02*
X951Y391D01*
D02*
X879Y479D02*
X854Y391D01*
D02*
X1048Y1358D02*
X1048Y1266D01*
D02*
X383Y333D02*
X333Y309D01*
D02*
X1048Y1266D02*
X1248Y1189D01*
D02*
X1248Y1189D02*
X1248Y1119D01*
D02*
X148Y589D02*
X148Y989D01*
D02*
X148Y1189D02*
X218Y1189D01*
D02*
X218Y589D02*
X148Y589D01*
D02*
X1148Y1058D02*
X1148Y989D01*
D02*
X1448Y1119D02*
X1448Y1358D01*
D02*
X148Y989D02*
X848Y989D01*
D02*
X948Y819D02*
X948Y892D01*
D02*
X428Y890D02*
X391Y711D01*
D02*
X948Y892D02*
X428Y890D01*
D02*
X548Y220D02*
X547Y298D01*
D02*
X746Y275D02*
X747Y220D01*
D02*
X547Y298D02*
X643Y299D01*
D02*
X748Y689D02*
X748Y758D01*
D02*
X665Y323D02*
X665Y393D01*
D02*
X746Y441D02*
X748Y689D01*
D02*
X424Y1289D02*
X278Y1289D01*
D02*
X218Y1189D02*
X148Y1189D01*
D02*
X648Y1358D02*
X648Y1119D01*
D02*
X848Y1058D02*
X848Y989D01*
D02*
X948Y220D02*
X948Y267D01*
D02*
X848Y220D02*
X848Y267D01*
D02*
X1148Y989D02*
X1148Y1058D01*
D02*
X848Y989D02*
X1148Y989D01*
D02*
X1148Y989D02*
X1648Y989D01*
D02*
X148Y989D02*
X148Y1189D01*
D02*
X448Y1186D02*
X448Y1108D01*
D02*
X848Y989D02*
X848Y1058D01*
D02*
X1648Y989D02*
X1648Y819D01*
D02*
X2045Y445D02*
X1973Y496D01*
D02*
X1948Y220D02*
X1948Y333D01*
D02*
X2048Y220D02*
X2045Y445D01*
D02*
X148Y1189D02*
X148Y989D01*
D02*
X1148Y220D02*
X1148Y267D01*
D02*
X73Y91D02*
X117Y90D01*
D02*
X208Y298D02*
X76Y294D01*
D02*
X76Y294D02*
X73Y91D01*
D02*
X467Y326D02*
X452Y220D01*
D02*
X428Y455D02*
X333Y456D01*
D02*
X428Y455D02*
X642Y664D01*
D02*
X642Y664D02*
X647Y759D01*
D02*
X430Y429D02*
X428Y455D01*
D02*
X430Y429D02*
X428Y455D01*
D02*
X244Y559D02*
X233Y480D01*
D02*
X1667Y342D02*
X1733Y216D01*
D02*
X1655Y390D02*
X1655Y492D01*
D02*
X1758Y516D02*
X1818Y514D01*
D02*
X1818Y364D02*
X1758Y366D01*
D02*
X1724Y1003D02*
X1648Y989D01*
D02*
X1648Y989D02*
X1648Y819D01*
D02*
X1678Y1089D02*
X1724Y1089D01*
D02*
X1772Y1089D02*
X1848Y1089D01*
D02*
X1848Y1089D02*
X1939Y815D01*
D02*
X1620Y272D02*
X1638Y218D01*
D02*
X1048Y589D02*
X1248Y589D01*
D02*
X1044Y525D02*
X1048Y589D01*
D02*
X1248Y589D02*
X1620Y272D01*
D02*
X1548Y689D02*
X1748Y689D01*
D02*
X1748Y689D02*
X1791Y763D01*
D02*
X1548Y758D02*
X1548Y689D01*
G36*
X40Y1455D02*
X40Y1343D01*
X256Y1343D01*
X256Y1341D01*
X264Y1341D01*
X264Y1339D01*
X270Y1339D01*
X270Y1337D01*
X274Y1337D01*
X274Y1335D01*
X276Y1335D01*
X276Y1333D01*
X280Y1333D01*
X280Y1331D01*
X282Y1331D01*
X282Y1329D01*
X284Y1329D01*
X284Y1327D01*
X286Y1327D01*
X286Y1325D01*
X288Y1325D01*
X288Y1323D01*
X290Y1323D01*
X290Y1321D01*
X292Y1321D01*
X292Y1319D01*
X294Y1319D01*
X294Y1315D01*
X404Y1315D01*
X404Y1331D01*
X454Y1331D01*
X454Y1333D01*
X456Y1333D01*
X456Y1335D01*
X458Y1335D01*
X458Y1337D01*
X460Y1337D01*
X460Y1339D01*
X462Y1339D01*
X462Y1341D01*
X464Y1341D01*
X464Y1343D01*
X466Y1343D01*
X466Y1345D01*
X468Y1345D01*
X468Y1347D01*
X470Y1347D01*
X470Y1349D01*
X472Y1349D01*
X472Y1351D01*
X474Y1351D01*
X474Y1353D01*
X476Y1353D01*
X476Y1355D01*
X478Y1355D01*
X478Y1357D01*
X480Y1357D01*
X480Y1359D01*
X482Y1359D01*
X482Y1361D01*
X484Y1361D01*
X484Y1363D01*
X486Y1363D01*
X486Y1365D01*
X488Y1365D01*
X488Y1367D01*
X490Y1367D01*
X490Y1369D01*
X492Y1369D01*
X492Y1371D01*
X494Y1371D01*
X494Y1399D01*
X496Y1399D01*
X496Y1407D01*
X498Y1407D01*
X498Y1411D01*
X500Y1411D01*
X500Y1415D01*
X502Y1415D01*
X502Y1419D01*
X504Y1419D01*
X504Y1421D01*
X506Y1421D01*
X506Y1423D01*
X508Y1423D01*
X508Y1425D01*
X510Y1425D01*
X510Y1427D01*
X512Y1427D01*
X512Y1429D01*
X514Y1429D01*
X514Y1431D01*
X516Y1431D01*
X516Y1433D01*
X518Y1433D01*
X518Y1435D01*
X522Y1435D01*
X522Y1455D01*
X40Y1455D01*
G37*
D02*
G36*
X40Y1343D02*
X40Y411D01*
X188Y411D01*
X188Y501D01*
X210Y501D01*
X210Y517D01*
X212Y517D01*
X212Y549D01*
X210Y549D01*
X210Y551D01*
X208Y551D01*
X208Y553D01*
X206Y553D01*
X206Y557D01*
X204Y557D01*
X204Y559D01*
X202Y559D01*
X202Y561D01*
X146Y561D01*
X146Y563D01*
X138Y563D01*
X138Y565D01*
X134Y565D01*
X134Y567D01*
X130Y567D01*
X130Y569D01*
X128Y569D01*
X128Y571D01*
X126Y571D01*
X126Y575D01*
X124Y575D01*
X124Y579D01*
X122Y579D01*
X122Y589D01*
X120Y589D01*
X120Y1189D01*
X122Y1189D01*
X122Y1199D01*
X124Y1199D01*
X124Y1203D01*
X126Y1203D01*
X126Y1205D01*
X128Y1205D01*
X128Y1207D01*
X130Y1207D01*
X130Y1209D01*
X132Y1209D01*
X132Y1211D01*
X134Y1211D01*
X134Y1213D01*
X138Y1213D01*
X138Y1215D01*
X202Y1215D01*
X202Y1219D01*
X204Y1219D01*
X204Y1221D01*
X206Y1221D01*
X206Y1223D01*
X208Y1223D01*
X208Y1225D01*
X210Y1225D01*
X210Y1227D01*
X212Y1227D01*
X212Y1249D01*
X210Y1249D01*
X210Y1251D01*
X208Y1251D01*
X208Y1253D01*
X206Y1253D01*
X206Y1257D01*
X204Y1257D01*
X204Y1259D01*
X202Y1259D01*
X202Y1263D01*
X200Y1263D01*
X200Y1267D01*
X198Y1267D01*
X198Y1271D01*
X196Y1271D01*
X196Y1279D01*
X194Y1279D01*
X194Y1299D01*
X196Y1299D01*
X196Y1307D01*
X198Y1307D01*
X198Y1311D01*
X200Y1311D01*
X200Y1315D01*
X202Y1315D01*
X202Y1319D01*
X204Y1319D01*
X204Y1321D01*
X206Y1321D01*
X206Y1323D01*
X208Y1323D01*
X208Y1325D01*
X210Y1325D01*
X210Y1327D01*
X212Y1327D01*
X212Y1329D01*
X214Y1329D01*
X214Y1331D01*
X216Y1331D01*
X216Y1333D01*
X218Y1333D01*
X218Y1335D01*
X222Y1335D01*
X222Y1337D01*
X226Y1337D01*
X226Y1339D01*
X232Y1339D01*
X232Y1341D01*
X240Y1341D01*
X240Y1343D01*
X40Y1343D01*
G37*
D02*
G36*
X354Y429D02*
X354Y413D01*
X352Y413D01*
X352Y411D01*
X400Y411D01*
X400Y429D01*
X354Y429D01*
G37*
D02*
G36*
X40Y411D02*
X40Y409D01*
X400Y409D01*
X400Y411D01*
X40Y411D01*
G37*
D02*
G36*
X40Y411D02*
X40Y409D01*
X400Y409D01*
X400Y411D01*
X40Y411D01*
G37*
D02*
G36*
X40Y409D02*
X40Y315D01*
X60Y315D01*
X60Y317D01*
X64Y317D01*
X64Y319D01*
X68Y319D01*
X68Y321D01*
X100Y321D01*
X100Y323D01*
X164Y323D01*
X164Y325D01*
X188Y325D01*
X188Y343D01*
X342Y343D01*
X342Y345D01*
X346Y345D01*
X346Y347D01*
X352Y347D01*
X352Y349D01*
X356Y349D01*
X356Y351D01*
X360Y351D01*
X360Y353D01*
X362Y353D01*
X362Y371D01*
X400Y371D01*
X400Y409D01*
X40Y409D01*
G37*
D02*
G36*
X688Y1353D02*
X688Y1351D01*
X686Y1351D01*
X686Y1349D01*
X682Y1349D01*
X682Y1347D01*
X680Y1347D01*
X680Y1345D01*
X678Y1345D01*
X678Y1343D01*
X674Y1343D01*
X674Y1335D01*
X736Y1335D01*
X736Y1337D01*
X730Y1337D01*
X730Y1339D01*
X726Y1339D01*
X726Y1341D01*
X722Y1341D01*
X722Y1343D01*
X718Y1343D01*
X718Y1345D01*
X716Y1345D01*
X716Y1347D01*
X712Y1347D01*
X712Y1349D01*
X710Y1349D01*
X710Y1351D01*
X708Y1351D01*
X708Y1353D01*
X688Y1353D01*
G37*
D02*
G36*
X788Y1353D02*
X788Y1351D01*
X786Y1351D01*
X786Y1349D01*
X782Y1349D01*
X782Y1347D01*
X780Y1347D01*
X780Y1345D01*
X778Y1345D01*
X778Y1343D01*
X774Y1343D01*
X774Y1341D01*
X770Y1341D01*
X770Y1339D01*
X766Y1339D01*
X766Y1337D01*
X760Y1337D01*
X760Y1335D01*
X836Y1335D01*
X836Y1337D01*
X830Y1337D01*
X830Y1339D01*
X826Y1339D01*
X826Y1341D01*
X822Y1341D01*
X822Y1343D01*
X818Y1343D01*
X818Y1345D01*
X816Y1345D01*
X816Y1347D01*
X812Y1347D01*
X812Y1349D01*
X810Y1349D01*
X810Y1351D01*
X808Y1351D01*
X808Y1353D01*
X788Y1353D01*
G37*
D02*
G36*
X888Y1353D02*
X888Y1351D01*
X886Y1351D01*
X886Y1349D01*
X882Y1349D01*
X882Y1347D01*
X880Y1347D01*
X880Y1345D01*
X878Y1345D01*
X878Y1343D01*
X874Y1343D01*
X874Y1341D01*
X870Y1341D01*
X870Y1339D01*
X866Y1339D01*
X866Y1337D01*
X860Y1337D01*
X860Y1335D01*
X936Y1335D01*
X936Y1337D01*
X930Y1337D01*
X930Y1339D01*
X926Y1339D01*
X926Y1341D01*
X922Y1341D01*
X922Y1343D01*
X918Y1343D01*
X918Y1345D01*
X916Y1345D01*
X916Y1347D01*
X912Y1347D01*
X912Y1349D01*
X910Y1349D01*
X910Y1351D01*
X908Y1351D01*
X908Y1353D01*
X888Y1353D01*
G37*
D02*
G36*
X988Y1353D02*
X988Y1351D01*
X986Y1351D01*
X986Y1349D01*
X982Y1349D01*
X982Y1347D01*
X980Y1347D01*
X980Y1345D01*
X978Y1345D01*
X978Y1343D01*
X974Y1343D01*
X974Y1341D01*
X970Y1341D01*
X970Y1339D01*
X966Y1339D01*
X966Y1337D01*
X960Y1337D01*
X960Y1335D01*
X1020Y1335D01*
X1020Y1343D01*
X1018Y1343D01*
X1018Y1345D01*
X1016Y1345D01*
X1016Y1347D01*
X1012Y1347D01*
X1012Y1349D01*
X1010Y1349D01*
X1010Y1351D01*
X1008Y1351D01*
X1008Y1353D01*
X988Y1353D01*
G37*
D02*
G36*
X674Y1335D02*
X674Y1333D01*
X1020Y1333D01*
X1020Y1335D01*
X674Y1335D01*
G37*
D02*
G36*
X674Y1335D02*
X674Y1333D01*
X1020Y1333D01*
X1020Y1335D01*
X674Y1335D01*
G37*
D02*
G36*
X674Y1335D02*
X674Y1333D01*
X1020Y1333D01*
X1020Y1335D01*
X674Y1335D01*
G37*
D02*
G36*
X674Y1335D02*
X674Y1333D01*
X1020Y1333D01*
X1020Y1335D01*
X674Y1335D01*
G37*
D02*
G36*
X674Y1333D02*
X674Y1143D01*
X1156Y1143D01*
X1156Y1141D01*
X1164Y1141D01*
X1164Y1139D01*
X1170Y1139D01*
X1170Y1137D01*
X1174Y1137D01*
X1174Y1135D01*
X1176Y1135D01*
X1176Y1133D01*
X1180Y1133D01*
X1180Y1131D01*
X1182Y1131D01*
X1182Y1129D01*
X1184Y1129D01*
X1184Y1127D01*
X1186Y1127D01*
X1186Y1125D01*
X1188Y1125D01*
X1188Y1123D01*
X1208Y1123D01*
X1208Y1125D01*
X1210Y1125D01*
X1210Y1127D01*
X1212Y1127D01*
X1212Y1129D01*
X1214Y1129D01*
X1214Y1131D01*
X1216Y1131D01*
X1216Y1133D01*
X1218Y1133D01*
X1218Y1135D01*
X1220Y1135D01*
X1220Y1171D01*
X1216Y1171D01*
X1216Y1173D01*
X1212Y1173D01*
X1212Y1175D01*
X1206Y1175D01*
X1206Y1177D01*
X1202Y1177D01*
X1202Y1179D01*
X1196Y1179D01*
X1196Y1181D01*
X1190Y1181D01*
X1190Y1183D01*
X1186Y1183D01*
X1186Y1185D01*
X1180Y1185D01*
X1180Y1187D01*
X1176Y1187D01*
X1176Y1189D01*
X1170Y1189D01*
X1170Y1191D01*
X1166Y1191D01*
X1166Y1193D01*
X1160Y1193D01*
X1160Y1195D01*
X1154Y1195D01*
X1154Y1197D01*
X1150Y1197D01*
X1150Y1199D01*
X1144Y1199D01*
X1144Y1201D01*
X1140Y1201D01*
X1140Y1203D01*
X1134Y1203D01*
X1134Y1205D01*
X1130Y1205D01*
X1130Y1207D01*
X1124Y1207D01*
X1124Y1209D01*
X1118Y1209D01*
X1118Y1211D01*
X1114Y1211D01*
X1114Y1213D01*
X1108Y1213D01*
X1108Y1215D01*
X1104Y1215D01*
X1104Y1217D01*
X1098Y1217D01*
X1098Y1219D01*
X1094Y1219D01*
X1094Y1221D01*
X1088Y1221D01*
X1088Y1223D01*
X1082Y1223D01*
X1082Y1225D01*
X1078Y1225D01*
X1078Y1227D01*
X1072Y1227D01*
X1072Y1229D01*
X1068Y1229D01*
X1068Y1231D01*
X1062Y1231D01*
X1062Y1233D01*
X1058Y1233D01*
X1058Y1235D01*
X1052Y1235D01*
X1052Y1237D01*
X1046Y1237D01*
X1046Y1239D01*
X1042Y1239D01*
X1042Y1241D01*
X1036Y1241D01*
X1036Y1243D01*
X1034Y1243D01*
X1034Y1245D01*
X1030Y1245D01*
X1030Y1247D01*
X1028Y1247D01*
X1028Y1249D01*
X1026Y1249D01*
X1026Y1253D01*
X1024Y1253D01*
X1024Y1257D01*
X1022Y1257D01*
X1022Y1265D01*
X1020Y1265D01*
X1020Y1333D01*
X674Y1333D01*
G37*
D02*
G36*
X674Y1143D02*
X674Y1135D01*
X676Y1135D01*
X676Y1133D01*
X680Y1133D01*
X680Y1131D01*
X682Y1131D01*
X682Y1129D01*
X684Y1129D01*
X684Y1127D01*
X686Y1127D01*
X686Y1125D01*
X688Y1125D01*
X688Y1123D01*
X708Y1123D01*
X708Y1125D01*
X710Y1125D01*
X710Y1127D01*
X712Y1127D01*
X712Y1129D01*
X714Y1129D01*
X714Y1131D01*
X716Y1131D01*
X716Y1133D01*
X718Y1133D01*
X718Y1135D01*
X722Y1135D01*
X722Y1137D01*
X726Y1137D01*
X726Y1139D01*
X732Y1139D01*
X732Y1141D01*
X740Y1141D01*
X740Y1143D01*
X674Y1143D01*
G37*
D02*
G36*
X756Y1143D02*
X756Y1141D01*
X764Y1141D01*
X764Y1139D01*
X770Y1139D01*
X770Y1137D01*
X774Y1137D01*
X774Y1135D01*
X776Y1135D01*
X776Y1133D01*
X780Y1133D01*
X780Y1131D01*
X782Y1131D01*
X782Y1129D01*
X784Y1129D01*
X784Y1127D01*
X786Y1127D01*
X786Y1125D01*
X788Y1125D01*
X788Y1123D01*
X808Y1123D01*
X808Y1125D01*
X810Y1125D01*
X810Y1127D01*
X812Y1127D01*
X812Y1129D01*
X814Y1129D01*
X814Y1131D01*
X816Y1131D01*
X816Y1133D01*
X818Y1133D01*
X818Y1135D01*
X822Y1135D01*
X822Y1137D01*
X826Y1137D01*
X826Y1139D01*
X832Y1139D01*
X832Y1141D01*
X840Y1141D01*
X840Y1143D01*
X756Y1143D01*
G37*
D02*
G36*
X856Y1143D02*
X856Y1141D01*
X864Y1141D01*
X864Y1139D01*
X870Y1139D01*
X870Y1137D01*
X874Y1137D01*
X874Y1135D01*
X876Y1135D01*
X876Y1133D01*
X880Y1133D01*
X880Y1131D01*
X882Y1131D01*
X882Y1129D01*
X884Y1129D01*
X884Y1127D01*
X886Y1127D01*
X886Y1125D01*
X888Y1125D01*
X888Y1123D01*
X890Y1123D01*
X890Y1121D01*
X892Y1121D01*
X892Y1119D01*
X894Y1119D01*
X894Y1115D01*
X896Y1115D01*
X896Y1111D01*
X898Y1111D01*
X898Y1105D01*
X900Y1105D01*
X900Y1097D01*
X902Y1097D01*
X902Y1079D01*
X900Y1079D01*
X900Y1071D01*
X898Y1071D01*
X898Y1067D01*
X896Y1067D01*
X896Y1063D01*
X894Y1063D01*
X894Y1059D01*
X892Y1059D01*
X892Y1057D01*
X890Y1057D01*
X890Y1055D01*
X888Y1055D01*
X888Y1051D01*
X886Y1051D01*
X886Y1049D01*
X882Y1049D01*
X882Y1047D01*
X880Y1047D01*
X880Y1045D01*
X878Y1045D01*
X878Y1043D01*
X874Y1043D01*
X874Y1015D01*
X1120Y1015D01*
X1120Y1043D01*
X1118Y1043D01*
X1118Y1045D01*
X1116Y1045D01*
X1116Y1047D01*
X1112Y1047D01*
X1112Y1049D01*
X1110Y1049D01*
X1110Y1051D01*
X1108Y1051D01*
X1108Y1053D01*
X1106Y1053D01*
X1106Y1057D01*
X1104Y1057D01*
X1104Y1059D01*
X1102Y1059D01*
X1102Y1063D01*
X1100Y1063D01*
X1100Y1067D01*
X1098Y1067D01*
X1098Y1071D01*
X1096Y1071D01*
X1096Y1079D01*
X1094Y1079D01*
X1094Y1099D01*
X1096Y1099D01*
X1096Y1107D01*
X1098Y1107D01*
X1098Y1111D01*
X1100Y1111D01*
X1100Y1115D01*
X1102Y1115D01*
X1102Y1119D01*
X1104Y1119D01*
X1104Y1121D01*
X1106Y1121D01*
X1106Y1123D01*
X1108Y1123D01*
X1108Y1125D01*
X1110Y1125D01*
X1110Y1127D01*
X1112Y1127D01*
X1112Y1129D01*
X1114Y1129D01*
X1114Y1131D01*
X1116Y1131D01*
X1116Y1133D01*
X1118Y1133D01*
X1118Y1135D01*
X1122Y1135D01*
X1122Y1137D01*
X1126Y1137D01*
X1126Y1139D01*
X1132Y1139D01*
X1132Y1141D01*
X1140Y1141D01*
X1140Y1143D01*
X856Y1143D01*
G37*
D02*
G36*
X1088Y1353D02*
X1088Y1351D01*
X1086Y1351D01*
X1086Y1349D01*
X1082Y1349D01*
X1082Y1347D01*
X1080Y1347D01*
X1080Y1345D01*
X1078Y1345D01*
X1078Y1343D01*
X1074Y1343D01*
X1074Y1335D01*
X1136Y1335D01*
X1136Y1337D01*
X1130Y1337D01*
X1130Y1339D01*
X1126Y1339D01*
X1126Y1341D01*
X1122Y1341D01*
X1122Y1343D01*
X1118Y1343D01*
X1118Y1345D01*
X1116Y1345D01*
X1116Y1347D01*
X1112Y1347D01*
X1112Y1349D01*
X1110Y1349D01*
X1110Y1351D01*
X1108Y1351D01*
X1108Y1353D01*
X1088Y1353D01*
G37*
D02*
G36*
X1188Y1353D02*
X1188Y1351D01*
X1186Y1351D01*
X1186Y1349D01*
X1182Y1349D01*
X1182Y1347D01*
X1180Y1347D01*
X1180Y1345D01*
X1178Y1345D01*
X1178Y1343D01*
X1174Y1343D01*
X1174Y1341D01*
X1170Y1341D01*
X1170Y1339D01*
X1166Y1339D01*
X1166Y1337D01*
X1160Y1337D01*
X1160Y1335D01*
X1236Y1335D01*
X1236Y1337D01*
X1230Y1337D01*
X1230Y1339D01*
X1226Y1339D01*
X1226Y1341D01*
X1222Y1341D01*
X1222Y1343D01*
X1218Y1343D01*
X1218Y1345D01*
X1216Y1345D01*
X1216Y1347D01*
X1212Y1347D01*
X1212Y1349D01*
X1210Y1349D01*
X1210Y1351D01*
X1208Y1351D01*
X1208Y1353D01*
X1188Y1353D01*
G37*
D02*
G36*
X1288Y1353D02*
X1288Y1351D01*
X1286Y1351D01*
X1286Y1349D01*
X1282Y1349D01*
X1282Y1347D01*
X1280Y1347D01*
X1280Y1345D01*
X1278Y1345D01*
X1278Y1343D01*
X1274Y1343D01*
X1274Y1341D01*
X1270Y1341D01*
X1270Y1339D01*
X1266Y1339D01*
X1266Y1337D01*
X1260Y1337D01*
X1260Y1335D01*
X1336Y1335D01*
X1336Y1337D01*
X1330Y1337D01*
X1330Y1339D01*
X1326Y1339D01*
X1326Y1341D01*
X1322Y1341D01*
X1322Y1343D01*
X1318Y1343D01*
X1318Y1345D01*
X1316Y1345D01*
X1316Y1347D01*
X1312Y1347D01*
X1312Y1349D01*
X1310Y1349D01*
X1310Y1351D01*
X1308Y1351D01*
X1308Y1353D01*
X1288Y1353D01*
G37*
D02*
G36*
X1388Y1353D02*
X1388Y1351D01*
X1386Y1351D01*
X1386Y1349D01*
X1382Y1349D01*
X1382Y1347D01*
X1380Y1347D01*
X1380Y1345D01*
X1378Y1345D01*
X1378Y1343D01*
X1374Y1343D01*
X1374Y1341D01*
X1370Y1341D01*
X1370Y1339D01*
X1366Y1339D01*
X1366Y1337D01*
X1360Y1337D01*
X1360Y1335D01*
X1420Y1335D01*
X1420Y1343D01*
X1418Y1343D01*
X1418Y1345D01*
X1416Y1345D01*
X1416Y1347D01*
X1412Y1347D01*
X1412Y1349D01*
X1410Y1349D01*
X1410Y1351D01*
X1408Y1351D01*
X1408Y1353D01*
X1388Y1353D01*
G37*
D02*
G36*
X1074Y1335D02*
X1074Y1333D01*
X1420Y1333D01*
X1420Y1335D01*
X1074Y1335D01*
G37*
D02*
G36*
X1074Y1335D02*
X1074Y1333D01*
X1420Y1333D01*
X1420Y1335D01*
X1074Y1335D01*
G37*
D02*
G36*
X1074Y1335D02*
X1074Y1333D01*
X1420Y1333D01*
X1420Y1335D01*
X1074Y1335D01*
G37*
D02*
G36*
X1074Y1335D02*
X1074Y1333D01*
X1420Y1333D01*
X1420Y1335D01*
X1074Y1335D01*
G37*
D02*
G36*
X1074Y1333D02*
X1074Y1285D01*
X1078Y1285D01*
X1078Y1283D01*
X1082Y1283D01*
X1082Y1281D01*
X1088Y1281D01*
X1088Y1279D01*
X1092Y1279D01*
X1092Y1277D01*
X1098Y1277D01*
X1098Y1275D01*
X1104Y1275D01*
X1104Y1273D01*
X1108Y1273D01*
X1108Y1271D01*
X1114Y1271D01*
X1114Y1269D01*
X1118Y1269D01*
X1118Y1267D01*
X1124Y1267D01*
X1124Y1265D01*
X1128Y1265D01*
X1128Y1263D01*
X1134Y1263D01*
X1134Y1261D01*
X1140Y1261D01*
X1140Y1259D01*
X1144Y1259D01*
X1144Y1257D01*
X1150Y1257D01*
X1150Y1255D01*
X1154Y1255D01*
X1154Y1253D01*
X1160Y1253D01*
X1160Y1251D01*
X1164Y1251D01*
X1164Y1249D01*
X1170Y1249D01*
X1170Y1247D01*
X1176Y1247D01*
X1176Y1245D01*
X1180Y1245D01*
X1180Y1243D01*
X1186Y1243D01*
X1186Y1241D01*
X1190Y1241D01*
X1190Y1239D01*
X1196Y1239D01*
X1196Y1237D01*
X1200Y1237D01*
X1200Y1235D01*
X1206Y1235D01*
X1206Y1233D01*
X1212Y1233D01*
X1212Y1231D01*
X1216Y1231D01*
X1216Y1229D01*
X1222Y1229D01*
X1222Y1227D01*
X1226Y1227D01*
X1226Y1225D01*
X1232Y1225D01*
X1232Y1223D01*
X1236Y1223D01*
X1236Y1221D01*
X1242Y1221D01*
X1242Y1219D01*
X1248Y1219D01*
X1248Y1217D01*
X1252Y1217D01*
X1252Y1215D01*
X1258Y1215D01*
X1258Y1213D01*
X1262Y1213D01*
X1262Y1211D01*
X1264Y1211D01*
X1264Y1209D01*
X1266Y1209D01*
X1266Y1207D01*
X1268Y1207D01*
X1268Y1205D01*
X1270Y1205D01*
X1270Y1203D01*
X1272Y1203D01*
X1272Y1199D01*
X1274Y1199D01*
X1274Y1143D01*
X1356Y1143D01*
X1356Y1141D01*
X1364Y1141D01*
X1364Y1139D01*
X1370Y1139D01*
X1370Y1137D01*
X1374Y1137D01*
X1374Y1135D01*
X1376Y1135D01*
X1376Y1133D01*
X1380Y1133D01*
X1380Y1131D01*
X1382Y1131D01*
X1382Y1129D01*
X1384Y1129D01*
X1384Y1127D01*
X1386Y1127D01*
X1386Y1125D01*
X1388Y1125D01*
X1388Y1123D01*
X1408Y1123D01*
X1408Y1125D01*
X1410Y1125D01*
X1410Y1127D01*
X1412Y1127D01*
X1412Y1129D01*
X1414Y1129D01*
X1414Y1131D01*
X1416Y1131D01*
X1416Y1133D01*
X1418Y1133D01*
X1418Y1135D01*
X1420Y1135D01*
X1420Y1333D01*
X1074Y1333D01*
G37*
D02*
G36*
X1274Y1143D02*
X1274Y1135D01*
X1276Y1135D01*
X1276Y1133D01*
X1280Y1133D01*
X1280Y1131D01*
X1282Y1131D01*
X1282Y1129D01*
X1284Y1129D01*
X1284Y1127D01*
X1286Y1127D01*
X1286Y1125D01*
X1288Y1125D01*
X1288Y1123D01*
X1308Y1123D01*
X1308Y1125D01*
X1310Y1125D01*
X1310Y1127D01*
X1312Y1127D01*
X1312Y1129D01*
X1314Y1129D01*
X1314Y1131D01*
X1316Y1131D01*
X1316Y1133D01*
X1318Y1133D01*
X1318Y1135D01*
X1322Y1135D01*
X1322Y1137D01*
X1326Y1137D01*
X1326Y1139D01*
X1332Y1139D01*
X1332Y1141D01*
X1340Y1141D01*
X1340Y1143D01*
X1274Y1143D01*
G37*
D02*
G36*
X588Y1353D02*
X588Y1351D01*
X586Y1351D01*
X586Y1349D01*
X582Y1349D01*
X582Y1347D01*
X580Y1347D01*
X580Y1345D01*
X578Y1345D01*
X578Y1343D01*
X574Y1343D01*
X574Y1341D01*
X570Y1341D01*
X570Y1339D01*
X566Y1339D01*
X566Y1337D01*
X560Y1337D01*
X560Y1335D01*
X532Y1335D01*
X532Y1333D01*
X530Y1333D01*
X530Y1331D01*
X528Y1331D01*
X528Y1329D01*
X526Y1329D01*
X526Y1327D01*
X524Y1327D01*
X524Y1325D01*
X522Y1325D01*
X522Y1323D01*
X520Y1323D01*
X520Y1321D01*
X518Y1321D01*
X518Y1319D01*
X516Y1319D01*
X516Y1317D01*
X514Y1317D01*
X514Y1315D01*
X512Y1315D01*
X512Y1313D01*
X510Y1313D01*
X510Y1311D01*
X508Y1311D01*
X508Y1309D01*
X506Y1309D01*
X506Y1307D01*
X504Y1307D01*
X504Y1305D01*
X502Y1305D01*
X502Y1303D01*
X500Y1303D01*
X500Y1301D01*
X498Y1301D01*
X498Y1299D01*
X496Y1299D01*
X496Y1297D01*
X494Y1297D01*
X494Y1295D01*
X492Y1295D01*
X492Y1165D01*
X620Y1165D01*
X620Y1343D01*
X618Y1343D01*
X618Y1345D01*
X616Y1345D01*
X616Y1347D01*
X612Y1347D01*
X612Y1349D01*
X610Y1349D01*
X610Y1351D01*
X608Y1351D01*
X608Y1353D01*
X588Y1353D01*
G37*
D02*
G36*
X294Y1261D02*
X294Y1259D01*
X292Y1259D01*
X292Y1257D01*
X290Y1257D01*
X290Y1255D01*
X288Y1255D01*
X288Y1251D01*
X286Y1251D01*
X286Y1249D01*
X282Y1249D01*
X282Y1229D01*
X284Y1229D01*
X284Y1227D01*
X286Y1227D01*
X286Y1225D01*
X288Y1225D01*
X288Y1223D01*
X290Y1223D01*
X290Y1221D01*
X292Y1221D01*
X292Y1219D01*
X294Y1219D01*
X294Y1215D01*
X296Y1215D01*
X296Y1211D01*
X298Y1211D01*
X298Y1205D01*
X300Y1205D01*
X300Y1197D01*
X302Y1197D01*
X302Y1179D01*
X300Y1179D01*
X300Y1171D01*
X298Y1171D01*
X298Y1167D01*
X296Y1167D01*
X296Y1165D01*
X404Y1165D01*
X404Y1261D01*
X294Y1261D01*
G37*
D02*
G36*
X296Y1165D02*
X296Y1163D01*
X620Y1163D01*
X620Y1165D01*
X296Y1165D01*
G37*
D02*
G36*
X296Y1165D02*
X296Y1163D01*
X620Y1163D01*
X620Y1165D01*
X296Y1165D01*
G37*
D02*
G36*
X294Y1163D02*
X294Y1159D01*
X292Y1159D01*
X292Y1157D01*
X290Y1157D01*
X290Y1155D01*
X288Y1155D01*
X288Y1151D01*
X286Y1151D01*
X286Y1149D01*
X282Y1149D01*
X282Y1147D01*
X280Y1147D01*
X280Y1145D01*
X278Y1145D01*
X278Y1143D01*
X274Y1143D01*
X274Y1141D01*
X270Y1141D01*
X270Y1139D01*
X266Y1139D01*
X266Y1137D01*
X260Y1137D01*
X260Y1135D01*
X620Y1135D01*
X620Y1163D01*
X294Y1163D01*
G37*
D02*
G36*
X174Y1161D02*
X174Y1135D01*
X236Y1135D01*
X236Y1137D01*
X230Y1137D01*
X230Y1139D01*
X226Y1139D01*
X226Y1141D01*
X222Y1141D01*
X222Y1143D01*
X218Y1143D01*
X218Y1145D01*
X216Y1145D01*
X216Y1147D01*
X212Y1147D01*
X212Y1149D01*
X210Y1149D01*
X210Y1151D01*
X208Y1151D01*
X208Y1153D01*
X206Y1153D01*
X206Y1157D01*
X204Y1157D01*
X204Y1159D01*
X202Y1159D01*
X202Y1161D01*
X174Y1161D01*
G37*
D02*
G36*
X174Y1135D02*
X174Y1133D01*
X618Y1133D01*
X618Y1135D01*
X174Y1135D01*
G37*
D02*
G36*
X174Y1135D02*
X174Y1133D01*
X618Y1133D01*
X618Y1135D01*
X174Y1135D01*
G37*
D02*
G36*
X174Y1133D02*
X174Y1123D01*
X456Y1123D01*
X456Y1121D01*
X462Y1121D01*
X462Y1119D01*
X466Y1119D01*
X466Y1117D01*
X470Y1117D01*
X470Y1115D01*
X472Y1115D01*
X472Y1113D01*
X474Y1113D01*
X474Y1111D01*
X476Y1111D01*
X476Y1107D01*
X478Y1107D01*
X478Y1103D01*
X480Y1103D01*
X480Y1099D01*
X482Y1099D01*
X482Y1079D01*
X480Y1079D01*
X480Y1073D01*
X478Y1073D01*
X478Y1071D01*
X476Y1071D01*
X476Y1067D01*
X474Y1067D01*
X474Y1065D01*
X472Y1065D01*
X472Y1063D01*
X470Y1063D01*
X470Y1061D01*
X468Y1061D01*
X468Y1059D01*
X464Y1059D01*
X464Y1057D01*
X458Y1057D01*
X458Y1055D01*
X606Y1055D01*
X606Y1057D01*
X604Y1057D01*
X604Y1059D01*
X602Y1059D01*
X602Y1063D01*
X600Y1063D01*
X600Y1067D01*
X598Y1067D01*
X598Y1071D01*
X596Y1071D01*
X596Y1079D01*
X594Y1079D01*
X594Y1099D01*
X596Y1099D01*
X596Y1107D01*
X598Y1107D01*
X598Y1111D01*
X600Y1111D01*
X600Y1115D01*
X602Y1115D01*
X602Y1119D01*
X604Y1119D01*
X604Y1121D01*
X606Y1121D01*
X606Y1123D01*
X608Y1123D01*
X608Y1125D01*
X610Y1125D01*
X610Y1127D01*
X612Y1127D01*
X612Y1129D01*
X614Y1129D01*
X614Y1131D01*
X616Y1131D01*
X616Y1133D01*
X174Y1133D01*
G37*
D02*
G36*
X174Y1123D02*
X174Y1055D01*
X436Y1055D01*
X436Y1057D01*
X432Y1057D01*
X432Y1059D01*
X428Y1059D01*
X428Y1061D01*
X426Y1061D01*
X426Y1063D01*
X424Y1063D01*
X424Y1065D01*
X422Y1065D01*
X422Y1067D01*
X420Y1067D01*
X420Y1069D01*
X418Y1069D01*
X418Y1073D01*
X416Y1073D01*
X416Y1079D01*
X414Y1079D01*
X414Y1099D01*
X416Y1099D01*
X416Y1105D01*
X418Y1105D01*
X418Y1107D01*
X420Y1107D01*
X420Y1111D01*
X422Y1111D01*
X422Y1113D01*
X424Y1113D01*
X424Y1115D01*
X426Y1115D01*
X426Y1117D01*
X430Y1117D01*
X430Y1119D01*
X434Y1119D01*
X434Y1121D01*
X438Y1121D01*
X438Y1123D01*
X174Y1123D01*
G37*
D02*
G36*
X174Y1055D02*
X174Y1053D01*
X606Y1053D01*
X606Y1055D01*
X174Y1055D01*
G37*
D02*
G36*
X174Y1055D02*
X174Y1053D01*
X606Y1053D01*
X606Y1055D01*
X174Y1055D01*
G37*
D02*
G36*
X174Y1053D02*
X174Y1035D01*
X636Y1035D01*
X636Y1037D01*
X630Y1037D01*
X630Y1039D01*
X626Y1039D01*
X626Y1041D01*
X622Y1041D01*
X622Y1043D01*
X618Y1043D01*
X618Y1045D01*
X616Y1045D01*
X616Y1047D01*
X612Y1047D01*
X612Y1049D01*
X610Y1049D01*
X610Y1051D01*
X608Y1051D01*
X608Y1053D01*
X174Y1053D01*
G37*
D02*
G36*
X688Y1053D02*
X688Y1051D01*
X686Y1051D01*
X686Y1049D01*
X682Y1049D01*
X682Y1047D01*
X680Y1047D01*
X680Y1045D01*
X678Y1045D01*
X678Y1043D01*
X674Y1043D01*
X674Y1041D01*
X670Y1041D01*
X670Y1039D01*
X666Y1039D01*
X666Y1037D01*
X660Y1037D01*
X660Y1035D01*
X736Y1035D01*
X736Y1037D01*
X730Y1037D01*
X730Y1039D01*
X726Y1039D01*
X726Y1041D01*
X722Y1041D01*
X722Y1043D01*
X718Y1043D01*
X718Y1045D01*
X716Y1045D01*
X716Y1047D01*
X712Y1047D01*
X712Y1049D01*
X710Y1049D01*
X710Y1051D01*
X708Y1051D01*
X708Y1053D01*
X688Y1053D01*
G37*
D02*
G36*
X788Y1053D02*
X788Y1051D01*
X786Y1051D01*
X786Y1049D01*
X782Y1049D01*
X782Y1047D01*
X780Y1047D01*
X780Y1045D01*
X778Y1045D01*
X778Y1043D01*
X774Y1043D01*
X774Y1041D01*
X770Y1041D01*
X770Y1039D01*
X766Y1039D01*
X766Y1037D01*
X760Y1037D01*
X760Y1035D01*
X820Y1035D01*
X820Y1043D01*
X818Y1043D01*
X818Y1045D01*
X816Y1045D01*
X816Y1047D01*
X812Y1047D01*
X812Y1049D01*
X810Y1049D01*
X810Y1051D01*
X808Y1051D01*
X808Y1053D01*
X788Y1053D01*
G37*
D02*
G36*
X174Y1035D02*
X174Y1033D01*
X820Y1033D01*
X820Y1035D01*
X174Y1035D01*
G37*
D02*
G36*
X174Y1035D02*
X174Y1033D01*
X820Y1033D01*
X820Y1035D01*
X174Y1035D01*
G37*
D02*
G36*
X174Y1035D02*
X174Y1033D01*
X820Y1033D01*
X820Y1035D01*
X174Y1035D01*
G37*
D02*
G36*
X174Y1033D02*
X174Y1015D01*
X820Y1015D01*
X820Y1033D01*
X174Y1033D01*
G37*
D02*
G36*
X174Y961D02*
X174Y919D01*
X956Y919D01*
X956Y917D01*
X960Y917D01*
X960Y915D01*
X964Y915D01*
X964Y913D01*
X966Y913D01*
X966Y911D01*
X968Y911D01*
X968Y909D01*
X970Y909D01*
X970Y907D01*
X972Y907D01*
X972Y903D01*
X974Y903D01*
X974Y843D01*
X1556Y843D01*
X1556Y841D01*
X1564Y841D01*
X1564Y839D01*
X1570Y839D01*
X1570Y837D01*
X1574Y837D01*
X1574Y835D01*
X1576Y835D01*
X1576Y833D01*
X1580Y833D01*
X1580Y831D01*
X1582Y831D01*
X1582Y829D01*
X1584Y829D01*
X1584Y827D01*
X1586Y827D01*
X1586Y825D01*
X1588Y825D01*
X1588Y823D01*
X1608Y823D01*
X1608Y825D01*
X1610Y825D01*
X1610Y827D01*
X1612Y827D01*
X1612Y829D01*
X1614Y829D01*
X1614Y831D01*
X1616Y831D01*
X1616Y833D01*
X1618Y833D01*
X1618Y835D01*
X1620Y835D01*
X1620Y961D01*
X174Y961D01*
G37*
D02*
G36*
X174Y919D02*
X174Y843D01*
X256Y843D01*
X256Y841D01*
X264Y841D01*
X264Y839D01*
X270Y839D01*
X270Y837D01*
X274Y837D01*
X274Y835D01*
X276Y835D01*
X276Y833D01*
X280Y833D01*
X280Y831D01*
X282Y831D01*
X282Y829D01*
X284Y829D01*
X284Y827D01*
X286Y827D01*
X286Y825D01*
X288Y825D01*
X288Y823D01*
X290Y823D01*
X290Y821D01*
X292Y821D01*
X292Y819D01*
X294Y819D01*
X294Y815D01*
X296Y815D01*
X296Y811D01*
X298Y811D01*
X298Y805D01*
X300Y805D01*
X300Y797D01*
X302Y797D01*
X302Y779D01*
X300Y779D01*
X300Y771D01*
X298Y771D01*
X298Y767D01*
X296Y767D01*
X296Y763D01*
X294Y763D01*
X294Y759D01*
X292Y759D01*
X292Y757D01*
X290Y757D01*
X290Y755D01*
X288Y755D01*
X288Y751D01*
X286Y751D01*
X286Y749D01*
X282Y749D01*
X282Y729D01*
X284Y729D01*
X284Y727D01*
X286Y727D01*
X286Y725D01*
X288Y725D01*
X288Y723D01*
X290Y723D01*
X290Y721D01*
X292Y721D01*
X292Y719D01*
X294Y719D01*
X294Y715D01*
X342Y715D01*
X342Y731D01*
X368Y731D01*
X368Y735D01*
X370Y735D01*
X370Y745D01*
X372Y745D01*
X372Y755D01*
X374Y755D01*
X374Y765D01*
X376Y765D01*
X376Y775D01*
X378Y775D01*
X378Y785D01*
X380Y785D01*
X380Y793D01*
X382Y793D01*
X382Y803D01*
X384Y803D01*
X384Y813D01*
X386Y813D01*
X386Y823D01*
X388Y823D01*
X388Y833D01*
X390Y833D01*
X390Y843D01*
X392Y843D01*
X392Y851D01*
X394Y851D01*
X394Y861D01*
X396Y861D01*
X396Y871D01*
X398Y871D01*
X398Y881D01*
X400Y881D01*
X400Y891D01*
X402Y891D01*
X402Y899D01*
X404Y899D01*
X404Y903D01*
X406Y903D01*
X406Y907D01*
X408Y907D01*
X408Y909D01*
X410Y909D01*
X410Y911D01*
X412Y911D01*
X412Y913D01*
X416Y913D01*
X416Y915D01*
X422Y915D01*
X422Y917D01*
X630Y917D01*
X630Y919D01*
X174Y919D01*
G37*
D02*
G36*
X174Y843D02*
X174Y615D01*
X202Y615D01*
X202Y619D01*
X204Y619D01*
X204Y621D01*
X206Y621D01*
X206Y623D01*
X208Y623D01*
X208Y625D01*
X210Y625D01*
X210Y627D01*
X212Y627D01*
X212Y649D01*
X210Y649D01*
X210Y651D01*
X208Y651D01*
X208Y653D01*
X206Y653D01*
X206Y657D01*
X204Y657D01*
X204Y659D01*
X202Y659D01*
X202Y663D01*
X200Y663D01*
X200Y667D01*
X198Y667D01*
X198Y671D01*
X196Y671D01*
X196Y679D01*
X194Y679D01*
X194Y699D01*
X196Y699D01*
X196Y707D01*
X198Y707D01*
X198Y711D01*
X200Y711D01*
X200Y715D01*
X202Y715D01*
X202Y719D01*
X204Y719D01*
X204Y721D01*
X206Y721D01*
X206Y723D01*
X208Y723D01*
X208Y725D01*
X210Y725D01*
X210Y727D01*
X212Y727D01*
X212Y749D01*
X210Y749D01*
X210Y751D01*
X208Y751D01*
X208Y753D01*
X206Y753D01*
X206Y757D01*
X204Y757D01*
X204Y759D01*
X202Y759D01*
X202Y763D01*
X200Y763D01*
X200Y767D01*
X198Y767D01*
X198Y771D01*
X196Y771D01*
X196Y779D01*
X194Y779D01*
X194Y799D01*
X196Y799D01*
X196Y807D01*
X198Y807D01*
X198Y811D01*
X200Y811D01*
X200Y815D01*
X202Y815D01*
X202Y819D01*
X204Y819D01*
X204Y821D01*
X206Y821D01*
X206Y823D01*
X208Y823D01*
X208Y825D01*
X210Y825D01*
X210Y827D01*
X212Y827D01*
X212Y829D01*
X214Y829D01*
X214Y831D01*
X216Y831D01*
X216Y833D01*
X218Y833D01*
X218Y835D01*
X222Y835D01*
X222Y837D01*
X226Y837D01*
X226Y839D01*
X232Y839D01*
X232Y841D01*
X240Y841D01*
X240Y843D01*
X174Y843D01*
G37*
D02*
G36*
X974Y843D02*
X974Y835D01*
X976Y835D01*
X976Y833D01*
X980Y833D01*
X980Y831D01*
X982Y831D01*
X982Y829D01*
X984Y829D01*
X984Y827D01*
X986Y827D01*
X986Y825D01*
X988Y825D01*
X988Y823D01*
X1008Y823D01*
X1008Y825D01*
X1010Y825D01*
X1010Y827D01*
X1012Y827D01*
X1012Y829D01*
X1014Y829D01*
X1014Y831D01*
X1016Y831D01*
X1016Y833D01*
X1018Y833D01*
X1018Y835D01*
X1022Y835D01*
X1022Y837D01*
X1026Y837D01*
X1026Y839D01*
X1032Y839D01*
X1032Y841D01*
X1040Y841D01*
X1040Y843D01*
X974Y843D01*
G37*
D02*
G36*
X1056Y843D02*
X1056Y841D01*
X1064Y841D01*
X1064Y839D01*
X1070Y839D01*
X1070Y837D01*
X1074Y837D01*
X1074Y835D01*
X1076Y835D01*
X1076Y833D01*
X1080Y833D01*
X1080Y831D01*
X1082Y831D01*
X1082Y829D01*
X1084Y829D01*
X1084Y827D01*
X1086Y827D01*
X1086Y825D01*
X1088Y825D01*
X1088Y823D01*
X1108Y823D01*
X1108Y825D01*
X1110Y825D01*
X1110Y827D01*
X1112Y827D01*
X1112Y829D01*
X1114Y829D01*
X1114Y831D01*
X1116Y831D01*
X1116Y833D01*
X1118Y833D01*
X1118Y835D01*
X1122Y835D01*
X1122Y837D01*
X1126Y837D01*
X1126Y839D01*
X1132Y839D01*
X1132Y841D01*
X1140Y841D01*
X1140Y843D01*
X1056Y843D01*
G37*
D02*
G36*
X1156Y843D02*
X1156Y841D01*
X1164Y841D01*
X1164Y839D01*
X1170Y839D01*
X1170Y837D01*
X1174Y837D01*
X1174Y835D01*
X1176Y835D01*
X1176Y833D01*
X1180Y833D01*
X1180Y831D01*
X1182Y831D01*
X1182Y829D01*
X1184Y829D01*
X1184Y827D01*
X1186Y827D01*
X1186Y825D01*
X1188Y825D01*
X1188Y823D01*
X1208Y823D01*
X1208Y825D01*
X1210Y825D01*
X1210Y827D01*
X1212Y827D01*
X1212Y829D01*
X1214Y829D01*
X1214Y831D01*
X1216Y831D01*
X1216Y833D01*
X1218Y833D01*
X1218Y835D01*
X1222Y835D01*
X1222Y837D01*
X1226Y837D01*
X1226Y839D01*
X1232Y839D01*
X1232Y841D01*
X1240Y841D01*
X1240Y843D01*
X1156Y843D01*
G37*
D02*
G36*
X1256Y843D02*
X1256Y841D01*
X1264Y841D01*
X1264Y839D01*
X1270Y839D01*
X1270Y837D01*
X1274Y837D01*
X1274Y835D01*
X1276Y835D01*
X1276Y833D01*
X1280Y833D01*
X1280Y831D01*
X1282Y831D01*
X1282Y829D01*
X1284Y829D01*
X1284Y827D01*
X1286Y827D01*
X1286Y825D01*
X1288Y825D01*
X1288Y823D01*
X1308Y823D01*
X1308Y825D01*
X1310Y825D01*
X1310Y827D01*
X1312Y827D01*
X1312Y829D01*
X1314Y829D01*
X1314Y831D01*
X1316Y831D01*
X1316Y833D01*
X1318Y833D01*
X1318Y835D01*
X1322Y835D01*
X1322Y837D01*
X1326Y837D01*
X1326Y839D01*
X1332Y839D01*
X1332Y841D01*
X1340Y841D01*
X1340Y843D01*
X1256Y843D01*
G37*
D02*
G36*
X1356Y843D02*
X1356Y841D01*
X1364Y841D01*
X1364Y839D01*
X1370Y839D01*
X1370Y837D01*
X1374Y837D01*
X1374Y835D01*
X1376Y835D01*
X1376Y833D01*
X1380Y833D01*
X1380Y831D01*
X1382Y831D01*
X1382Y829D01*
X1384Y829D01*
X1384Y827D01*
X1386Y827D01*
X1386Y825D01*
X1388Y825D01*
X1388Y823D01*
X1408Y823D01*
X1408Y825D01*
X1410Y825D01*
X1410Y827D01*
X1412Y827D01*
X1412Y829D01*
X1414Y829D01*
X1414Y831D01*
X1416Y831D01*
X1416Y833D01*
X1418Y833D01*
X1418Y835D01*
X1422Y835D01*
X1422Y837D01*
X1426Y837D01*
X1426Y839D01*
X1432Y839D01*
X1432Y841D01*
X1440Y841D01*
X1440Y843D01*
X1356Y843D01*
G37*
D02*
G36*
X1456Y843D02*
X1456Y841D01*
X1464Y841D01*
X1464Y839D01*
X1470Y839D01*
X1470Y837D01*
X1474Y837D01*
X1474Y835D01*
X1476Y835D01*
X1476Y833D01*
X1480Y833D01*
X1480Y831D01*
X1482Y831D01*
X1482Y829D01*
X1484Y829D01*
X1484Y827D01*
X1486Y827D01*
X1486Y825D01*
X1488Y825D01*
X1488Y823D01*
X1508Y823D01*
X1508Y825D01*
X1510Y825D01*
X1510Y827D01*
X1512Y827D01*
X1512Y829D01*
X1514Y829D01*
X1514Y831D01*
X1516Y831D01*
X1516Y833D01*
X1518Y833D01*
X1518Y835D01*
X1522Y835D01*
X1522Y837D01*
X1526Y837D01*
X1526Y839D01*
X1532Y839D01*
X1532Y841D01*
X1540Y841D01*
X1540Y843D01*
X1456Y843D01*
G37*
D02*
G36*
X688Y753D02*
X688Y751D01*
X686Y751D01*
X686Y749D01*
X682Y749D01*
X682Y747D01*
X680Y747D01*
X680Y745D01*
X678Y745D01*
X678Y743D01*
X674Y743D01*
X674Y741D01*
X672Y741D01*
X672Y699D01*
X670Y699D01*
X670Y659D01*
X668Y659D01*
X668Y653D01*
X666Y653D01*
X666Y649D01*
X664Y649D01*
X664Y647D01*
X662Y647D01*
X662Y645D01*
X660Y645D01*
X660Y643D01*
X658Y643D01*
X658Y641D01*
X656Y641D01*
X656Y639D01*
X654Y639D01*
X654Y637D01*
X652Y637D01*
X652Y635D01*
X650Y635D01*
X650Y633D01*
X648Y633D01*
X648Y631D01*
X646Y631D01*
X646Y629D01*
X644Y629D01*
X644Y627D01*
X642Y627D01*
X642Y625D01*
X640Y625D01*
X640Y623D01*
X638Y623D01*
X638Y621D01*
X636Y621D01*
X636Y619D01*
X634Y619D01*
X634Y617D01*
X632Y617D01*
X632Y615D01*
X630Y615D01*
X630Y613D01*
X628Y613D01*
X628Y611D01*
X626Y611D01*
X626Y609D01*
X624Y609D01*
X624Y607D01*
X622Y607D01*
X622Y605D01*
X620Y605D01*
X620Y603D01*
X618Y603D01*
X618Y601D01*
X616Y601D01*
X616Y599D01*
X614Y599D01*
X614Y597D01*
X612Y597D01*
X612Y595D01*
X610Y595D01*
X610Y593D01*
X608Y593D01*
X608Y591D01*
X606Y591D01*
X606Y589D01*
X604Y589D01*
X604Y587D01*
X602Y587D01*
X602Y585D01*
X600Y585D01*
X600Y583D01*
X598Y583D01*
X598Y581D01*
X596Y581D01*
X596Y579D01*
X594Y579D01*
X594Y577D01*
X592Y577D01*
X592Y575D01*
X588Y575D01*
X588Y573D01*
X586Y573D01*
X586Y571D01*
X584Y571D01*
X584Y569D01*
X582Y569D01*
X582Y567D01*
X580Y567D01*
X580Y565D01*
X578Y565D01*
X578Y563D01*
X576Y563D01*
X576Y561D01*
X574Y561D01*
X574Y559D01*
X572Y559D01*
X572Y557D01*
X570Y557D01*
X570Y555D01*
X568Y555D01*
X568Y553D01*
X566Y553D01*
X566Y551D01*
X564Y551D01*
X564Y549D01*
X562Y549D01*
X562Y547D01*
X560Y547D01*
X560Y545D01*
X558Y545D01*
X558Y543D01*
X556Y543D01*
X556Y541D01*
X554Y541D01*
X554Y539D01*
X552Y539D01*
X552Y537D01*
X550Y537D01*
X550Y535D01*
X548Y535D01*
X548Y533D01*
X546Y533D01*
X546Y531D01*
X544Y531D01*
X544Y529D01*
X542Y529D01*
X542Y527D01*
X540Y527D01*
X540Y525D01*
X538Y525D01*
X538Y523D01*
X536Y523D01*
X536Y521D01*
X534Y521D01*
X534Y519D01*
X532Y519D01*
X532Y517D01*
X530Y517D01*
X530Y515D01*
X528Y515D01*
X528Y513D01*
X526Y513D01*
X526Y511D01*
X524Y511D01*
X524Y509D01*
X522Y509D01*
X522Y507D01*
X520Y507D01*
X520Y505D01*
X518Y505D01*
X518Y503D01*
X516Y503D01*
X516Y501D01*
X512Y501D01*
X512Y499D01*
X510Y499D01*
X510Y497D01*
X508Y497D01*
X508Y495D01*
X506Y495D01*
X506Y493D01*
X504Y493D01*
X504Y491D01*
X502Y491D01*
X502Y489D01*
X500Y489D01*
X500Y487D01*
X498Y487D01*
X498Y485D01*
X496Y485D01*
X496Y483D01*
X494Y483D01*
X494Y481D01*
X492Y481D01*
X492Y479D01*
X490Y479D01*
X490Y477D01*
X488Y477D01*
X488Y475D01*
X486Y475D01*
X486Y473D01*
X484Y473D01*
X484Y471D01*
X482Y471D01*
X482Y469D01*
X480Y469D01*
X480Y467D01*
X478Y467D01*
X478Y465D01*
X476Y465D01*
X476Y463D01*
X474Y463D01*
X474Y461D01*
X472Y461D01*
X472Y459D01*
X470Y459D01*
X470Y457D01*
X468Y457D01*
X468Y455D01*
X466Y455D01*
X466Y453D01*
X464Y453D01*
X464Y451D01*
X462Y451D01*
X462Y371D01*
X500Y371D01*
X500Y307D01*
X498Y307D01*
X498Y305D01*
X490Y305D01*
X490Y289D01*
X488Y289D01*
X488Y275D01*
X486Y275D01*
X486Y261D01*
X484Y261D01*
X484Y227D01*
X486Y227D01*
X486Y223D01*
X488Y223D01*
X488Y221D01*
X508Y221D01*
X508Y223D01*
X510Y223D01*
X510Y227D01*
X514Y227D01*
X514Y229D01*
X516Y229D01*
X516Y231D01*
X518Y231D01*
X518Y233D01*
X520Y233D01*
X520Y307D01*
X522Y307D01*
X522Y311D01*
X524Y311D01*
X524Y315D01*
X526Y315D01*
X526Y317D01*
X528Y317D01*
X528Y319D01*
X530Y319D01*
X530Y321D01*
X534Y321D01*
X534Y323D01*
X538Y323D01*
X538Y325D01*
X622Y325D01*
X622Y343D01*
X638Y343D01*
X638Y373D01*
X622Y373D01*
X622Y461D01*
X720Y461D01*
X720Y743D01*
X718Y743D01*
X718Y745D01*
X716Y745D01*
X716Y747D01*
X712Y747D01*
X712Y749D01*
X710Y749D01*
X710Y751D01*
X708Y751D01*
X708Y753D01*
X688Y753D01*
G37*
D02*
G36*
X1674Y1455D02*
X1674Y1435D01*
X1676Y1435D01*
X1676Y1433D01*
X1680Y1433D01*
X1680Y1431D01*
X1682Y1431D01*
X1682Y1429D01*
X1684Y1429D01*
X1684Y1427D01*
X1686Y1427D01*
X1686Y1425D01*
X1688Y1425D01*
X1688Y1423D01*
X1690Y1423D01*
X1690Y1421D01*
X1692Y1421D01*
X1692Y1419D01*
X1694Y1419D01*
X1694Y1415D01*
X1696Y1415D01*
X1696Y1411D01*
X1698Y1411D01*
X1698Y1405D01*
X1700Y1405D01*
X1700Y1397D01*
X1702Y1397D01*
X1702Y1379D01*
X1700Y1379D01*
X1700Y1371D01*
X1698Y1371D01*
X1698Y1367D01*
X1696Y1367D01*
X1696Y1363D01*
X1694Y1363D01*
X1694Y1359D01*
X1692Y1359D01*
X1692Y1357D01*
X1690Y1357D01*
X1690Y1355D01*
X1688Y1355D01*
X1688Y1351D01*
X1686Y1351D01*
X1686Y1349D01*
X1682Y1349D01*
X1682Y1347D01*
X1680Y1347D01*
X1680Y1345D01*
X1678Y1345D01*
X1678Y1343D01*
X1674Y1343D01*
X1674Y1341D01*
X1670Y1341D01*
X1670Y1339D01*
X1666Y1339D01*
X1666Y1337D01*
X1660Y1337D01*
X1660Y1335D01*
X2090Y1335D01*
X2090Y1455D01*
X1674Y1455D01*
G37*
D02*
G36*
X1488Y1353D02*
X1488Y1351D01*
X1486Y1351D01*
X1486Y1349D01*
X1482Y1349D01*
X1482Y1347D01*
X1480Y1347D01*
X1480Y1345D01*
X1478Y1345D01*
X1478Y1343D01*
X1474Y1343D01*
X1474Y1335D01*
X1536Y1335D01*
X1536Y1337D01*
X1530Y1337D01*
X1530Y1339D01*
X1526Y1339D01*
X1526Y1341D01*
X1522Y1341D01*
X1522Y1343D01*
X1518Y1343D01*
X1518Y1345D01*
X1516Y1345D01*
X1516Y1347D01*
X1512Y1347D01*
X1512Y1349D01*
X1510Y1349D01*
X1510Y1351D01*
X1508Y1351D01*
X1508Y1353D01*
X1488Y1353D01*
G37*
D02*
G36*
X1588Y1353D02*
X1588Y1351D01*
X1586Y1351D01*
X1586Y1349D01*
X1582Y1349D01*
X1582Y1347D01*
X1580Y1347D01*
X1580Y1345D01*
X1578Y1345D01*
X1578Y1343D01*
X1574Y1343D01*
X1574Y1341D01*
X1570Y1341D01*
X1570Y1339D01*
X1566Y1339D01*
X1566Y1337D01*
X1560Y1337D01*
X1560Y1335D01*
X1636Y1335D01*
X1636Y1337D01*
X1630Y1337D01*
X1630Y1339D01*
X1626Y1339D01*
X1626Y1341D01*
X1622Y1341D01*
X1622Y1343D01*
X1618Y1343D01*
X1618Y1345D01*
X1616Y1345D01*
X1616Y1347D01*
X1612Y1347D01*
X1612Y1349D01*
X1610Y1349D01*
X1610Y1351D01*
X1608Y1351D01*
X1608Y1353D01*
X1588Y1353D01*
G37*
D02*
G36*
X1474Y1335D02*
X1474Y1333D01*
X2090Y1333D01*
X2090Y1335D01*
X1474Y1335D01*
G37*
D02*
G36*
X1474Y1335D02*
X1474Y1333D01*
X2090Y1333D01*
X2090Y1335D01*
X1474Y1335D01*
G37*
D02*
G36*
X1474Y1335D02*
X1474Y1333D01*
X2090Y1333D01*
X2090Y1335D01*
X1474Y1335D01*
G37*
D02*
G36*
X1474Y1333D02*
X1474Y1143D01*
X1656Y1143D01*
X1656Y1141D01*
X1664Y1141D01*
X1664Y1139D01*
X1670Y1139D01*
X1670Y1137D01*
X1674Y1137D01*
X1674Y1135D01*
X1676Y1135D01*
X1676Y1133D01*
X1680Y1133D01*
X1680Y1131D01*
X1792Y1131D01*
X1792Y1115D01*
X1858Y1115D01*
X1858Y1113D01*
X1862Y1113D01*
X1862Y1111D01*
X1864Y1111D01*
X1864Y1109D01*
X1866Y1109D01*
X1866Y1107D01*
X1868Y1107D01*
X1868Y1105D01*
X1870Y1105D01*
X1870Y1103D01*
X1872Y1103D01*
X1872Y1099D01*
X1874Y1099D01*
X1874Y1093D01*
X1876Y1093D01*
X1876Y1087D01*
X1878Y1087D01*
X1878Y1081D01*
X1880Y1081D01*
X1880Y1075D01*
X1882Y1075D01*
X1882Y1069D01*
X1884Y1069D01*
X1884Y1063D01*
X1886Y1063D01*
X1886Y1057D01*
X1888Y1057D01*
X1888Y1051D01*
X1890Y1051D01*
X1890Y1045D01*
X1892Y1045D01*
X1892Y1039D01*
X1894Y1039D01*
X1894Y1033D01*
X1896Y1033D01*
X1896Y1027D01*
X1898Y1027D01*
X1898Y1021D01*
X1900Y1021D01*
X1900Y1015D01*
X1902Y1015D01*
X1902Y1009D01*
X1904Y1009D01*
X1904Y1003D01*
X1906Y1003D01*
X1906Y997D01*
X1908Y997D01*
X1908Y991D01*
X1910Y991D01*
X1910Y985D01*
X1912Y985D01*
X1912Y979D01*
X1914Y979D01*
X1914Y973D01*
X1916Y973D01*
X1916Y967D01*
X1918Y967D01*
X1918Y961D01*
X1920Y961D01*
X1920Y955D01*
X1922Y955D01*
X1922Y949D01*
X1924Y949D01*
X1924Y943D01*
X1926Y943D01*
X1926Y937D01*
X1928Y937D01*
X1928Y931D01*
X1930Y931D01*
X1930Y925D01*
X1932Y925D01*
X1932Y919D01*
X1934Y919D01*
X1934Y913D01*
X1936Y913D01*
X1936Y907D01*
X1938Y907D01*
X1938Y901D01*
X1940Y901D01*
X1940Y895D01*
X1942Y895D01*
X1942Y889D01*
X1944Y889D01*
X1944Y883D01*
X1946Y883D01*
X1946Y877D01*
X1948Y877D01*
X1948Y871D01*
X1950Y871D01*
X1950Y865D01*
X1952Y865D01*
X1952Y859D01*
X1954Y859D01*
X1954Y853D01*
X1956Y853D01*
X1956Y847D01*
X1958Y847D01*
X1958Y841D01*
X1960Y841D01*
X1960Y835D01*
X2014Y835D01*
X2014Y743D01*
X2090Y743D01*
X2090Y1333D01*
X1474Y1333D01*
G37*
D02*
G36*
X1474Y1143D02*
X1474Y1135D01*
X1476Y1135D01*
X1476Y1133D01*
X1480Y1133D01*
X1480Y1131D01*
X1482Y1131D01*
X1482Y1129D01*
X1484Y1129D01*
X1484Y1127D01*
X1486Y1127D01*
X1486Y1125D01*
X1488Y1125D01*
X1488Y1123D01*
X1508Y1123D01*
X1508Y1125D01*
X1510Y1125D01*
X1510Y1127D01*
X1512Y1127D01*
X1512Y1129D01*
X1514Y1129D01*
X1514Y1131D01*
X1516Y1131D01*
X1516Y1133D01*
X1518Y1133D01*
X1518Y1135D01*
X1522Y1135D01*
X1522Y1137D01*
X1526Y1137D01*
X1526Y1139D01*
X1532Y1139D01*
X1532Y1141D01*
X1540Y1141D01*
X1540Y1143D01*
X1474Y1143D01*
G37*
D02*
G36*
X1556Y1143D02*
X1556Y1141D01*
X1564Y1141D01*
X1564Y1139D01*
X1570Y1139D01*
X1570Y1137D01*
X1574Y1137D01*
X1574Y1135D01*
X1576Y1135D01*
X1576Y1133D01*
X1580Y1133D01*
X1580Y1131D01*
X1582Y1131D01*
X1582Y1129D01*
X1584Y1129D01*
X1584Y1127D01*
X1586Y1127D01*
X1586Y1125D01*
X1588Y1125D01*
X1588Y1123D01*
X1608Y1123D01*
X1608Y1125D01*
X1610Y1125D01*
X1610Y1127D01*
X1612Y1127D01*
X1612Y1129D01*
X1614Y1129D01*
X1614Y1131D01*
X1616Y1131D01*
X1616Y1133D01*
X1618Y1133D01*
X1618Y1135D01*
X1622Y1135D01*
X1622Y1137D01*
X1626Y1137D01*
X1626Y1139D01*
X1632Y1139D01*
X1632Y1141D01*
X1640Y1141D01*
X1640Y1143D01*
X1556Y1143D01*
G37*
D02*
G36*
X1682Y1131D02*
X1682Y1129D01*
X1684Y1129D01*
X1684Y1127D01*
X1704Y1127D01*
X1704Y1131D01*
X1682Y1131D01*
G37*
D02*
G36*
X1792Y1061D02*
X1792Y965D01*
X1860Y965D01*
X1860Y971D01*
X1858Y971D01*
X1858Y977D01*
X1856Y977D01*
X1856Y983D01*
X1854Y983D01*
X1854Y989D01*
X1852Y989D01*
X1852Y995D01*
X1850Y995D01*
X1850Y1001D01*
X1848Y1001D01*
X1848Y1007D01*
X1846Y1007D01*
X1846Y1013D01*
X1844Y1013D01*
X1844Y1019D01*
X1842Y1019D01*
X1842Y1025D01*
X1840Y1025D01*
X1840Y1031D01*
X1838Y1031D01*
X1838Y1037D01*
X1836Y1037D01*
X1836Y1043D01*
X1834Y1043D01*
X1834Y1049D01*
X1832Y1049D01*
X1832Y1055D01*
X1830Y1055D01*
X1830Y1061D01*
X1792Y1061D01*
G37*
D02*
G36*
X1684Y969D02*
X1684Y967D01*
X1674Y967D01*
X1674Y965D01*
X1704Y965D01*
X1704Y969D01*
X1684Y969D01*
G37*
D02*
G36*
X1674Y965D02*
X1674Y963D01*
X1862Y963D01*
X1862Y965D01*
X1674Y965D01*
G37*
D02*
G36*
X1674Y965D02*
X1674Y963D01*
X1862Y963D01*
X1862Y965D01*
X1674Y965D01*
G37*
D02*
G36*
X1674Y963D02*
X1674Y835D01*
X1676Y835D01*
X1676Y833D01*
X1680Y833D01*
X1680Y831D01*
X1682Y831D01*
X1682Y829D01*
X1684Y829D01*
X1684Y827D01*
X1686Y827D01*
X1686Y825D01*
X1688Y825D01*
X1688Y823D01*
X1690Y823D01*
X1690Y821D01*
X1692Y821D01*
X1692Y819D01*
X1694Y819D01*
X1694Y815D01*
X1696Y815D01*
X1696Y811D01*
X1698Y811D01*
X1698Y805D01*
X1700Y805D01*
X1700Y797D01*
X1702Y797D01*
X1702Y779D01*
X1700Y779D01*
X1700Y771D01*
X1698Y771D01*
X1698Y767D01*
X1696Y767D01*
X1696Y763D01*
X1694Y763D01*
X1694Y759D01*
X1692Y759D01*
X1692Y757D01*
X1690Y757D01*
X1690Y755D01*
X1688Y755D01*
X1688Y751D01*
X1686Y751D01*
X1686Y749D01*
X1682Y749D01*
X1682Y747D01*
X1680Y747D01*
X1680Y745D01*
X1678Y745D01*
X1678Y743D01*
X1740Y743D01*
X1740Y835D01*
X1898Y835D01*
X1898Y857D01*
X1896Y857D01*
X1896Y863D01*
X1894Y863D01*
X1894Y869D01*
X1892Y869D01*
X1892Y875D01*
X1890Y875D01*
X1890Y881D01*
X1888Y881D01*
X1888Y887D01*
X1886Y887D01*
X1886Y893D01*
X1884Y893D01*
X1884Y899D01*
X1882Y899D01*
X1882Y905D01*
X1880Y905D01*
X1880Y911D01*
X1878Y911D01*
X1878Y917D01*
X1876Y917D01*
X1876Y923D01*
X1874Y923D01*
X1874Y929D01*
X1872Y929D01*
X1872Y935D01*
X1870Y935D01*
X1870Y941D01*
X1868Y941D01*
X1868Y947D01*
X1866Y947D01*
X1866Y953D01*
X1864Y953D01*
X1864Y959D01*
X1862Y959D01*
X1862Y963D01*
X1674Y963D01*
G37*
D02*
G36*
X788Y753D02*
X788Y751D01*
X786Y751D01*
X786Y749D01*
X782Y749D01*
X782Y747D01*
X780Y747D01*
X780Y745D01*
X778Y745D01*
X778Y743D01*
X774Y743D01*
X774Y735D01*
X836Y735D01*
X836Y737D01*
X830Y737D01*
X830Y739D01*
X826Y739D01*
X826Y741D01*
X822Y741D01*
X822Y743D01*
X818Y743D01*
X818Y745D01*
X816Y745D01*
X816Y747D01*
X812Y747D01*
X812Y749D01*
X810Y749D01*
X810Y751D01*
X808Y751D01*
X808Y753D01*
X788Y753D01*
G37*
D02*
G36*
X888Y753D02*
X888Y751D01*
X886Y751D01*
X886Y749D01*
X882Y749D01*
X882Y747D01*
X880Y747D01*
X880Y745D01*
X878Y745D01*
X878Y743D01*
X874Y743D01*
X874Y741D01*
X870Y741D01*
X870Y739D01*
X866Y739D01*
X866Y737D01*
X860Y737D01*
X860Y735D01*
X936Y735D01*
X936Y737D01*
X930Y737D01*
X930Y739D01*
X926Y739D01*
X926Y741D01*
X922Y741D01*
X922Y743D01*
X918Y743D01*
X918Y745D01*
X916Y745D01*
X916Y747D01*
X912Y747D01*
X912Y749D01*
X910Y749D01*
X910Y751D01*
X908Y751D01*
X908Y753D01*
X888Y753D01*
G37*
D02*
G36*
X988Y753D02*
X988Y751D01*
X986Y751D01*
X986Y749D01*
X982Y749D01*
X982Y747D01*
X980Y747D01*
X980Y745D01*
X978Y745D01*
X978Y743D01*
X974Y743D01*
X974Y741D01*
X970Y741D01*
X970Y739D01*
X966Y739D01*
X966Y737D01*
X960Y737D01*
X960Y735D01*
X1036Y735D01*
X1036Y737D01*
X1030Y737D01*
X1030Y739D01*
X1026Y739D01*
X1026Y741D01*
X1022Y741D01*
X1022Y743D01*
X1018Y743D01*
X1018Y745D01*
X1016Y745D01*
X1016Y747D01*
X1012Y747D01*
X1012Y749D01*
X1010Y749D01*
X1010Y751D01*
X1008Y751D01*
X1008Y753D01*
X988Y753D01*
G37*
D02*
G36*
X1088Y753D02*
X1088Y751D01*
X1086Y751D01*
X1086Y749D01*
X1082Y749D01*
X1082Y747D01*
X1080Y747D01*
X1080Y745D01*
X1078Y745D01*
X1078Y743D01*
X1074Y743D01*
X1074Y741D01*
X1070Y741D01*
X1070Y739D01*
X1066Y739D01*
X1066Y737D01*
X1060Y737D01*
X1060Y735D01*
X1136Y735D01*
X1136Y737D01*
X1130Y737D01*
X1130Y739D01*
X1126Y739D01*
X1126Y741D01*
X1122Y741D01*
X1122Y743D01*
X1118Y743D01*
X1118Y745D01*
X1116Y745D01*
X1116Y747D01*
X1112Y747D01*
X1112Y749D01*
X1110Y749D01*
X1110Y751D01*
X1108Y751D01*
X1108Y753D01*
X1088Y753D01*
G37*
D02*
G36*
X1188Y753D02*
X1188Y751D01*
X1186Y751D01*
X1186Y749D01*
X1182Y749D01*
X1182Y747D01*
X1180Y747D01*
X1180Y745D01*
X1178Y745D01*
X1178Y743D01*
X1174Y743D01*
X1174Y741D01*
X1170Y741D01*
X1170Y739D01*
X1166Y739D01*
X1166Y737D01*
X1160Y737D01*
X1160Y735D01*
X1236Y735D01*
X1236Y737D01*
X1230Y737D01*
X1230Y739D01*
X1226Y739D01*
X1226Y741D01*
X1222Y741D01*
X1222Y743D01*
X1218Y743D01*
X1218Y745D01*
X1216Y745D01*
X1216Y747D01*
X1212Y747D01*
X1212Y749D01*
X1210Y749D01*
X1210Y751D01*
X1208Y751D01*
X1208Y753D01*
X1188Y753D01*
G37*
D02*
G36*
X1288Y753D02*
X1288Y751D01*
X1286Y751D01*
X1286Y749D01*
X1282Y749D01*
X1282Y747D01*
X1280Y747D01*
X1280Y745D01*
X1278Y745D01*
X1278Y743D01*
X1274Y743D01*
X1274Y741D01*
X1270Y741D01*
X1270Y739D01*
X1266Y739D01*
X1266Y737D01*
X1260Y737D01*
X1260Y735D01*
X1336Y735D01*
X1336Y737D01*
X1330Y737D01*
X1330Y739D01*
X1326Y739D01*
X1326Y741D01*
X1322Y741D01*
X1322Y743D01*
X1318Y743D01*
X1318Y745D01*
X1316Y745D01*
X1316Y747D01*
X1312Y747D01*
X1312Y749D01*
X1310Y749D01*
X1310Y751D01*
X1308Y751D01*
X1308Y753D01*
X1288Y753D01*
G37*
D02*
G36*
X1388Y753D02*
X1388Y751D01*
X1386Y751D01*
X1386Y749D01*
X1382Y749D01*
X1382Y747D01*
X1380Y747D01*
X1380Y745D01*
X1378Y745D01*
X1378Y743D01*
X1374Y743D01*
X1374Y741D01*
X1370Y741D01*
X1370Y739D01*
X1366Y739D01*
X1366Y737D01*
X1360Y737D01*
X1360Y735D01*
X1436Y735D01*
X1436Y737D01*
X1430Y737D01*
X1430Y739D01*
X1426Y739D01*
X1426Y741D01*
X1422Y741D01*
X1422Y743D01*
X1418Y743D01*
X1418Y745D01*
X1416Y745D01*
X1416Y747D01*
X1412Y747D01*
X1412Y749D01*
X1410Y749D01*
X1410Y751D01*
X1408Y751D01*
X1408Y753D01*
X1388Y753D01*
G37*
D02*
G36*
X1488Y753D02*
X1488Y751D01*
X1486Y751D01*
X1486Y749D01*
X1482Y749D01*
X1482Y747D01*
X1480Y747D01*
X1480Y745D01*
X1478Y745D01*
X1478Y743D01*
X1474Y743D01*
X1474Y741D01*
X1470Y741D01*
X1470Y739D01*
X1466Y739D01*
X1466Y737D01*
X1460Y737D01*
X1460Y735D01*
X1536Y735D01*
X1536Y737D01*
X1530Y737D01*
X1530Y739D01*
X1526Y739D01*
X1526Y741D01*
X1522Y741D01*
X1522Y743D01*
X1518Y743D01*
X1518Y745D01*
X1516Y745D01*
X1516Y747D01*
X1512Y747D01*
X1512Y749D01*
X1510Y749D01*
X1510Y751D01*
X1508Y751D01*
X1508Y753D01*
X1488Y753D01*
G37*
D02*
G36*
X1588Y753D02*
X1588Y751D01*
X1586Y751D01*
X1586Y749D01*
X1582Y749D01*
X1582Y747D01*
X1580Y747D01*
X1580Y745D01*
X1578Y745D01*
X1578Y743D01*
X1574Y743D01*
X1574Y741D01*
X1570Y741D01*
X1570Y739D01*
X1566Y739D01*
X1566Y737D01*
X1560Y737D01*
X1560Y735D01*
X1636Y735D01*
X1636Y737D01*
X1630Y737D01*
X1630Y739D01*
X1626Y739D01*
X1626Y741D01*
X1622Y741D01*
X1622Y743D01*
X1618Y743D01*
X1618Y745D01*
X1616Y745D01*
X1616Y747D01*
X1612Y747D01*
X1612Y749D01*
X1610Y749D01*
X1610Y751D01*
X1608Y751D01*
X1608Y753D01*
X1588Y753D01*
G37*
D02*
G36*
X1674Y743D02*
X1674Y741D01*
X2090Y741D01*
X2090Y743D01*
X1674Y743D01*
G37*
D02*
G36*
X1674Y743D02*
X1674Y741D01*
X2090Y741D01*
X2090Y743D01*
X1674Y743D01*
G37*
D02*
G36*
X1670Y741D02*
X1670Y739D01*
X1666Y739D01*
X1666Y737D01*
X1660Y737D01*
X1660Y735D01*
X2090Y735D01*
X2090Y741D01*
X1670Y741D01*
G37*
D02*
G36*
X774Y735D02*
X774Y733D01*
X2090Y733D01*
X2090Y735D01*
X774Y735D01*
G37*
D02*
G36*
X774Y735D02*
X774Y733D01*
X2090Y733D01*
X2090Y735D01*
X774Y735D01*
G37*
D02*
G36*
X774Y735D02*
X774Y733D01*
X2090Y733D01*
X2090Y735D01*
X774Y735D01*
G37*
D02*
G36*
X774Y735D02*
X774Y733D01*
X2090Y733D01*
X2090Y735D01*
X774Y735D01*
G37*
D02*
G36*
X774Y735D02*
X774Y733D01*
X2090Y733D01*
X2090Y735D01*
X774Y735D01*
G37*
D02*
G36*
X774Y735D02*
X774Y733D01*
X2090Y733D01*
X2090Y735D01*
X774Y735D01*
G37*
D02*
G36*
X774Y735D02*
X774Y733D01*
X2090Y733D01*
X2090Y735D01*
X774Y735D01*
G37*
D02*
G36*
X774Y735D02*
X774Y733D01*
X2090Y733D01*
X2090Y735D01*
X774Y735D01*
G37*
D02*
G36*
X774Y735D02*
X774Y733D01*
X2090Y733D01*
X2090Y735D01*
X774Y735D01*
G37*
D02*
G36*
X774Y735D02*
X774Y733D01*
X2090Y733D01*
X2090Y735D01*
X774Y735D01*
G37*
D02*
G36*
X774Y733D02*
X774Y615D01*
X1258Y615D01*
X1258Y613D01*
X1262Y613D01*
X1262Y611D01*
X1264Y611D01*
X1264Y609D01*
X1266Y609D01*
X1266Y607D01*
X1270Y607D01*
X1270Y605D01*
X1272Y605D01*
X1272Y603D01*
X1274Y603D01*
X1274Y601D01*
X1276Y601D01*
X1276Y599D01*
X1278Y599D01*
X1278Y597D01*
X1282Y597D01*
X1282Y595D01*
X1284Y595D01*
X1284Y593D01*
X1286Y593D01*
X1286Y591D01*
X1288Y591D01*
X1288Y589D01*
X1290Y589D01*
X1290Y587D01*
X1292Y587D01*
X1292Y585D01*
X1296Y585D01*
X1296Y583D01*
X1298Y583D01*
X1298Y581D01*
X1300Y581D01*
X1300Y579D01*
X1302Y579D01*
X1302Y577D01*
X1304Y577D01*
X1304Y575D01*
X1306Y575D01*
X1306Y573D01*
X1310Y573D01*
X1310Y571D01*
X1312Y571D01*
X1312Y569D01*
X1314Y569D01*
X1314Y567D01*
X1960Y567D01*
X1960Y565D01*
X1968Y565D01*
X1968Y563D01*
X1972Y563D01*
X1972Y561D01*
X1976Y561D01*
X1976Y559D01*
X1978Y559D01*
X1978Y557D01*
X1982Y557D01*
X1982Y555D01*
X1984Y555D01*
X1984Y553D01*
X1986Y553D01*
X1986Y551D01*
X1988Y551D01*
X1988Y549D01*
X1990Y549D01*
X1990Y545D01*
X1992Y545D01*
X1992Y543D01*
X1994Y543D01*
X1994Y539D01*
X1996Y539D01*
X1996Y535D01*
X1998Y535D01*
X1998Y531D01*
X2000Y531D01*
X2000Y523D01*
X2002Y523D01*
X2002Y509D01*
X2004Y509D01*
X2004Y507D01*
X2006Y507D01*
X2006Y505D01*
X2008Y505D01*
X2008Y503D01*
X2012Y503D01*
X2012Y501D01*
X2014Y501D01*
X2014Y499D01*
X2018Y499D01*
X2018Y497D01*
X2020Y497D01*
X2020Y495D01*
X2024Y495D01*
X2024Y493D01*
X2026Y493D01*
X2026Y491D01*
X2028Y491D01*
X2028Y489D01*
X2032Y489D01*
X2032Y487D01*
X2034Y487D01*
X2034Y485D01*
X2038Y485D01*
X2038Y483D01*
X2040Y483D01*
X2040Y481D01*
X2044Y481D01*
X2044Y479D01*
X2046Y479D01*
X2046Y477D01*
X2048Y477D01*
X2048Y475D01*
X2052Y475D01*
X2052Y473D01*
X2054Y473D01*
X2054Y471D01*
X2058Y471D01*
X2058Y469D01*
X2060Y469D01*
X2060Y467D01*
X2062Y467D01*
X2062Y465D01*
X2066Y465D01*
X2066Y461D01*
X2068Y461D01*
X2068Y459D01*
X2070Y459D01*
X2070Y453D01*
X2090Y453D01*
X2090Y733D01*
X774Y733D01*
G37*
D02*
G36*
X774Y615D02*
X774Y549D01*
X974Y549D01*
X974Y547D01*
X980Y547D01*
X980Y545D01*
X986Y545D01*
X986Y543D01*
X988Y543D01*
X988Y541D01*
X992Y541D01*
X992Y539D01*
X994Y539D01*
X994Y537D01*
X1014Y537D01*
X1014Y539D01*
X1016Y539D01*
X1016Y541D01*
X1018Y541D01*
X1018Y553D01*
X1020Y553D01*
X1020Y591D01*
X1022Y591D01*
X1022Y599D01*
X1024Y599D01*
X1024Y603D01*
X1026Y603D01*
X1026Y605D01*
X1028Y605D01*
X1028Y607D01*
X1030Y607D01*
X1030Y609D01*
X1032Y609D01*
X1032Y611D01*
X1034Y611D01*
X1034Y613D01*
X1038Y613D01*
X1038Y615D01*
X774Y615D01*
G37*
D02*
G36*
X1316Y567D02*
X1316Y565D01*
X1318Y565D01*
X1318Y563D01*
X1322Y563D01*
X1322Y561D01*
X1778Y561D01*
X1778Y543D01*
X1804Y543D01*
X1804Y547D01*
X1806Y547D01*
X1806Y549D01*
X1808Y549D01*
X1808Y551D01*
X1810Y551D01*
X1810Y553D01*
X1812Y553D01*
X1812Y555D01*
X1814Y555D01*
X1814Y557D01*
X1818Y557D01*
X1818Y559D01*
X1820Y559D01*
X1820Y561D01*
X1824Y561D01*
X1824Y563D01*
X1828Y563D01*
X1828Y565D01*
X1836Y565D01*
X1836Y567D01*
X1316Y567D01*
G37*
D02*
G36*
X1860Y567D02*
X1860Y565D01*
X1868Y565D01*
X1868Y563D01*
X1872Y563D01*
X1872Y561D01*
X1876Y561D01*
X1876Y559D01*
X1878Y559D01*
X1878Y557D01*
X1882Y557D01*
X1882Y555D01*
X1884Y555D01*
X1884Y553D01*
X1886Y553D01*
X1886Y551D01*
X1888Y551D01*
X1888Y549D01*
X1908Y549D01*
X1908Y551D01*
X1910Y551D01*
X1910Y553D01*
X1912Y553D01*
X1912Y555D01*
X1914Y555D01*
X1914Y557D01*
X1918Y557D01*
X1918Y559D01*
X1920Y559D01*
X1920Y561D01*
X1924Y561D01*
X1924Y563D01*
X1928Y563D01*
X1928Y565D01*
X1936Y565D01*
X1936Y567D01*
X1860Y567D01*
G37*
D02*
G36*
X1324Y561D02*
X1324Y559D01*
X1326Y559D01*
X1326Y557D01*
X1328Y557D01*
X1328Y555D01*
X1330Y555D01*
X1330Y553D01*
X1332Y553D01*
X1332Y551D01*
X1336Y551D01*
X1336Y549D01*
X1338Y549D01*
X1338Y547D01*
X1340Y547D01*
X1340Y545D01*
X1342Y545D01*
X1342Y543D01*
X1344Y543D01*
X1344Y541D01*
X1346Y541D01*
X1346Y539D01*
X1350Y539D01*
X1350Y537D01*
X1352Y537D01*
X1352Y535D01*
X1354Y535D01*
X1354Y533D01*
X1356Y533D01*
X1356Y531D01*
X1358Y531D01*
X1358Y529D01*
X1360Y529D01*
X1360Y527D01*
X1364Y527D01*
X1364Y525D01*
X1366Y525D01*
X1366Y523D01*
X1368Y523D01*
X1368Y521D01*
X1370Y521D01*
X1370Y519D01*
X1372Y519D01*
X1372Y517D01*
X1376Y517D01*
X1376Y515D01*
X1378Y515D01*
X1378Y513D01*
X1380Y513D01*
X1380Y511D01*
X1382Y511D01*
X1382Y509D01*
X1384Y509D01*
X1384Y507D01*
X1386Y507D01*
X1386Y505D01*
X1390Y505D01*
X1390Y503D01*
X1392Y503D01*
X1392Y501D01*
X1394Y501D01*
X1394Y499D01*
X1396Y499D01*
X1396Y497D01*
X1398Y497D01*
X1398Y495D01*
X1400Y495D01*
X1400Y493D01*
X1404Y493D01*
X1404Y491D01*
X1406Y491D01*
X1406Y489D01*
X1408Y489D01*
X1408Y487D01*
X1410Y487D01*
X1410Y485D01*
X1412Y485D01*
X1412Y483D01*
X1416Y483D01*
X1416Y481D01*
X1418Y481D01*
X1418Y479D01*
X1420Y479D01*
X1420Y477D01*
X1422Y477D01*
X1422Y475D01*
X1424Y475D01*
X1424Y473D01*
X1426Y473D01*
X1426Y471D01*
X1614Y471D01*
X1614Y473D01*
X1612Y473D01*
X1612Y561D01*
X1324Y561D01*
G37*
D02*
G36*
X774Y549D02*
X774Y461D01*
X788Y461D01*
X788Y411D01*
X832Y411D01*
X832Y415D01*
X834Y415D01*
X834Y423D01*
X836Y423D01*
X836Y429D01*
X838Y429D01*
X838Y437D01*
X840Y437D01*
X840Y443D01*
X842Y443D01*
X842Y451D01*
X844Y451D01*
X844Y457D01*
X846Y457D01*
X846Y477D01*
X844Y477D01*
X844Y481D01*
X842Y481D01*
X842Y487D01*
X840Y487D01*
X840Y495D01*
X838Y495D01*
X838Y509D01*
X840Y509D01*
X840Y517D01*
X842Y517D01*
X842Y521D01*
X844Y521D01*
X844Y525D01*
X846Y525D01*
X846Y529D01*
X848Y529D01*
X848Y531D01*
X850Y531D01*
X850Y533D01*
X852Y533D01*
X852Y535D01*
X854Y535D01*
X854Y537D01*
X856Y537D01*
X856Y539D01*
X858Y539D01*
X858Y541D01*
X862Y541D01*
X862Y543D01*
X866Y543D01*
X866Y545D01*
X870Y545D01*
X870Y547D01*
X876Y547D01*
X876Y549D01*
X774Y549D01*
G37*
D02*
G36*
X894Y549D02*
X894Y547D01*
X902Y547D01*
X902Y545D01*
X906Y545D01*
X906Y543D01*
X910Y543D01*
X910Y541D01*
X914Y541D01*
X914Y539D01*
X938Y539D01*
X938Y541D01*
X940Y541D01*
X940Y543D01*
X944Y543D01*
X944Y545D01*
X948Y545D01*
X948Y547D01*
X956Y547D01*
X956Y549D01*
X894Y549D01*
G37*
D02*
G36*
X1778Y487D02*
X1778Y471D01*
X1814Y471D01*
X1814Y473D01*
X1812Y473D01*
X1812Y475D01*
X1810Y475D01*
X1810Y477D01*
X1808Y477D01*
X1808Y479D01*
X1806Y479D01*
X1806Y481D01*
X1804Y481D01*
X1804Y485D01*
X1802Y485D01*
X1802Y487D01*
X1778Y487D01*
G37*
D02*
G36*
X1888Y479D02*
X1888Y477D01*
X1886Y477D01*
X1886Y475D01*
X1884Y475D01*
X1884Y473D01*
X1882Y473D01*
X1882Y471D01*
X1880Y471D01*
X1880Y469D01*
X1876Y469D01*
X1876Y467D01*
X1872Y467D01*
X1872Y465D01*
X1868Y465D01*
X1868Y463D01*
X1864Y463D01*
X1864Y461D01*
X1852Y461D01*
X1852Y459D01*
X1944Y459D01*
X1944Y461D01*
X1932Y461D01*
X1932Y463D01*
X1926Y463D01*
X1926Y465D01*
X1924Y465D01*
X1924Y467D01*
X1920Y467D01*
X1920Y469D01*
X1916Y469D01*
X1916Y471D01*
X1914Y471D01*
X1914Y473D01*
X1912Y473D01*
X1912Y475D01*
X1910Y475D01*
X1910Y477D01*
X1908Y477D01*
X1908Y479D01*
X1888Y479D01*
G37*
D02*
G36*
X1430Y471D02*
X1430Y469D01*
X1816Y469D01*
X1816Y471D01*
X1430Y471D01*
G37*
D02*
G36*
X1430Y471D02*
X1430Y469D01*
X1816Y469D01*
X1816Y471D01*
X1430Y471D01*
G37*
D02*
G36*
X1432Y469D02*
X1432Y467D01*
X1434Y467D01*
X1434Y465D01*
X1436Y465D01*
X1436Y463D01*
X1438Y463D01*
X1438Y461D01*
X1440Y461D01*
X1440Y459D01*
X1844Y459D01*
X1844Y461D01*
X1832Y461D01*
X1832Y463D01*
X1826Y463D01*
X1826Y465D01*
X1824Y465D01*
X1824Y467D01*
X1820Y467D01*
X1820Y469D01*
X1432Y469D01*
G37*
D02*
G36*
X1952Y461D02*
X1952Y459D01*
X1978Y459D01*
X1978Y461D01*
X1952Y461D01*
G37*
D02*
G36*
X1444Y459D02*
X1444Y457D01*
X1980Y457D01*
X1980Y459D01*
X1444Y459D01*
G37*
D02*
G36*
X1444Y459D02*
X1444Y457D01*
X1980Y457D01*
X1980Y459D01*
X1444Y459D01*
G37*
D02*
G36*
X1444Y459D02*
X1444Y457D01*
X1980Y457D01*
X1980Y459D01*
X1444Y459D01*
G37*
D02*
G36*
X1446Y457D02*
X1446Y455D01*
X1448Y455D01*
X1448Y453D01*
X1450Y453D01*
X1450Y451D01*
X1452Y451D01*
X1452Y449D01*
X1456Y449D01*
X1456Y447D01*
X1458Y447D01*
X1458Y445D01*
X1460Y445D01*
X1460Y443D01*
X1462Y443D01*
X1462Y441D01*
X1464Y441D01*
X1464Y439D01*
X1466Y439D01*
X1466Y437D01*
X1470Y437D01*
X1470Y435D01*
X1472Y435D01*
X1472Y433D01*
X1474Y433D01*
X1474Y431D01*
X1476Y431D01*
X1476Y429D01*
X1478Y429D01*
X1478Y427D01*
X1480Y427D01*
X1480Y425D01*
X1484Y425D01*
X1484Y423D01*
X1486Y423D01*
X1486Y421D01*
X1488Y421D01*
X1488Y419D01*
X1490Y419D01*
X1490Y417D01*
X1960Y417D01*
X1960Y415D01*
X1968Y415D01*
X1968Y413D01*
X1972Y413D01*
X1972Y411D01*
X1976Y411D01*
X1976Y409D01*
X1978Y409D01*
X1978Y407D01*
X1982Y407D01*
X1982Y405D01*
X1984Y405D01*
X1984Y403D01*
X1986Y403D01*
X1986Y401D01*
X1988Y401D01*
X1988Y399D01*
X1990Y399D01*
X1990Y395D01*
X1992Y395D01*
X1992Y393D01*
X1994Y393D01*
X1994Y389D01*
X1996Y389D01*
X1996Y385D01*
X1998Y385D01*
X1998Y381D01*
X2000Y381D01*
X2000Y373D01*
X2020Y373D01*
X2020Y389D01*
X2018Y389D01*
X2018Y433D01*
X2014Y433D01*
X2014Y435D01*
X2012Y435D01*
X2012Y437D01*
X2010Y437D01*
X2010Y439D01*
X2006Y439D01*
X2006Y441D01*
X2004Y441D01*
X2004Y443D01*
X2000Y443D01*
X2000Y445D01*
X1998Y445D01*
X1998Y447D01*
X1994Y447D01*
X1994Y449D01*
X1992Y449D01*
X1992Y451D01*
X1990Y451D01*
X1990Y453D01*
X1986Y453D01*
X1986Y455D01*
X1984Y455D01*
X1984Y457D01*
X1446Y457D01*
G37*
D02*
G36*
X1492Y417D02*
X1492Y415D01*
X1494Y415D01*
X1494Y413D01*
X1498Y413D01*
X1498Y411D01*
X1778Y411D01*
X1778Y393D01*
X1804Y393D01*
X1804Y397D01*
X1806Y397D01*
X1806Y399D01*
X1808Y399D01*
X1808Y401D01*
X1810Y401D01*
X1810Y403D01*
X1812Y403D01*
X1812Y405D01*
X1814Y405D01*
X1814Y407D01*
X1818Y407D01*
X1818Y409D01*
X1820Y409D01*
X1820Y411D01*
X1824Y411D01*
X1824Y413D01*
X1828Y413D01*
X1828Y415D01*
X1836Y415D01*
X1836Y417D01*
X1492Y417D01*
G37*
D02*
G36*
X1860Y417D02*
X1860Y415D01*
X1868Y415D01*
X1868Y413D01*
X1872Y413D01*
X1872Y411D01*
X1876Y411D01*
X1876Y409D01*
X1878Y409D01*
X1878Y407D01*
X1882Y407D01*
X1882Y405D01*
X1884Y405D01*
X1884Y403D01*
X1886Y403D01*
X1886Y401D01*
X1888Y401D01*
X1888Y399D01*
X1908Y399D01*
X1908Y401D01*
X1910Y401D01*
X1910Y403D01*
X1912Y403D01*
X1912Y405D01*
X1914Y405D01*
X1914Y407D01*
X1918Y407D01*
X1918Y409D01*
X1920Y409D01*
X1920Y411D01*
X1924Y411D01*
X1924Y413D01*
X1928Y413D01*
X1928Y415D01*
X1936Y415D01*
X1936Y417D01*
X1860Y417D01*
G37*
D02*
G36*
X1500Y411D02*
X1500Y409D01*
X1502Y409D01*
X1502Y407D01*
X1504Y407D01*
X1504Y405D01*
X1506Y405D01*
X1506Y403D01*
X1510Y403D01*
X1510Y401D01*
X1512Y401D01*
X1512Y399D01*
X1514Y399D01*
X1514Y397D01*
X1516Y397D01*
X1516Y395D01*
X1518Y395D01*
X1518Y393D01*
X1520Y393D01*
X1520Y391D01*
X1524Y391D01*
X1524Y389D01*
X1526Y389D01*
X1526Y387D01*
X1528Y387D01*
X1528Y385D01*
X1530Y385D01*
X1530Y383D01*
X1532Y383D01*
X1532Y381D01*
X1534Y381D01*
X1534Y379D01*
X1538Y379D01*
X1538Y377D01*
X1540Y377D01*
X1540Y375D01*
X1542Y375D01*
X1542Y373D01*
X1544Y373D01*
X1544Y371D01*
X1546Y371D01*
X1546Y369D01*
X1550Y369D01*
X1550Y367D01*
X1552Y367D01*
X1552Y365D01*
X1554Y365D01*
X1554Y363D01*
X1556Y363D01*
X1556Y361D01*
X1558Y361D01*
X1558Y359D01*
X1560Y359D01*
X1560Y357D01*
X1564Y357D01*
X1564Y355D01*
X1566Y355D01*
X1566Y353D01*
X1568Y353D01*
X1568Y351D01*
X1570Y351D01*
X1570Y349D01*
X1572Y349D01*
X1572Y347D01*
X1574Y347D01*
X1574Y345D01*
X1578Y345D01*
X1578Y343D01*
X1580Y343D01*
X1580Y341D01*
X1582Y341D01*
X1582Y339D01*
X1584Y339D01*
X1584Y337D01*
X1586Y337D01*
X1586Y335D01*
X1590Y335D01*
X1590Y333D01*
X1592Y333D01*
X1592Y331D01*
X1612Y331D01*
X1612Y411D01*
X1500Y411D01*
G37*
D02*
G36*
X632Y865D02*
X632Y863D01*
X450Y863D01*
X450Y857D01*
X448Y857D01*
X448Y847D01*
X446Y847D01*
X446Y843D01*
X856Y843D01*
X856Y841D01*
X864Y841D01*
X864Y839D01*
X870Y839D01*
X870Y837D01*
X874Y837D01*
X874Y835D01*
X876Y835D01*
X876Y833D01*
X880Y833D01*
X880Y831D01*
X882Y831D01*
X882Y829D01*
X884Y829D01*
X884Y827D01*
X886Y827D01*
X886Y825D01*
X888Y825D01*
X888Y823D01*
X908Y823D01*
X908Y825D01*
X910Y825D01*
X910Y827D01*
X912Y827D01*
X912Y829D01*
X914Y829D01*
X914Y831D01*
X916Y831D01*
X916Y833D01*
X918Y833D01*
X918Y835D01*
X920Y835D01*
X920Y865D01*
X632Y865D01*
G37*
D02*
G36*
X446Y843D02*
X446Y837D01*
X444Y837D01*
X444Y827D01*
X442Y827D01*
X442Y817D01*
X440Y817D01*
X440Y807D01*
X438Y807D01*
X438Y799D01*
X436Y799D01*
X436Y789D01*
X434Y789D01*
X434Y779D01*
X432Y779D01*
X432Y769D01*
X430Y769D01*
X430Y759D01*
X428Y759D01*
X428Y735D01*
X536Y735D01*
X536Y737D01*
X530Y737D01*
X530Y739D01*
X526Y739D01*
X526Y741D01*
X522Y741D01*
X522Y743D01*
X518Y743D01*
X518Y745D01*
X516Y745D01*
X516Y747D01*
X512Y747D01*
X512Y749D01*
X510Y749D01*
X510Y751D01*
X508Y751D01*
X508Y753D01*
X506Y753D01*
X506Y757D01*
X504Y757D01*
X504Y759D01*
X502Y759D01*
X502Y763D01*
X500Y763D01*
X500Y767D01*
X498Y767D01*
X498Y771D01*
X496Y771D01*
X496Y779D01*
X494Y779D01*
X494Y799D01*
X496Y799D01*
X496Y807D01*
X498Y807D01*
X498Y811D01*
X500Y811D01*
X500Y815D01*
X502Y815D01*
X502Y819D01*
X504Y819D01*
X504Y821D01*
X506Y821D01*
X506Y823D01*
X508Y823D01*
X508Y825D01*
X510Y825D01*
X510Y827D01*
X512Y827D01*
X512Y829D01*
X514Y829D01*
X514Y831D01*
X516Y831D01*
X516Y833D01*
X518Y833D01*
X518Y835D01*
X522Y835D01*
X522Y837D01*
X526Y837D01*
X526Y839D01*
X532Y839D01*
X532Y841D01*
X540Y841D01*
X540Y843D01*
X446Y843D01*
G37*
D02*
G36*
X556Y843D02*
X556Y841D01*
X564Y841D01*
X564Y839D01*
X570Y839D01*
X570Y837D01*
X574Y837D01*
X574Y835D01*
X576Y835D01*
X576Y833D01*
X580Y833D01*
X580Y831D01*
X582Y831D01*
X582Y829D01*
X584Y829D01*
X584Y827D01*
X586Y827D01*
X586Y825D01*
X588Y825D01*
X588Y823D01*
X608Y823D01*
X608Y825D01*
X610Y825D01*
X610Y827D01*
X612Y827D01*
X612Y829D01*
X614Y829D01*
X614Y831D01*
X616Y831D01*
X616Y833D01*
X618Y833D01*
X618Y835D01*
X622Y835D01*
X622Y837D01*
X626Y837D01*
X626Y839D01*
X632Y839D01*
X632Y841D01*
X640Y841D01*
X640Y843D01*
X556Y843D01*
G37*
D02*
G36*
X656Y843D02*
X656Y841D01*
X664Y841D01*
X664Y839D01*
X670Y839D01*
X670Y837D01*
X674Y837D01*
X674Y835D01*
X676Y835D01*
X676Y833D01*
X680Y833D01*
X680Y831D01*
X682Y831D01*
X682Y829D01*
X684Y829D01*
X684Y827D01*
X686Y827D01*
X686Y825D01*
X688Y825D01*
X688Y823D01*
X708Y823D01*
X708Y825D01*
X710Y825D01*
X710Y827D01*
X712Y827D01*
X712Y829D01*
X714Y829D01*
X714Y831D01*
X716Y831D01*
X716Y833D01*
X718Y833D01*
X718Y835D01*
X722Y835D01*
X722Y837D01*
X726Y837D01*
X726Y839D01*
X732Y839D01*
X732Y841D01*
X740Y841D01*
X740Y843D01*
X656Y843D01*
G37*
D02*
G36*
X756Y843D02*
X756Y841D01*
X764Y841D01*
X764Y839D01*
X770Y839D01*
X770Y837D01*
X774Y837D01*
X774Y835D01*
X776Y835D01*
X776Y833D01*
X780Y833D01*
X780Y831D01*
X782Y831D01*
X782Y829D01*
X784Y829D01*
X784Y827D01*
X786Y827D01*
X786Y825D01*
X788Y825D01*
X788Y823D01*
X808Y823D01*
X808Y825D01*
X810Y825D01*
X810Y827D01*
X812Y827D01*
X812Y829D01*
X814Y829D01*
X814Y831D01*
X816Y831D01*
X816Y833D01*
X818Y833D01*
X818Y835D01*
X822Y835D01*
X822Y837D01*
X826Y837D01*
X826Y839D01*
X832Y839D01*
X832Y841D01*
X840Y841D01*
X840Y843D01*
X756Y843D01*
G37*
D02*
G36*
X588Y753D02*
X588Y751D01*
X586Y751D01*
X586Y749D01*
X582Y749D01*
X582Y747D01*
X580Y747D01*
X580Y745D01*
X578Y745D01*
X578Y743D01*
X574Y743D01*
X574Y741D01*
X570Y741D01*
X570Y739D01*
X566Y739D01*
X566Y737D01*
X560Y737D01*
X560Y735D01*
X618Y735D01*
X618Y745D01*
X616Y745D01*
X616Y747D01*
X612Y747D01*
X612Y749D01*
X610Y749D01*
X610Y751D01*
X608Y751D01*
X608Y753D01*
X588Y753D01*
G37*
D02*
G36*
X428Y735D02*
X428Y733D01*
X618Y733D01*
X618Y735D01*
X428Y735D01*
G37*
D02*
G36*
X428Y735D02*
X428Y733D01*
X618Y733D01*
X618Y735D01*
X428Y735D01*
G37*
D02*
G36*
X428Y733D02*
X428Y731D01*
X432Y731D01*
X432Y565D01*
X504Y565D01*
X504Y567D01*
X506Y567D01*
X506Y569D01*
X508Y569D01*
X508Y571D01*
X510Y571D01*
X510Y573D01*
X512Y573D01*
X512Y575D01*
X514Y575D01*
X514Y577D01*
X516Y577D01*
X516Y579D01*
X518Y579D01*
X518Y581D01*
X520Y581D01*
X520Y583D01*
X522Y583D01*
X522Y585D01*
X524Y585D01*
X524Y587D01*
X526Y587D01*
X526Y589D01*
X528Y589D01*
X528Y591D01*
X530Y591D01*
X530Y593D01*
X532Y593D01*
X532Y595D01*
X534Y595D01*
X534Y597D01*
X536Y597D01*
X536Y599D01*
X538Y599D01*
X538Y601D01*
X540Y601D01*
X540Y603D01*
X542Y603D01*
X542Y605D01*
X544Y605D01*
X544Y607D01*
X546Y607D01*
X546Y609D01*
X548Y609D01*
X548Y611D01*
X550Y611D01*
X550Y613D01*
X552Y613D01*
X552Y615D01*
X554Y615D01*
X554Y617D01*
X556Y617D01*
X556Y619D01*
X558Y619D01*
X558Y621D01*
X560Y621D01*
X560Y623D01*
X562Y623D01*
X562Y625D01*
X564Y625D01*
X564Y627D01*
X566Y627D01*
X566Y629D01*
X570Y629D01*
X570Y631D01*
X572Y631D01*
X572Y633D01*
X574Y633D01*
X574Y635D01*
X576Y635D01*
X576Y637D01*
X578Y637D01*
X578Y639D01*
X580Y639D01*
X580Y641D01*
X582Y641D01*
X582Y643D01*
X584Y643D01*
X584Y645D01*
X586Y645D01*
X586Y647D01*
X588Y647D01*
X588Y649D01*
X590Y649D01*
X590Y651D01*
X592Y651D01*
X592Y653D01*
X594Y653D01*
X594Y655D01*
X596Y655D01*
X596Y657D01*
X598Y657D01*
X598Y659D01*
X600Y659D01*
X600Y661D01*
X602Y661D01*
X602Y663D01*
X604Y663D01*
X604Y665D01*
X606Y665D01*
X606Y667D01*
X608Y667D01*
X608Y669D01*
X610Y669D01*
X610Y671D01*
X612Y671D01*
X612Y673D01*
X614Y673D01*
X614Y675D01*
X616Y675D01*
X616Y701D01*
X618Y701D01*
X618Y733D01*
X428Y733D01*
G37*
D02*
G36*
X310Y571D02*
X310Y569D01*
X298Y569D01*
X298Y567D01*
X296Y567D01*
X296Y565D01*
X342Y565D01*
X342Y571D01*
X310Y571D01*
G37*
D02*
G36*
X296Y565D02*
X296Y563D01*
X502Y563D01*
X502Y565D01*
X296Y565D01*
G37*
D02*
G36*
X296Y565D02*
X296Y563D01*
X502Y563D01*
X502Y565D01*
X296Y565D01*
G37*
D02*
G36*
X294Y563D02*
X294Y559D01*
X292Y559D01*
X292Y557D01*
X290Y557D01*
X290Y555D01*
X288Y555D01*
X288Y551D01*
X286Y551D01*
X286Y549D01*
X282Y549D01*
X282Y547D01*
X280Y547D01*
X280Y545D01*
X278Y545D01*
X278Y543D01*
X274Y543D01*
X274Y541D01*
X270Y541D01*
X270Y539D01*
X268Y539D01*
X268Y527D01*
X266Y527D01*
X266Y501D01*
X354Y501D01*
X354Y483D01*
X420Y483D01*
X420Y485D01*
X422Y485D01*
X422Y487D01*
X424Y487D01*
X424Y489D01*
X426Y489D01*
X426Y491D01*
X428Y491D01*
X428Y493D01*
X430Y493D01*
X430Y495D01*
X432Y495D01*
X432Y497D01*
X434Y497D01*
X434Y499D01*
X436Y499D01*
X436Y501D01*
X438Y501D01*
X438Y503D01*
X440Y503D01*
X440Y505D01*
X442Y505D01*
X442Y507D01*
X444Y507D01*
X444Y509D01*
X446Y509D01*
X446Y511D01*
X448Y511D01*
X448Y513D01*
X450Y513D01*
X450Y515D01*
X452Y515D01*
X452Y517D01*
X454Y517D01*
X454Y519D01*
X456Y519D01*
X456Y521D01*
X458Y521D01*
X458Y523D01*
X460Y523D01*
X460Y525D01*
X462Y525D01*
X462Y527D01*
X464Y527D01*
X464Y529D01*
X466Y529D01*
X466Y531D01*
X468Y531D01*
X468Y533D01*
X470Y533D01*
X470Y535D01*
X472Y535D01*
X472Y537D01*
X474Y537D01*
X474Y539D01*
X476Y539D01*
X476Y541D01*
X478Y541D01*
X478Y543D01*
X480Y543D01*
X480Y545D01*
X482Y545D01*
X482Y547D01*
X484Y547D01*
X484Y549D01*
X486Y549D01*
X486Y551D01*
X488Y551D01*
X488Y553D01*
X492Y553D01*
X492Y555D01*
X494Y555D01*
X494Y557D01*
X496Y557D01*
X496Y559D01*
X498Y559D01*
X498Y561D01*
X500Y561D01*
X500Y563D01*
X294Y563D01*
G37*
D02*
G36*
X1146Y561D02*
X1146Y541D01*
X1150Y541D01*
X1150Y539D01*
X1152Y539D01*
X1152Y537D01*
X1154Y537D01*
X1154Y535D01*
X1156Y535D01*
X1156Y533D01*
X1158Y533D01*
X1158Y531D01*
X1160Y531D01*
X1160Y529D01*
X1162Y529D01*
X1162Y525D01*
X1164Y525D01*
X1164Y521D01*
X1166Y521D01*
X1166Y515D01*
X1168Y515D01*
X1168Y507D01*
X1170Y507D01*
X1170Y495D01*
X1168Y495D01*
X1168Y487D01*
X1166Y487D01*
X1166Y481D01*
X1164Y481D01*
X1164Y479D01*
X1162Y479D01*
X1162Y475D01*
X1160Y475D01*
X1160Y473D01*
X1158Y473D01*
X1158Y453D01*
X1160Y453D01*
X1160Y443D01*
X1162Y443D01*
X1162Y433D01*
X1164Y433D01*
X1164Y423D01*
X1166Y423D01*
X1166Y413D01*
X1168Y413D01*
X1168Y411D01*
X1192Y411D01*
X1192Y247D01*
X1182Y247D01*
X1182Y241D01*
X1560Y241D01*
X1560Y239D01*
X1566Y239D01*
X1566Y237D01*
X1570Y237D01*
X1570Y235D01*
X1574Y235D01*
X1574Y233D01*
X1578Y233D01*
X1578Y231D01*
X1580Y231D01*
X1580Y229D01*
X1582Y229D01*
X1582Y227D01*
X1604Y227D01*
X1604Y239D01*
X1602Y239D01*
X1602Y245D01*
X1600Y245D01*
X1600Y251D01*
X1598Y251D01*
X1598Y257D01*
X1596Y257D01*
X1596Y259D01*
X1592Y259D01*
X1592Y261D01*
X1590Y261D01*
X1590Y263D01*
X1588Y263D01*
X1588Y265D01*
X1586Y265D01*
X1586Y267D01*
X1584Y267D01*
X1584Y269D01*
X1580Y269D01*
X1580Y271D01*
X1578Y271D01*
X1578Y273D01*
X1576Y273D01*
X1576Y275D01*
X1574Y275D01*
X1574Y277D01*
X1572Y277D01*
X1572Y279D01*
X1570Y279D01*
X1570Y281D01*
X1566Y281D01*
X1566Y283D01*
X1564Y283D01*
X1564Y285D01*
X1562Y285D01*
X1562Y287D01*
X1560Y287D01*
X1560Y289D01*
X1558Y289D01*
X1558Y291D01*
X1556Y291D01*
X1556Y293D01*
X1552Y293D01*
X1552Y295D01*
X1550Y295D01*
X1550Y297D01*
X1548Y297D01*
X1548Y299D01*
X1546Y299D01*
X1546Y301D01*
X1544Y301D01*
X1544Y303D01*
X1540Y303D01*
X1540Y305D01*
X1538Y305D01*
X1538Y307D01*
X1536Y307D01*
X1536Y309D01*
X1534Y309D01*
X1534Y311D01*
X1532Y311D01*
X1532Y313D01*
X1530Y313D01*
X1530Y315D01*
X1526Y315D01*
X1526Y317D01*
X1524Y317D01*
X1524Y319D01*
X1522Y319D01*
X1522Y321D01*
X1520Y321D01*
X1520Y323D01*
X1518Y323D01*
X1518Y325D01*
X1516Y325D01*
X1516Y327D01*
X1512Y327D01*
X1512Y329D01*
X1510Y329D01*
X1510Y331D01*
X1508Y331D01*
X1508Y333D01*
X1506Y333D01*
X1506Y335D01*
X1504Y335D01*
X1504Y337D01*
X1500Y337D01*
X1500Y339D01*
X1498Y339D01*
X1498Y341D01*
X1496Y341D01*
X1496Y343D01*
X1494Y343D01*
X1494Y345D01*
X1492Y345D01*
X1492Y347D01*
X1490Y347D01*
X1490Y349D01*
X1486Y349D01*
X1486Y351D01*
X1484Y351D01*
X1484Y353D01*
X1482Y353D01*
X1482Y355D01*
X1480Y355D01*
X1480Y357D01*
X1478Y357D01*
X1478Y359D01*
X1476Y359D01*
X1476Y361D01*
X1472Y361D01*
X1472Y363D01*
X1470Y363D01*
X1470Y365D01*
X1468Y365D01*
X1468Y367D01*
X1466Y367D01*
X1466Y369D01*
X1464Y369D01*
X1464Y371D01*
X1462Y371D01*
X1462Y373D01*
X1458Y373D01*
X1458Y375D01*
X1456Y375D01*
X1456Y377D01*
X1454Y377D01*
X1454Y379D01*
X1452Y379D01*
X1452Y381D01*
X1450Y381D01*
X1450Y383D01*
X1446Y383D01*
X1446Y385D01*
X1444Y385D01*
X1444Y387D01*
X1442Y387D01*
X1442Y389D01*
X1440Y389D01*
X1440Y391D01*
X1438Y391D01*
X1438Y393D01*
X1436Y393D01*
X1436Y395D01*
X1432Y395D01*
X1432Y397D01*
X1430Y397D01*
X1430Y399D01*
X1428Y399D01*
X1428Y401D01*
X1426Y401D01*
X1426Y403D01*
X1424Y403D01*
X1424Y405D01*
X1422Y405D01*
X1422Y407D01*
X1418Y407D01*
X1418Y409D01*
X1416Y409D01*
X1416Y411D01*
X1414Y411D01*
X1414Y413D01*
X1412Y413D01*
X1412Y415D01*
X1410Y415D01*
X1410Y417D01*
X1406Y417D01*
X1406Y419D01*
X1404Y419D01*
X1404Y421D01*
X1402Y421D01*
X1402Y423D01*
X1400Y423D01*
X1400Y425D01*
X1398Y425D01*
X1398Y427D01*
X1396Y427D01*
X1396Y429D01*
X1392Y429D01*
X1392Y431D01*
X1390Y431D01*
X1390Y433D01*
X1388Y433D01*
X1388Y435D01*
X1386Y435D01*
X1386Y437D01*
X1384Y437D01*
X1384Y439D01*
X1382Y439D01*
X1382Y441D01*
X1378Y441D01*
X1378Y443D01*
X1376Y443D01*
X1376Y445D01*
X1374Y445D01*
X1374Y447D01*
X1372Y447D01*
X1372Y449D01*
X1370Y449D01*
X1370Y451D01*
X1366Y451D01*
X1366Y453D01*
X1364Y453D01*
X1364Y455D01*
X1362Y455D01*
X1362Y457D01*
X1360Y457D01*
X1360Y459D01*
X1358Y459D01*
X1358Y461D01*
X1356Y461D01*
X1356Y463D01*
X1352Y463D01*
X1352Y465D01*
X1350Y465D01*
X1350Y467D01*
X1348Y467D01*
X1348Y469D01*
X1346Y469D01*
X1346Y471D01*
X1344Y471D01*
X1344Y473D01*
X1342Y473D01*
X1342Y475D01*
X1338Y475D01*
X1338Y477D01*
X1336Y477D01*
X1336Y479D01*
X1334Y479D01*
X1334Y481D01*
X1332Y481D01*
X1332Y483D01*
X1330Y483D01*
X1330Y485D01*
X1328Y485D01*
X1328Y487D01*
X1324Y487D01*
X1324Y489D01*
X1322Y489D01*
X1322Y491D01*
X1320Y491D01*
X1320Y493D01*
X1318Y493D01*
X1318Y495D01*
X1316Y495D01*
X1316Y497D01*
X1312Y497D01*
X1312Y499D01*
X1310Y499D01*
X1310Y501D01*
X1308Y501D01*
X1308Y503D01*
X1306Y503D01*
X1306Y505D01*
X1304Y505D01*
X1304Y507D01*
X1302Y507D01*
X1302Y509D01*
X1298Y509D01*
X1298Y511D01*
X1296Y511D01*
X1296Y513D01*
X1294Y513D01*
X1294Y515D01*
X1292Y515D01*
X1292Y517D01*
X1290Y517D01*
X1290Y519D01*
X1288Y519D01*
X1288Y521D01*
X1284Y521D01*
X1284Y523D01*
X1282Y523D01*
X1282Y525D01*
X1280Y525D01*
X1280Y527D01*
X1278Y527D01*
X1278Y529D01*
X1276Y529D01*
X1276Y531D01*
X1272Y531D01*
X1272Y533D01*
X1270Y533D01*
X1270Y535D01*
X1268Y535D01*
X1268Y537D01*
X1266Y537D01*
X1266Y539D01*
X1264Y539D01*
X1264Y541D01*
X1262Y541D01*
X1262Y543D01*
X1258Y543D01*
X1258Y545D01*
X1256Y545D01*
X1256Y547D01*
X1254Y547D01*
X1254Y549D01*
X1252Y549D01*
X1252Y551D01*
X1250Y551D01*
X1250Y553D01*
X1248Y553D01*
X1248Y555D01*
X1244Y555D01*
X1244Y557D01*
X1242Y557D01*
X1242Y559D01*
X1240Y559D01*
X1240Y561D01*
X1146Y561D01*
G37*
D02*
G36*
X1182Y241D02*
X1182Y227D01*
X1186Y227D01*
X1186Y223D01*
X1188Y223D01*
X1188Y221D01*
X1208Y221D01*
X1208Y223D01*
X1210Y223D01*
X1210Y227D01*
X1214Y227D01*
X1214Y229D01*
X1216Y229D01*
X1216Y231D01*
X1218Y231D01*
X1218Y233D01*
X1222Y233D01*
X1222Y235D01*
X1226Y235D01*
X1226Y237D01*
X1230Y237D01*
X1230Y239D01*
X1236Y239D01*
X1236Y241D01*
X1182Y241D01*
G37*
D02*
G36*
X1260Y241D02*
X1260Y239D01*
X1266Y239D01*
X1266Y237D01*
X1270Y237D01*
X1270Y235D01*
X1274Y235D01*
X1274Y233D01*
X1278Y233D01*
X1278Y231D01*
X1280Y231D01*
X1280Y229D01*
X1282Y229D01*
X1282Y227D01*
X1286Y227D01*
X1286Y223D01*
X1288Y223D01*
X1288Y221D01*
X1308Y221D01*
X1308Y223D01*
X1310Y223D01*
X1310Y227D01*
X1314Y227D01*
X1314Y229D01*
X1316Y229D01*
X1316Y231D01*
X1318Y231D01*
X1318Y233D01*
X1322Y233D01*
X1322Y235D01*
X1326Y235D01*
X1326Y237D01*
X1330Y237D01*
X1330Y239D01*
X1336Y239D01*
X1336Y241D01*
X1260Y241D01*
G37*
D02*
G36*
X1360Y241D02*
X1360Y239D01*
X1366Y239D01*
X1366Y237D01*
X1370Y237D01*
X1370Y235D01*
X1374Y235D01*
X1374Y233D01*
X1378Y233D01*
X1378Y231D01*
X1380Y231D01*
X1380Y229D01*
X1382Y229D01*
X1382Y227D01*
X1386Y227D01*
X1386Y223D01*
X1388Y223D01*
X1388Y221D01*
X1408Y221D01*
X1408Y223D01*
X1410Y223D01*
X1410Y227D01*
X1414Y227D01*
X1414Y229D01*
X1416Y229D01*
X1416Y231D01*
X1418Y231D01*
X1418Y233D01*
X1422Y233D01*
X1422Y235D01*
X1426Y235D01*
X1426Y237D01*
X1430Y237D01*
X1430Y239D01*
X1436Y239D01*
X1436Y241D01*
X1360Y241D01*
G37*
D02*
G36*
X1460Y241D02*
X1460Y239D01*
X1466Y239D01*
X1466Y237D01*
X1470Y237D01*
X1470Y235D01*
X1474Y235D01*
X1474Y233D01*
X1478Y233D01*
X1478Y231D01*
X1480Y231D01*
X1480Y229D01*
X1482Y229D01*
X1482Y227D01*
X1486Y227D01*
X1486Y223D01*
X1488Y223D01*
X1488Y221D01*
X1508Y221D01*
X1508Y223D01*
X1510Y223D01*
X1510Y227D01*
X1514Y227D01*
X1514Y229D01*
X1516Y229D01*
X1516Y231D01*
X1518Y231D01*
X1518Y233D01*
X1522Y233D01*
X1522Y235D01*
X1526Y235D01*
X1526Y237D01*
X1530Y237D01*
X1530Y239D01*
X1536Y239D01*
X1536Y241D01*
X1460Y241D01*
G37*
D02*
G36*
X994Y465D02*
X994Y463D01*
X990Y463D01*
X990Y461D01*
X988Y461D01*
X988Y459D01*
X986Y459D01*
X986Y455D01*
X1030Y455D01*
X1030Y457D01*
X1024Y457D01*
X1024Y459D01*
X1020Y459D01*
X1020Y461D01*
X1018Y461D01*
X1018Y463D01*
X1014Y463D01*
X1014Y465D01*
X994Y465D01*
G37*
D02*
G36*
X1072Y465D02*
X1072Y463D01*
X1070Y463D01*
X1070Y461D01*
X1066Y461D01*
X1066Y459D01*
X1062Y459D01*
X1062Y457D01*
X1056Y457D01*
X1056Y455D01*
X1104Y455D01*
X1104Y459D01*
X1100Y459D01*
X1100Y461D01*
X1096Y461D01*
X1096Y463D01*
X1094Y463D01*
X1094Y465D01*
X1072Y465D01*
G37*
D02*
G36*
X986Y455D02*
X986Y453D01*
X1104Y453D01*
X1104Y455D01*
X986Y455D01*
G37*
D02*
G36*
X986Y455D02*
X986Y453D01*
X1104Y453D01*
X1104Y455D01*
X986Y455D01*
G37*
D02*
G36*
X986Y453D02*
X986Y447D01*
X984Y447D01*
X984Y431D01*
X982Y431D01*
X982Y411D01*
X992Y411D01*
X992Y247D01*
X982Y247D01*
X982Y241D01*
X1060Y241D01*
X1060Y239D01*
X1066Y239D01*
X1066Y237D01*
X1070Y237D01*
X1070Y235D01*
X1074Y235D01*
X1074Y233D01*
X1078Y233D01*
X1078Y231D01*
X1080Y231D01*
X1080Y229D01*
X1082Y229D01*
X1082Y227D01*
X1086Y227D01*
X1086Y223D01*
X1088Y223D01*
X1088Y221D01*
X1108Y221D01*
X1108Y223D01*
X1110Y223D01*
X1110Y227D01*
X1114Y227D01*
X1114Y247D01*
X1104Y247D01*
X1104Y411D01*
X1108Y411D01*
X1108Y437D01*
X1106Y437D01*
X1106Y447D01*
X1104Y447D01*
X1104Y453D01*
X986Y453D01*
G37*
D02*
G36*
X982Y241D02*
X982Y227D01*
X986Y227D01*
X986Y223D01*
X988Y223D01*
X988Y221D01*
X1008Y221D01*
X1008Y223D01*
X1010Y223D01*
X1010Y227D01*
X1014Y227D01*
X1014Y229D01*
X1016Y229D01*
X1016Y231D01*
X1018Y231D01*
X1018Y233D01*
X1022Y233D01*
X1022Y235D01*
X1026Y235D01*
X1026Y237D01*
X1030Y237D01*
X1030Y239D01*
X1036Y239D01*
X1036Y241D01*
X982Y241D01*
G37*
D02*
G36*
X223Y847D02*
X268Y847D01*
X268Y811D01*
X223Y811D01*
X223Y847D01*
G37*
D02*
G36*
X264Y814D02*
X302Y814D01*
X302Y769D01*
X264Y769D01*
X264Y814D01*
G37*
D02*
G36*
X1777Y839D02*
X1834Y839D01*
X1834Y793D01*
X1777Y793D01*
X1777Y839D01*
G37*
D02*
G36*
X1637Y565D02*
X1670Y565D01*
X1670Y521D01*
X1637Y521D01*
X1637Y565D01*
G37*
D02*
G36*
X1608Y537D02*
X1652Y537D01*
X1652Y502D01*
X1608Y502D01*
X1608Y537D01*
G37*
D02*
G36*
X400Y1226D02*
X444Y1226D01*
X444Y1193D01*
X400Y1193D01*
X400Y1226D01*
G37*
D02*
G36*
X446Y1226D02*
X492Y1226D01*
X492Y1193D01*
X446Y1193D01*
X446Y1226D01*
G37*
D02*
G36*
X723Y1147D02*
X768Y1147D01*
X768Y1109D01*
X723Y1109D01*
X723Y1147D01*
G37*
D02*
G36*
X1523Y847D02*
X1568Y847D01*
X1568Y811D01*
X1523Y811D01*
X1523Y847D01*
G37*
D02*
G36*
X1024Y245D02*
X1067Y245D01*
X1067Y213D01*
X1024Y213D01*
X1024Y245D01*
G37*
D02*
G36*
X524Y71D02*
X567Y71D01*
X567Y41D01*
X524Y41D01*
X524Y71D01*
G37*
D02*
G36*
X1324Y71D02*
X1367Y71D01*
X1367Y41D01*
X1324Y41D01*
X1324Y71D01*
G37*
D02*
G36*
X2024Y71D02*
X2067Y71D01*
X2067Y41D01*
X2024Y41D01*
X2024Y71D01*
G37*
D02*
G36*
X2066Y113D02*
X2090Y113D01*
X2090Y70D01*
X2066Y70D01*
X2066Y113D01*
G37*
D02*
G36*
X433Y1083D02*
X458Y1083D01*
X458Y1055D01*
X433Y1055D01*
X433Y1083D01*
G37*
D02*
G36*
X410Y1102D02*
X438Y1102D01*
X438Y1077D01*
X410Y1077D01*
X410Y1102D01*
G37*
D02*
G36*
X452Y1102D02*
X482Y1102D01*
X482Y1077D01*
X452Y1077D01*
X452Y1102D01*
G37*
D02*
G36*
X1523Y1147D02*
X1568Y1147D01*
X1568Y1109D01*
X1523Y1109D01*
X1523Y1147D01*
G37*
D02*
G36*
X1323Y1147D02*
X1368Y1147D01*
X1368Y1109D01*
X1323Y1109D01*
X1323Y1147D01*
G37*
D02*
G36*
X283Y427D02*
X283Y486D01*
X338Y486D01*
X338Y427D01*
X283Y427D01*
G37*
D02*
G36*
X203Y427D02*
X203Y486D01*
X258Y486D01*
X258Y427D01*
X203Y427D01*
G37*
D02*
G36*
X283Y269D02*
X283Y328D01*
X338Y328D01*
X338Y269D01*
X283Y269D01*
G37*
D02*
G36*
X203Y269D02*
X203Y328D01*
X258Y328D01*
X258Y269D01*
X203Y269D01*
G37*
D02*
G36*
X1118Y316D02*
X1177Y316D01*
X1177Y261D01*
X1118Y261D01*
X1118Y316D01*
G37*
D02*
G36*
X1118Y397D02*
X1177Y397D01*
X1177Y342D01*
X1118Y342D01*
X1118Y397D01*
G37*
D02*
G36*
X918Y316D02*
X977Y316D01*
X977Y261D01*
X918Y261D01*
X918Y316D01*
G37*
D02*
G36*
X918Y397D02*
X977Y397D01*
X977Y342D01*
X918Y342D01*
X918Y397D01*
G37*
D02*
G36*
X818Y316D02*
X877Y316D01*
X877Y261D01*
X818Y261D01*
X818Y316D01*
G37*
D02*
G36*
X818Y397D02*
X877Y397D01*
X877Y342D01*
X818Y342D01*
X818Y397D01*
G37*
D02*
G36*
X416Y661D02*
X357Y661D01*
X357Y716D01*
X416Y716D01*
X416Y661D01*
G37*
D02*
G36*
X416Y580D02*
X357Y580D01*
X357Y635D01*
X416Y635D01*
X416Y580D01*
G37*
D02*
G36*
X477Y1261D02*
X418Y1261D01*
X418Y1316D01*
X477Y1316D01*
X477Y1261D01*
G37*
D02*
G36*
X477Y1180D02*
X418Y1180D01*
X418Y1235D01*
X477Y1235D01*
X477Y1180D01*
G37*
D02*
G36*
X1777Y1061D02*
X1718Y1061D01*
X1718Y1116D01*
X1777Y1116D01*
X1777Y1061D01*
G37*
D02*
G36*
X1777Y980D02*
X1718Y980D01*
X1718Y1035D01*
X1777Y1035D01*
X1777Y980D01*
G37*
D02*
G04 End of Copper1*
M02*