G04 MADE WITH FRITZING*
G04 WWW.FRITZING.ORG*
G04 DOUBLE SIDED*
G04 HOLES PLATED*
G04 CONTOUR ON CENTER OF CONTOUR VECTOR*
%ASAXBY*%
%FSLAX23Y23*%
%MOIN*%
%OFA0B0*%
%SFA1.0B1.0*%
%ADD10C,0.075000*%
%ADD11C,0.039370*%
%ADD12C,0.065000*%
%ADD13C,0.078000*%
%ADD14C,0.075361*%
%ADD15C,0.024000*%
%LNCOPPER0*%
G90*
G70*
G54D10*
X118Y1399D03*
G54D11*
X448Y1089D03*
G54D12*
X1122Y501D03*
X1043Y501D03*
X965Y501D03*
X886Y501D03*
G54D13*
X248Y589D03*
X248Y689D03*
X248Y789D03*
G54D14*
X148Y89D03*
X248Y89D03*
X348Y89D03*
X448Y89D03*
X548Y89D03*
X648Y89D03*
X748Y89D03*
X848Y89D03*
X948Y89D03*
X1048Y89D03*
X1148Y89D03*
X1248Y89D03*
X1348Y89D03*
X1448Y89D03*
X1548Y89D03*
X1648Y89D03*
X1748Y89D03*
X1848Y89D03*
X1948Y89D03*
X2048Y89D03*
X2048Y189D03*
X1948Y189D03*
X1848Y189D03*
X1748Y189D03*
X1648Y189D03*
X1548Y189D03*
X1448Y189D03*
X1348Y189D03*
X1248Y189D03*
X1148Y189D03*
X1048Y189D03*
X948Y189D03*
X848Y189D03*
X748Y189D03*
X648Y189D03*
X548Y189D03*
X448Y189D03*
X348Y189D03*
X248Y189D03*
X148Y189D03*
G54D13*
X248Y1189D03*
X248Y1189D03*
X248Y1289D03*
X1648Y1089D03*
X1548Y1089D03*
X1448Y1089D03*
X1348Y1089D03*
X1248Y1089D03*
X1148Y1089D03*
X548Y789D03*
X648Y789D03*
X748Y789D03*
X848Y789D03*
X948Y789D03*
X1048Y789D03*
X1148Y789D03*
X1248Y789D03*
X1348Y789D03*
X1448Y789D03*
X1548Y789D03*
X1648Y789D03*
X548Y1389D03*
X648Y1389D03*
X748Y1389D03*
X848Y1389D03*
X948Y1389D03*
X1048Y1389D03*
X1148Y1389D03*
X1248Y1389D03*
X1348Y1389D03*
X1448Y1389D03*
X1548Y1389D03*
X1648Y1389D03*
X648Y1089D03*
X748Y1089D03*
X848Y1089D03*
X1948Y514D03*
X1848Y514D03*
X1948Y364D03*
X1848Y364D03*
G54D15*
X1548Y889D02*
X1548Y819D01*
D02*
X748Y889D02*
X1548Y889D01*
D02*
X748Y1058D02*
X748Y889D01*
D02*
X748Y889D02*
X748Y1058D01*
D02*
X248Y819D02*
X248Y889D01*
D02*
X248Y889D02*
X748Y889D01*
D02*
X448Y1070D02*
X448Y889D01*
D02*
X448Y889D02*
X748Y889D01*
D02*
X748Y889D02*
X748Y1058D01*
D02*
X1548Y889D02*
X1548Y1058D01*
D02*
X1348Y889D02*
X1548Y889D01*
D02*
X1548Y1058D02*
X1548Y819D01*
D02*
X1348Y1058D02*
X1348Y889D01*
D02*
X1548Y758D02*
X1548Y220D01*
D02*
X148Y589D02*
X148Y220D01*
D02*
X218Y589D02*
X148Y589D01*
G36*
X40Y1455D02*
X40Y1343D01*
X256Y1343D01*
X256Y1341D01*
X264Y1341D01*
X264Y1339D01*
X270Y1339D01*
X270Y1337D01*
X274Y1337D01*
X274Y1335D01*
X536Y1335D01*
X536Y1337D01*
X530Y1337D01*
X530Y1339D01*
X526Y1339D01*
X526Y1341D01*
X522Y1341D01*
X522Y1343D01*
X518Y1343D01*
X518Y1345D01*
X516Y1345D01*
X516Y1347D01*
X512Y1347D01*
X512Y1349D01*
X510Y1349D01*
X510Y1351D01*
X508Y1351D01*
X508Y1353D01*
X506Y1353D01*
X506Y1357D01*
X504Y1357D01*
X504Y1359D01*
X502Y1359D01*
X502Y1363D01*
X500Y1363D01*
X500Y1367D01*
X498Y1367D01*
X498Y1371D01*
X496Y1371D01*
X496Y1379D01*
X494Y1379D01*
X494Y1399D01*
X496Y1399D01*
X496Y1407D01*
X498Y1407D01*
X498Y1411D01*
X500Y1411D01*
X500Y1415D01*
X502Y1415D01*
X502Y1419D01*
X504Y1419D01*
X504Y1421D01*
X506Y1421D01*
X506Y1423D01*
X508Y1423D01*
X508Y1425D01*
X510Y1425D01*
X510Y1427D01*
X512Y1427D01*
X512Y1429D01*
X514Y1429D01*
X514Y1431D01*
X516Y1431D01*
X516Y1433D01*
X518Y1433D01*
X518Y1435D01*
X522Y1435D01*
X522Y1455D01*
X40Y1455D01*
G37*
D02*
G36*
X1674Y1455D02*
X1674Y1435D01*
X1676Y1435D01*
X1676Y1433D01*
X1680Y1433D01*
X1680Y1431D01*
X1682Y1431D01*
X1682Y1429D01*
X1684Y1429D01*
X1684Y1427D01*
X1686Y1427D01*
X1686Y1425D01*
X1688Y1425D01*
X1688Y1423D01*
X1690Y1423D01*
X1690Y1421D01*
X1692Y1421D01*
X1692Y1419D01*
X1694Y1419D01*
X1694Y1415D01*
X1696Y1415D01*
X1696Y1411D01*
X1698Y1411D01*
X1698Y1405D01*
X1700Y1405D01*
X1700Y1397D01*
X1702Y1397D01*
X1702Y1379D01*
X1700Y1379D01*
X1700Y1371D01*
X1698Y1371D01*
X1698Y1367D01*
X1696Y1367D01*
X1696Y1363D01*
X1694Y1363D01*
X1694Y1359D01*
X1692Y1359D01*
X1692Y1357D01*
X1690Y1357D01*
X1690Y1355D01*
X1688Y1355D01*
X1688Y1351D01*
X1686Y1351D01*
X1686Y1349D01*
X1682Y1349D01*
X1682Y1347D01*
X1680Y1347D01*
X1680Y1345D01*
X1678Y1345D01*
X1678Y1343D01*
X1674Y1343D01*
X1674Y1341D01*
X1670Y1341D01*
X1670Y1339D01*
X1666Y1339D01*
X1666Y1337D01*
X1660Y1337D01*
X1660Y1335D01*
X2090Y1335D01*
X2090Y1455D01*
X1674Y1455D01*
G37*
D02*
G36*
X588Y1353D02*
X588Y1351D01*
X586Y1351D01*
X586Y1349D01*
X582Y1349D01*
X582Y1347D01*
X580Y1347D01*
X580Y1345D01*
X578Y1345D01*
X578Y1343D01*
X574Y1343D01*
X574Y1341D01*
X570Y1341D01*
X570Y1339D01*
X566Y1339D01*
X566Y1337D01*
X560Y1337D01*
X560Y1335D01*
X636Y1335D01*
X636Y1337D01*
X630Y1337D01*
X630Y1339D01*
X626Y1339D01*
X626Y1341D01*
X622Y1341D01*
X622Y1343D01*
X618Y1343D01*
X618Y1345D01*
X616Y1345D01*
X616Y1347D01*
X612Y1347D01*
X612Y1349D01*
X610Y1349D01*
X610Y1351D01*
X608Y1351D01*
X608Y1353D01*
X588Y1353D01*
G37*
D02*
G36*
X688Y1353D02*
X688Y1351D01*
X686Y1351D01*
X686Y1349D01*
X682Y1349D01*
X682Y1347D01*
X680Y1347D01*
X680Y1345D01*
X678Y1345D01*
X678Y1343D01*
X674Y1343D01*
X674Y1341D01*
X670Y1341D01*
X670Y1339D01*
X666Y1339D01*
X666Y1337D01*
X660Y1337D01*
X660Y1335D01*
X736Y1335D01*
X736Y1337D01*
X730Y1337D01*
X730Y1339D01*
X726Y1339D01*
X726Y1341D01*
X722Y1341D01*
X722Y1343D01*
X718Y1343D01*
X718Y1345D01*
X716Y1345D01*
X716Y1347D01*
X712Y1347D01*
X712Y1349D01*
X710Y1349D01*
X710Y1351D01*
X708Y1351D01*
X708Y1353D01*
X688Y1353D01*
G37*
D02*
G36*
X788Y1353D02*
X788Y1351D01*
X786Y1351D01*
X786Y1349D01*
X782Y1349D01*
X782Y1347D01*
X780Y1347D01*
X780Y1345D01*
X778Y1345D01*
X778Y1343D01*
X774Y1343D01*
X774Y1341D01*
X770Y1341D01*
X770Y1339D01*
X766Y1339D01*
X766Y1337D01*
X760Y1337D01*
X760Y1335D01*
X836Y1335D01*
X836Y1337D01*
X830Y1337D01*
X830Y1339D01*
X826Y1339D01*
X826Y1341D01*
X822Y1341D01*
X822Y1343D01*
X818Y1343D01*
X818Y1345D01*
X816Y1345D01*
X816Y1347D01*
X812Y1347D01*
X812Y1349D01*
X810Y1349D01*
X810Y1351D01*
X808Y1351D01*
X808Y1353D01*
X788Y1353D01*
G37*
D02*
G36*
X888Y1353D02*
X888Y1351D01*
X886Y1351D01*
X886Y1349D01*
X882Y1349D01*
X882Y1347D01*
X880Y1347D01*
X880Y1345D01*
X878Y1345D01*
X878Y1343D01*
X874Y1343D01*
X874Y1341D01*
X870Y1341D01*
X870Y1339D01*
X866Y1339D01*
X866Y1337D01*
X860Y1337D01*
X860Y1335D01*
X936Y1335D01*
X936Y1337D01*
X930Y1337D01*
X930Y1339D01*
X926Y1339D01*
X926Y1341D01*
X922Y1341D01*
X922Y1343D01*
X918Y1343D01*
X918Y1345D01*
X916Y1345D01*
X916Y1347D01*
X912Y1347D01*
X912Y1349D01*
X910Y1349D01*
X910Y1351D01*
X908Y1351D01*
X908Y1353D01*
X888Y1353D01*
G37*
D02*
G36*
X988Y1353D02*
X988Y1351D01*
X986Y1351D01*
X986Y1349D01*
X982Y1349D01*
X982Y1347D01*
X980Y1347D01*
X980Y1345D01*
X978Y1345D01*
X978Y1343D01*
X974Y1343D01*
X974Y1341D01*
X970Y1341D01*
X970Y1339D01*
X966Y1339D01*
X966Y1337D01*
X960Y1337D01*
X960Y1335D01*
X1036Y1335D01*
X1036Y1337D01*
X1030Y1337D01*
X1030Y1339D01*
X1026Y1339D01*
X1026Y1341D01*
X1022Y1341D01*
X1022Y1343D01*
X1018Y1343D01*
X1018Y1345D01*
X1016Y1345D01*
X1016Y1347D01*
X1012Y1347D01*
X1012Y1349D01*
X1010Y1349D01*
X1010Y1351D01*
X1008Y1351D01*
X1008Y1353D01*
X988Y1353D01*
G37*
D02*
G36*
X1088Y1353D02*
X1088Y1351D01*
X1086Y1351D01*
X1086Y1349D01*
X1082Y1349D01*
X1082Y1347D01*
X1080Y1347D01*
X1080Y1345D01*
X1078Y1345D01*
X1078Y1343D01*
X1074Y1343D01*
X1074Y1341D01*
X1070Y1341D01*
X1070Y1339D01*
X1066Y1339D01*
X1066Y1337D01*
X1060Y1337D01*
X1060Y1335D01*
X1136Y1335D01*
X1136Y1337D01*
X1130Y1337D01*
X1130Y1339D01*
X1126Y1339D01*
X1126Y1341D01*
X1122Y1341D01*
X1122Y1343D01*
X1118Y1343D01*
X1118Y1345D01*
X1116Y1345D01*
X1116Y1347D01*
X1112Y1347D01*
X1112Y1349D01*
X1110Y1349D01*
X1110Y1351D01*
X1108Y1351D01*
X1108Y1353D01*
X1088Y1353D01*
G37*
D02*
G36*
X1188Y1353D02*
X1188Y1351D01*
X1186Y1351D01*
X1186Y1349D01*
X1182Y1349D01*
X1182Y1347D01*
X1180Y1347D01*
X1180Y1345D01*
X1178Y1345D01*
X1178Y1343D01*
X1174Y1343D01*
X1174Y1341D01*
X1170Y1341D01*
X1170Y1339D01*
X1166Y1339D01*
X1166Y1337D01*
X1160Y1337D01*
X1160Y1335D01*
X1236Y1335D01*
X1236Y1337D01*
X1230Y1337D01*
X1230Y1339D01*
X1226Y1339D01*
X1226Y1341D01*
X1222Y1341D01*
X1222Y1343D01*
X1218Y1343D01*
X1218Y1345D01*
X1216Y1345D01*
X1216Y1347D01*
X1212Y1347D01*
X1212Y1349D01*
X1210Y1349D01*
X1210Y1351D01*
X1208Y1351D01*
X1208Y1353D01*
X1188Y1353D01*
G37*
D02*
G36*
X1288Y1353D02*
X1288Y1351D01*
X1286Y1351D01*
X1286Y1349D01*
X1282Y1349D01*
X1282Y1347D01*
X1280Y1347D01*
X1280Y1345D01*
X1278Y1345D01*
X1278Y1343D01*
X1274Y1343D01*
X1274Y1341D01*
X1270Y1341D01*
X1270Y1339D01*
X1266Y1339D01*
X1266Y1337D01*
X1260Y1337D01*
X1260Y1335D01*
X1336Y1335D01*
X1336Y1337D01*
X1330Y1337D01*
X1330Y1339D01*
X1326Y1339D01*
X1326Y1341D01*
X1322Y1341D01*
X1322Y1343D01*
X1318Y1343D01*
X1318Y1345D01*
X1316Y1345D01*
X1316Y1347D01*
X1312Y1347D01*
X1312Y1349D01*
X1310Y1349D01*
X1310Y1351D01*
X1308Y1351D01*
X1308Y1353D01*
X1288Y1353D01*
G37*
D02*
G36*
X1388Y1353D02*
X1388Y1351D01*
X1386Y1351D01*
X1386Y1349D01*
X1382Y1349D01*
X1382Y1347D01*
X1380Y1347D01*
X1380Y1345D01*
X1378Y1345D01*
X1378Y1343D01*
X1374Y1343D01*
X1374Y1341D01*
X1370Y1341D01*
X1370Y1339D01*
X1366Y1339D01*
X1366Y1337D01*
X1360Y1337D01*
X1360Y1335D01*
X1436Y1335D01*
X1436Y1337D01*
X1430Y1337D01*
X1430Y1339D01*
X1426Y1339D01*
X1426Y1341D01*
X1422Y1341D01*
X1422Y1343D01*
X1418Y1343D01*
X1418Y1345D01*
X1416Y1345D01*
X1416Y1347D01*
X1412Y1347D01*
X1412Y1349D01*
X1410Y1349D01*
X1410Y1351D01*
X1408Y1351D01*
X1408Y1353D01*
X1388Y1353D01*
G37*
D02*
G36*
X1488Y1353D02*
X1488Y1351D01*
X1486Y1351D01*
X1486Y1349D01*
X1482Y1349D01*
X1482Y1347D01*
X1480Y1347D01*
X1480Y1345D01*
X1478Y1345D01*
X1478Y1343D01*
X1474Y1343D01*
X1474Y1341D01*
X1470Y1341D01*
X1470Y1339D01*
X1466Y1339D01*
X1466Y1337D01*
X1460Y1337D01*
X1460Y1335D01*
X1536Y1335D01*
X1536Y1337D01*
X1530Y1337D01*
X1530Y1339D01*
X1526Y1339D01*
X1526Y1341D01*
X1522Y1341D01*
X1522Y1343D01*
X1518Y1343D01*
X1518Y1345D01*
X1516Y1345D01*
X1516Y1347D01*
X1512Y1347D01*
X1512Y1349D01*
X1510Y1349D01*
X1510Y1351D01*
X1508Y1351D01*
X1508Y1353D01*
X1488Y1353D01*
G37*
D02*
G36*
X1588Y1353D02*
X1588Y1351D01*
X1586Y1351D01*
X1586Y1349D01*
X1582Y1349D01*
X1582Y1347D01*
X1580Y1347D01*
X1580Y1345D01*
X1578Y1345D01*
X1578Y1343D01*
X1574Y1343D01*
X1574Y1341D01*
X1570Y1341D01*
X1570Y1339D01*
X1566Y1339D01*
X1566Y1337D01*
X1560Y1337D01*
X1560Y1335D01*
X1636Y1335D01*
X1636Y1337D01*
X1630Y1337D01*
X1630Y1339D01*
X1626Y1339D01*
X1626Y1341D01*
X1622Y1341D01*
X1622Y1343D01*
X1618Y1343D01*
X1618Y1345D01*
X1616Y1345D01*
X1616Y1347D01*
X1612Y1347D01*
X1612Y1349D01*
X1610Y1349D01*
X1610Y1351D01*
X1608Y1351D01*
X1608Y1353D01*
X1588Y1353D01*
G37*
D02*
G36*
X40Y1343D02*
X40Y1135D01*
X236Y1135D01*
X236Y1137D01*
X230Y1137D01*
X230Y1139D01*
X226Y1139D01*
X226Y1141D01*
X222Y1141D01*
X222Y1143D01*
X218Y1143D01*
X218Y1145D01*
X216Y1145D01*
X216Y1147D01*
X212Y1147D01*
X212Y1149D01*
X210Y1149D01*
X210Y1151D01*
X208Y1151D01*
X208Y1153D01*
X206Y1153D01*
X206Y1157D01*
X204Y1157D01*
X204Y1159D01*
X202Y1159D01*
X202Y1163D01*
X200Y1163D01*
X200Y1167D01*
X198Y1167D01*
X198Y1171D01*
X196Y1171D01*
X196Y1179D01*
X194Y1179D01*
X194Y1199D01*
X196Y1199D01*
X196Y1207D01*
X198Y1207D01*
X198Y1211D01*
X200Y1211D01*
X200Y1215D01*
X202Y1215D01*
X202Y1219D01*
X204Y1219D01*
X204Y1221D01*
X206Y1221D01*
X206Y1223D01*
X208Y1223D01*
X208Y1225D01*
X210Y1225D01*
X210Y1227D01*
X212Y1227D01*
X212Y1249D01*
X210Y1249D01*
X210Y1251D01*
X208Y1251D01*
X208Y1253D01*
X206Y1253D01*
X206Y1257D01*
X204Y1257D01*
X204Y1259D01*
X202Y1259D01*
X202Y1263D01*
X200Y1263D01*
X200Y1267D01*
X198Y1267D01*
X198Y1271D01*
X196Y1271D01*
X196Y1279D01*
X194Y1279D01*
X194Y1299D01*
X196Y1299D01*
X196Y1307D01*
X198Y1307D01*
X198Y1311D01*
X200Y1311D01*
X200Y1315D01*
X202Y1315D01*
X202Y1319D01*
X204Y1319D01*
X204Y1321D01*
X206Y1321D01*
X206Y1323D01*
X208Y1323D01*
X208Y1325D01*
X210Y1325D01*
X210Y1327D01*
X212Y1327D01*
X212Y1329D01*
X214Y1329D01*
X214Y1331D01*
X216Y1331D01*
X216Y1333D01*
X218Y1333D01*
X218Y1335D01*
X222Y1335D01*
X222Y1337D01*
X226Y1337D01*
X226Y1339D01*
X232Y1339D01*
X232Y1341D01*
X240Y1341D01*
X240Y1343D01*
X40Y1343D01*
G37*
D02*
G36*
X276Y1335D02*
X276Y1333D01*
X2090Y1333D01*
X2090Y1335D01*
X276Y1335D01*
G37*
D02*
G36*
X276Y1335D02*
X276Y1333D01*
X2090Y1333D01*
X2090Y1335D01*
X276Y1335D01*
G37*
D02*
G36*
X276Y1335D02*
X276Y1333D01*
X2090Y1333D01*
X2090Y1335D01*
X276Y1335D01*
G37*
D02*
G36*
X276Y1335D02*
X276Y1333D01*
X2090Y1333D01*
X2090Y1335D01*
X276Y1335D01*
G37*
D02*
G36*
X276Y1335D02*
X276Y1333D01*
X2090Y1333D01*
X2090Y1335D01*
X276Y1335D01*
G37*
D02*
G36*
X276Y1335D02*
X276Y1333D01*
X2090Y1333D01*
X2090Y1335D01*
X276Y1335D01*
G37*
D02*
G36*
X276Y1335D02*
X276Y1333D01*
X2090Y1333D01*
X2090Y1335D01*
X276Y1335D01*
G37*
D02*
G36*
X276Y1335D02*
X276Y1333D01*
X2090Y1333D01*
X2090Y1335D01*
X276Y1335D01*
G37*
D02*
G36*
X276Y1335D02*
X276Y1333D01*
X2090Y1333D01*
X2090Y1335D01*
X276Y1335D01*
G37*
D02*
G36*
X276Y1335D02*
X276Y1333D01*
X2090Y1333D01*
X2090Y1335D01*
X276Y1335D01*
G37*
D02*
G36*
X276Y1335D02*
X276Y1333D01*
X2090Y1333D01*
X2090Y1335D01*
X276Y1335D01*
G37*
D02*
G36*
X276Y1335D02*
X276Y1333D01*
X2090Y1333D01*
X2090Y1335D01*
X276Y1335D01*
G37*
D02*
G36*
X276Y1335D02*
X276Y1333D01*
X2090Y1333D01*
X2090Y1335D01*
X276Y1335D01*
G37*
D02*
G36*
X280Y1333D02*
X280Y1331D01*
X282Y1331D01*
X282Y1329D01*
X284Y1329D01*
X284Y1327D01*
X286Y1327D01*
X286Y1325D01*
X288Y1325D01*
X288Y1323D01*
X290Y1323D01*
X290Y1321D01*
X292Y1321D01*
X292Y1319D01*
X294Y1319D01*
X294Y1315D01*
X296Y1315D01*
X296Y1311D01*
X298Y1311D01*
X298Y1305D01*
X300Y1305D01*
X300Y1297D01*
X302Y1297D01*
X302Y1279D01*
X300Y1279D01*
X300Y1271D01*
X298Y1271D01*
X298Y1267D01*
X296Y1267D01*
X296Y1263D01*
X294Y1263D01*
X294Y1259D01*
X292Y1259D01*
X292Y1257D01*
X290Y1257D01*
X290Y1255D01*
X288Y1255D01*
X288Y1251D01*
X286Y1251D01*
X286Y1249D01*
X282Y1249D01*
X282Y1229D01*
X284Y1229D01*
X284Y1227D01*
X286Y1227D01*
X286Y1225D01*
X288Y1225D01*
X288Y1223D01*
X290Y1223D01*
X290Y1221D01*
X292Y1221D01*
X292Y1219D01*
X294Y1219D01*
X294Y1215D01*
X296Y1215D01*
X296Y1211D01*
X298Y1211D01*
X298Y1205D01*
X300Y1205D01*
X300Y1197D01*
X302Y1197D01*
X302Y1179D01*
X300Y1179D01*
X300Y1171D01*
X298Y1171D01*
X298Y1167D01*
X296Y1167D01*
X296Y1163D01*
X294Y1163D01*
X294Y1159D01*
X292Y1159D01*
X292Y1157D01*
X290Y1157D01*
X290Y1155D01*
X288Y1155D01*
X288Y1151D01*
X286Y1151D01*
X286Y1149D01*
X282Y1149D01*
X282Y1147D01*
X280Y1147D01*
X280Y1145D01*
X278Y1145D01*
X278Y1143D01*
X1656Y1143D01*
X1656Y1141D01*
X1664Y1141D01*
X1664Y1139D01*
X1670Y1139D01*
X1670Y1137D01*
X1674Y1137D01*
X1674Y1135D01*
X1676Y1135D01*
X1676Y1133D01*
X1680Y1133D01*
X1680Y1131D01*
X1682Y1131D01*
X1682Y1129D01*
X1684Y1129D01*
X1684Y1127D01*
X1686Y1127D01*
X1686Y1125D01*
X1688Y1125D01*
X1688Y1123D01*
X1690Y1123D01*
X1690Y1121D01*
X1692Y1121D01*
X1692Y1119D01*
X1694Y1119D01*
X1694Y1115D01*
X1696Y1115D01*
X1696Y1111D01*
X1698Y1111D01*
X1698Y1105D01*
X1700Y1105D01*
X1700Y1097D01*
X1702Y1097D01*
X1702Y1079D01*
X1700Y1079D01*
X1700Y1071D01*
X1698Y1071D01*
X1698Y1067D01*
X1696Y1067D01*
X1696Y1063D01*
X1694Y1063D01*
X1694Y1059D01*
X1692Y1059D01*
X1692Y1057D01*
X1690Y1057D01*
X1690Y1055D01*
X1688Y1055D01*
X1688Y1051D01*
X1686Y1051D01*
X1686Y1049D01*
X1682Y1049D01*
X1682Y1047D01*
X1680Y1047D01*
X1680Y1045D01*
X1678Y1045D01*
X1678Y1043D01*
X1674Y1043D01*
X1674Y1041D01*
X1670Y1041D01*
X1670Y1039D01*
X1666Y1039D01*
X1666Y1037D01*
X1660Y1037D01*
X1660Y1035D01*
X2090Y1035D01*
X2090Y1333D01*
X280Y1333D01*
G37*
D02*
G36*
X274Y1143D02*
X274Y1141D01*
X270Y1141D01*
X270Y1139D01*
X266Y1139D01*
X266Y1137D01*
X260Y1137D01*
X260Y1135D01*
X622Y1135D01*
X622Y1137D01*
X626Y1137D01*
X626Y1139D01*
X632Y1139D01*
X632Y1141D01*
X640Y1141D01*
X640Y1143D01*
X274Y1143D01*
G37*
D02*
G36*
X656Y1143D02*
X656Y1141D01*
X664Y1141D01*
X664Y1139D01*
X670Y1139D01*
X670Y1137D01*
X674Y1137D01*
X674Y1135D01*
X676Y1135D01*
X676Y1133D01*
X680Y1133D01*
X680Y1131D01*
X682Y1131D01*
X682Y1129D01*
X684Y1129D01*
X684Y1127D01*
X686Y1127D01*
X686Y1125D01*
X688Y1125D01*
X688Y1123D01*
X708Y1123D01*
X708Y1125D01*
X710Y1125D01*
X710Y1127D01*
X712Y1127D01*
X712Y1129D01*
X714Y1129D01*
X714Y1131D01*
X716Y1131D01*
X716Y1133D01*
X718Y1133D01*
X718Y1135D01*
X722Y1135D01*
X722Y1137D01*
X726Y1137D01*
X726Y1139D01*
X732Y1139D01*
X732Y1141D01*
X740Y1141D01*
X740Y1143D01*
X656Y1143D01*
G37*
D02*
G36*
X756Y1143D02*
X756Y1141D01*
X764Y1141D01*
X764Y1139D01*
X770Y1139D01*
X770Y1137D01*
X774Y1137D01*
X774Y1135D01*
X776Y1135D01*
X776Y1133D01*
X780Y1133D01*
X780Y1131D01*
X782Y1131D01*
X782Y1129D01*
X784Y1129D01*
X784Y1127D01*
X786Y1127D01*
X786Y1125D01*
X788Y1125D01*
X788Y1123D01*
X808Y1123D01*
X808Y1125D01*
X810Y1125D01*
X810Y1127D01*
X812Y1127D01*
X812Y1129D01*
X814Y1129D01*
X814Y1131D01*
X816Y1131D01*
X816Y1133D01*
X818Y1133D01*
X818Y1135D01*
X822Y1135D01*
X822Y1137D01*
X826Y1137D01*
X826Y1139D01*
X832Y1139D01*
X832Y1141D01*
X840Y1141D01*
X840Y1143D01*
X756Y1143D01*
G37*
D02*
G36*
X856Y1143D02*
X856Y1141D01*
X864Y1141D01*
X864Y1139D01*
X870Y1139D01*
X870Y1137D01*
X874Y1137D01*
X874Y1135D01*
X876Y1135D01*
X876Y1133D01*
X880Y1133D01*
X880Y1131D01*
X882Y1131D01*
X882Y1129D01*
X884Y1129D01*
X884Y1127D01*
X886Y1127D01*
X886Y1125D01*
X888Y1125D01*
X888Y1123D01*
X890Y1123D01*
X890Y1121D01*
X892Y1121D01*
X892Y1119D01*
X894Y1119D01*
X894Y1115D01*
X896Y1115D01*
X896Y1111D01*
X898Y1111D01*
X898Y1105D01*
X900Y1105D01*
X900Y1097D01*
X902Y1097D01*
X902Y1079D01*
X900Y1079D01*
X900Y1071D01*
X898Y1071D01*
X898Y1067D01*
X896Y1067D01*
X896Y1063D01*
X894Y1063D01*
X894Y1059D01*
X892Y1059D01*
X892Y1057D01*
X890Y1057D01*
X890Y1055D01*
X888Y1055D01*
X888Y1051D01*
X886Y1051D01*
X886Y1049D01*
X882Y1049D01*
X882Y1047D01*
X880Y1047D01*
X880Y1045D01*
X878Y1045D01*
X878Y1043D01*
X874Y1043D01*
X874Y1041D01*
X870Y1041D01*
X870Y1039D01*
X866Y1039D01*
X866Y1037D01*
X860Y1037D01*
X860Y1035D01*
X1136Y1035D01*
X1136Y1037D01*
X1130Y1037D01*
X1130Y1039D01*
X1126Y1039D01*
X1126Y1041D01*
X1122Y1041D01*
X1122Y1043D01*
X1118Y1043D01*
X1118Y1045D01*
X1116Y1045D01*
X1116Y1047D01*
X1112Y1047D01*
X1112Y1049D01*
X1110Y1049D01*
X1110Y1051D01*
X1108Y1051D01*
X1108Y1053D01*
X1106Y1053D01*
X1106Y1057D01*
X1104Y1057D01*
X1104Y1059D01*
X1102Y1059D01*
X1102Y1063D01*
X1100Y1063D01*
X1100Y1067D01*
X1098Y1067D01*
X1098Y1071D01*
X1096Y1071D01*
X1096Y1079D01*
X1094Y1079D01*
X1094Y1099D01*
X1096Y1099D01*
X1096Y1107D01*
X1098Y1107D01*
X1098Y1111D01*
X1100Y1111D01*
X1100Y1115D01*
X1102Y1115D01*
X1102Y1119D01*
X1104Y1119D01*
X1104Y1121D01*
X1106Y1121D01*
X1106Y1123D01*
X1108Y1123D01*
X1108Y1125D01*
X1110Y1125D01*
X1110Y1127D01*
X1112Y1127D01*
X1112Y1129D01*
X1114Y1129D01*
X1114Y1131D01*
X1116Y1131D01*
X1116Y1133D01*
X1118Y1133D01*
X1118Y1135D01*
X1122Y1135D01*
X1122Y1137D01*
X1126Y1137D01*
X1126Y1139D01*
X1132Y1139D01*
X1132Y1141D01*
X1140Y1141D01*
X1140Y1143D01*
X856Y1143D01*
G37*
D02*
G36*
X1156Y1143D02*
X1156Y1141D01*
X1164Y1141D01*
X1164Y1139D01*
X1170Y1139D01*
X1170Y1137D01*
X1174Y1137D01*
X1174Y1135D01*
X1176Y1135D01*
X1176Y1133D01*
X1180Y1133D01*
X1180Y1131D01*
X1182Y1131D01*
X1182Y1129D01*
X1184Y1129D01*
X1184Y1127D01*
X1186Y1127D01*
X1186Y1125D01*
X1188Y1125D01*
X1188Y1123D01*
X1208Y1123D01*
X1208Y1125D01*
X1210Y1125D01*
X1210Y1127D01*
X1212Y1127D01*
X1212Y1129D01*
X1214Y1129D01*
X1214Y1131D01*
X1216Y1131D01*
X1216Y1133D01*
X1218Y1133D01*
X1218Y1135D01*
X1222Y1135D01*
X1222Y1137D01*
X1226Y1137D01*
X1226Y1139D01*
X1232Y1139D01*
X1232Y1141D01*
X1240Y1141D01*
X1240Y1143D01*
X1156Y1143D01*
G37*
D02*
G36*
X1256Y1143D02*
X1256Y1141D01*
X1264Y1141D01*
X1264Y1139D01*
X1270Y1139D01*
X1270Y1137D01*
X1274Y1137D01*
X1274Y1135D01*
X1276Y1135D01*
X1276Y1133D01*
X1280Y1133D01*
X1280Y1131D01*
X1282Y1131D01*
X1282Y1129D01*
X1284Y1129D01*
X1284Y1127D01*
X1286Y1127D01*
X1286Y1125D01*
X1288Y1125D01*
X1288Y1123D01*
X1308Y1123D01*
X1308Y1125D01*
X1310Y1125D01*
X1310Y1127D01*
X1312Y1127D01*
X1312Y1129D01*
X1314Y1129D01*
X1314Y1131D01*
X1316Y1131D01*
X1316Y1133D01*
X1318Y1133D01*
X1318Y1135D01*
X1322Y1135D01*
X1322Y1137D01*
X1326Y1137D01*
X1326Y1139D01*
X1332Y1139D01*
X1332Y1141D01*
X1340Y1141D01*
X1340Y1143D01*
X1256Y1143D01*
G37*
D02*
G36*
X1356Y1143D02*
X1356Y1141D01*
X1364Y1141D01*
X1364Y1139D01*
X1370Y1139D01*
X1370Y1137D01*
X1374Y1137D01*
X1374Y1135D01*
X1376Y1135D01*
X1376Y1133D01*
X1380Y1133D01*
X1380Y1131D01*
X1382Y1131D01*
X1382Y1129D01*
X1384Y1129D01*
X1384Y1127D01*
X1386Y1127D01*
X1386Y1125D01*
X1388Y1125D01*
X1388Y1123D01*
X1408Y1123D01*
X1408Y1125D01*
X1410Y1125D01*
X1410Y1127D01*
X1412Y1127D01*
X1412Y1129D01*
X1414Y1129D01*
X1414Y1131D01*
X1416Y1131D01*
X1416Y1133D01*
X1418Y1133D01*
X1418Y1135D01*
X1422Y1135D01*
X1422Y1137D01*
X1426Y1137D01*
X1426Y1139D01*
X1432Y1139D01*
X1432Y1141D01*
X1440Y1141D01*
X1440Y1143D01*
X1356Y1143D01*
G37*
D02*
G36*
X1456Y1143D02*
X1456Y1141D01*
X1464Y1141D01*
X1464Y1139D01*
X1470Y1139D01*
X1470Y1137D01*
X1474Y1137D01*
X1474Y1135D01*
X1476Y1135D01*
X1476Y1133D01*
X1480Y1133D01*
X1480Y1131D01*
X1482Y1131D01*
X1482Y1129D01*
X1484Y1129D01*
X1484Y1127D01*
X1486Y1127D01*
X1486Y1125D01*
X1488Y1125D01*
X1488Y1123D01*
X1508Y1123D01*
X1508Y1125D01*
X1510Y1125D01*
X1510Y1127D01*
X1512Y1127D01*
X1512Y1129D01*
X1514Y1129D01*
X1514Y1131D01*
X1516Y1131D01*
X1516Y1133D01*
X1518Y1133D01*
X1518Y1135D01*
X1522Y1135D01*
X1522Y1137D01*
X1526Y1137D01*
X1526Y1139D01*
X1532Y1139D01*
X1532Y1141D01*
X1540Y1141D01*
X1540Y1143D01*
X1456Y1143D01*
G37*
D02*
G36*
X1556Y1143D02*
X1556Y1141D01*
X1564Y1141D01*
X1564Y1139D01*
X1570Y1139D01*
X1570Y1137D01*
X1574Y1137D01*
X1574Y1135D01*
X1576Y1135D01*
X1576Y1133D01*
X1580Y1133D01*
X1580Y1131D01*
X1582Y1131D01*
X1582Y1129D01*
X1584Y1129D01*
X1584Y1127D01*
X1586Y1127D01*
X1586Y1125D01*
X1588Y1125D01*
X1588Y1123D01*
X1608Y1123D01*
X1608Y1125D01*
X1610Y1125D01*
X1610Y1127D01*
X1612Y1127D01*
X1612Y1129D01*
X1614Y1129D01*
X1614Y1131D01*
X1616Y1131D01*
X1616Y1133D01*
X1618Y1133D01*
X1618Y1135D01*
X1622Y1135D01*
X1622Y1137D01*
X1626Y1137D01*
X1626Y1139D01*
X1632Y1139D01*
X1632Y1141D01*
X1640Y1141D01*
X1640Y1143D01*
X1556Y1143D01*
G37*
D02*
G36*
X40Y1135D02*
X40Y1133D01*
X618Y1133D01*
X618Y1135D01*
X40Y1135D01*
G37*
D02*
G36*
X40Y1135D02*
X40Y1133D01*
X618Y1133D01*
X618Y1135D01*
X40Y1135D01*
G37*
D02*
G36*
X40Y1133D02*
X40Y1123D01*
X456Y1123D01*
X456Y1121D01*
X462Y1121D01*
X462Y1119D01*
X466Y1119D01*
X466Y1117D01*
X470Y1117D01*
X470Y1115D01*
X472Y1115D01*
X472Y1113D01*
X474Y1113D01*
X474Y1111D01*
X476Y1111D01*
X476Y1107D01*
X478Y1107D01*
X478Y1103D01*
X480Y1103D01*
X480Y1099D01*
X482Y1099D01*
X482Y1079D01*
X480Y1079D01*
X480Y1073D01*
X478Y1073D01*
X478Y1071D01*
X476Y1071D01*
X476Y1067D01*
X474Y1067D01*
X474Y1065D01*
X472Y1065D01*
X472Y1063D01*
X470Y1063D01*
X470Y1061D01*
X468Y1061D01*
X468Y1059D01*
X464Y1059D01*
X464Y1057D01*
X458Y1057D01*
X458Y1055D01*
X606Y1055D01*
X606Y1057D01*
X604Y1057D01*
X604Y1059D01*
X602Y1059D01*
X602Y1063D01*
X600Y1063D01*
X600Y1067D01*
X598Y1067D01*
X598Y1071D01*
X596Y1071D01*
X596Y1079D01*
X594Y1079D01*
X594Y1099D01*
X596Y1099D01*
X596Y1107D01*
X598Y1107D01*
X598Y1111D01*
X600Y1111D01*
X600Y1115D01*
X602Y1115D01*
X602Y1119D01*
X604Y1119D01*
X604Y1121D01*
X606Y1121D01*
X606Y1123D01*
X608Y1123D01*
X608Y1125D01*
X610Y1125D01*
X610Y1127D01*
X612Y1127D01*
X612Y1129D01*
X614Y1129D01*
X614Y1131D01*
X616Y1131D01*
X616Y1133D01*
X40Y1133D01*
G37*
D02*
G36*
X40Y1123D02*
X40Y1055D01*
X436Y1055D01*
X436Y1057D01*
X432Y1057D01*
X432Y1059D01*
X428Y1059D01*
X428Y1061D01*
X426Y1061D01*
X426Y1063D01*
X424Y1063D01*
X424Y1065D01*
X422Y1065D01*
X422Y1067D01*
X420Y1067D01*
X420Y1069D01*
X418Y1069D01*
X418Y1073D01*
X416Y1073D01*
X416Y1079D01*
X414Y1079D01*
X414Y1099D01*
X416Y1099D01*
X416Y1105D01*
X418Y1105D01*
X418Y1107D01*
X420Y1107D01*
X420Y1111D01*
X422Y1111D01*
X422Y1113D01*
X424Y1113D01*
X424Y1115D01*
X426Y1115D01*
X426Y1117D01*
X430Y1117D01*
X430Y1119D01*
X434Y1119D01*
X434Y1121D01*
X438Y1121D01*
X438Y1123D01*
X40Y1123D01*
G37*
D02*
G36*
X40Y1055D02*
X40Y1053D01*
X606Y1053D01*
X606Y1055D01*
X40Y1055D01*
G37*
D02*
G36*
X40Y1055D02*
X40Y1053D01*
X606Y1053D01*
X606Y1055D01*
X40Y1055D01*
G37*
D02*
G36*
X40Y1053D02*
X40Y1035D01*
X636Y1035D01*
X636Y1037D01*
X630Y1037D01*
X630Y1039D01*
X626Y1039D01*
X626Y1041D01*
X622Y1041D01*
X622Y1043D01*
X618Y1043D01*
X618Y1045D01*
X616Y1045D01*
X616Y1047D01*
X612Y1047D01*
X612Y1049D01*
X610Y1049D01*
X610Y1051D01*
X608Y1051D01*
X608Y1053D01*
X40Y1053D01*
G37*
D02*
G36*
X688Y1053D02*
X688Y1051D01*
X686Y1051D01*
X686Y1049D01*
X682Y1049D01*
X682Y1047D01*
X680Y1047D01*
X680Y1045D01*
X678Y1045D01*
X678Y1043D01*
X674Y1043D01*
X674Y1041D01*
X670Y1041D01*
X670Y1039D01*
X666Y1039D01*
X666Y1037D01*
X660Y1037D01*
X660Y1035D01*
X736Y1035D01*
X736Y1037D01*
X730Y1037D01*
X730Y1039D01*
X726Y1039D01*
X726Y1041D01*
X722Y1041D01*
X722Y1043D01*
X718Y1043D01*
X718Y1045D01*
X716Y1045D01*
X716Y1047D01*
X712Y1047D01*
X712Y1049D01*
X710Y1049D01*
X710Y1051D01*
X708Y1051D01*
X708Y1053D01*
X688Y1053D01*
G37*
D02*
G36*
X788Y1053D02*
X788Y1051D01*
X786Y1051D01*
X786Y1049D01*
X782Y1049D01*
X782Y1047D01*
X780Y1047D01*
X780Y1045D01*
X778Y1045D01*
X778Y1043D01*
X774Y1043D01*
X774Y1041D01*
X770Y1041D01*
X770Y1039D01*
X766Y1039D01*
X766Y1037D01*
X760Y1037D01*
X760Y1035D01*
X836Y1035D01*
X836Y1037D01*
X830Y1037D01*
X830Y1039D01*
X826Y1039D01*
X826Y1041D01*
X822Y1041D01*
X822Y1043D01*
X818Y1043D01*
X818Y1045D01*
X816Y1045D01*
X816Y1047D01*
X812Y1047D01*
X812Y1049D01*
X810Y1049D01*
X810Y1051D01*
X808Y1051D01*
X808Y1053D01*
X788Y1053D01*
G37*
D02*
G36*
X1188Y1053D02*
X1188Y1051D01*
X1186Y1051D01*
X1186Y1049D01*
X1182Y1049D01*
X1182Y1047D01*
X1180Y1047D01*
X1180Y1045D01*
X1178Y1045D01*
X1178Y1043D01*
X1174Y1043D01*
X1174Y1041D01*
X1170Y1041D01*
X1170Y1039D01*
X1166Y1039D01*
X1166Y1037D01*
X1160Y1037D01*
X1160Y1035D01*
X1236Y1035D01*
X1236Y1037D01*
X1230Y1037D01*
X1230Y1039D01*
X1226Y1039D01*
X1226Y1041D01*
X1222Y1041D01*
X1222Y1043D01*
X1218Y1043D01*
X1218Y1045D01*
X1216Y1045D01*
X1216Y1047D01*
X1212Y1047D01*
X1212Y1049D01*
X1210Y1049D01*
X1210Y1051D01*
X1208Y1051D01*
X1208Y1053D01*
X1188Y1053D01*
G37*
D02*
G36*
X1288Y1053D02*
X1288Y1051D01*
X1286Y1051D01*
X1286Y1049D01*
X1282Y1049D01*
X1282Y1047D01*
X1280Y1047D01*
X1280Y1045D01*
X1278Y1045D01*
X1278Y1043D01*
X1274Y1043D01*
X1274Y1041D01*
X1270Y1041D01*
X1270Y1039D01*
X1266Y1039D01*
X1266Y1037D01*
X1260Y1037D01*
X1260Y1035D01*
X1336Y1035D01*
X1336Y1037D01*
X1330Y1037D01*
X1330Y1039D01*
X1326Y1039D01*
X1326Y1041D01*
X1322Y1041D01*
X1322Y1043D01*
X1318Y1043D01*
X1318Y1045D01*
X1316Y1045D01*
X1316Y1047D01*
X1312Y1047D01*
X1312Y1049D01*
X1310Y1049D01*
X1310Y1051D01*
X1308Y1051D01*
X1308Y1053D01*
X1288Y1053D01*
G37*
D02*
G36*
X1388Y1053D02*
X1388Y1051D01*
X1386Y1051D01*
X1386Y1049D01*
X1382Y1049D01*
X1382Y1047D01*
X1380Y1047D01*
X1380Y1045D01*
X1378Y1045D01*
X1378Y1043D01*
X1374Y1043D01*
X1374Y1041D01*
X1370Y1041D01*
X1370Y1039D01*
X1366Y1039D01*
X1366Y1037D01*
X1360Y1037D01*
X1360Y1035D01*
X1436Y1035D01*
X1436Y1037D01*
X1430Y1037D01*
X1430Y1039D01*
X1426Y1039D01*
X1426Y1041D01*
X1422Y1041D01*
X1422Y1043D01*
X1418Y1043D01*
X1418Y1045D01*
X1416Y1045D01*
X1416Y1047D01*
X1412Y1047D01*
X1412Y1049D01*
X1410Y1049D01*
X1410Y1051D01*
X1408Y1051D01*
X1408Y1053D01*
X1388Y1053D01*
G37*
D02*
G36*
X1488Y1053D02*
X1488Y1051D01*
X1486Y1051D01*
X1486Y1049D01*
X1482Y1049D01*
X1482Y1047D01*
X1480Y1047D01*
X1480Y1045D01*
X1478Y1045D01*
X1478Y1043D01*
X1474Y1043D01*
X1474Y1041D01*
X1470Y1041D01*
X1470Y1039D01*
X1466Y1039D01*
X1466Y1037D01*
X1460Y1037D01*
X1460Y1035D01*
X1536Y1035D01*
X1536Y1037D01*
X1530Y1037D01*
X1530Y1039D01*
X1526Y1039D01*
X1526Y1041D01*
X1522Y1041D01*
X1522Y1043D01*
X1518Y1043D01*
X1518Y1045D01*
X1516Y1045D01*
X1516Y1047D01*
X1512Y1047D01*
X1512Y1049D01*
X1510Y1049D01*
X1510Y1051D01*
X1508Y1051D01*
X1508Y1053D01*
X1488Y1053D01*
G37*
D02*
G36*
X1588Y1053D02*
X1588Y1051D01*
X1586Y1051D01*
X1586Y1049D01*
X1582Y1049D01*
X1582Y1047D01*
X1580Y1047D01*
X1580Y1045D01*
X1578Y1045D01*
X1578Y1043D01*
X1574Y1043D01*
X1574Y1041D01*
X1570Y1041D01*
X1570Y1039D01*
X1566Y1039D01*
X1566Y1037D01*
X1560Y1037D01*
X1560Y1035D01*
X1636Y1035D01*
X1636Y1037D01*
X1630Y1037D01*
X1630Y1039D01*
X1626Y1039D01*
X1626Y1041D01*
X1622Y1041D01*
X1622Y1043D01*
X1618Y1043D01*
X1618Y1045D01*
X1616Y1045D01*
X1616Y1047D01*
X1612Y1047D01*
X1612Y1049D01*
X1610Y1049D01*
X1610Y1051D01*
X1608Y1051D01*
X1608Y1053D01*
X1588Y1053D01*
G37*
D02*
G36*
X40Y1035D02*
X40Y1033D01*
X2090Y1033D01*
X2090Y1035D01*
X40Y1035D01*
G37*
D02*
G36*
X40Y1035D02*
X40Y1033D01*
X2090Y1033D01*
X2090Y1035D01*
X40Y1035D01*
G37*
D02*
G36*
X40Y1035D02*
X40Y1033D01*
X2090Y1033D01*
X2090Y1035D01*
X40Y1035D01*
G37*
D02*
G36*
X40Y1035D02*
X40Y1033D01*
X2090Y1033D01*
X2090Y1035D01*
X40Y1035D01*
G37*
D02*
G36*
X40Y1035D02*
X40Y1033D01*
X2090Y1033D01*
X2090Y1035D01*
X40Y1035D01*
G37*
D02*
G36*
X40Y1035D02*
X40Y1033D01*
X2090Y1033D01*
X2090Y1035D01*
X40Y1035D01*
G37*
D02*
G36*
X40Y1035D02*
X40Y1033D01*
X2090Y1033D01*
X2090Y1035D01*
X40Y1035D01*
G37*
D02*
G36*
X40Y1035D02*
X40Y1033D01*
X2090Y1033D01*
X2090Y1035D01*
X40Y1035D01*
G37*
D02*
G36*
X40Y1035D02*
X40Y1033D01*
X2090Y1033D01*
X2090Y1035D01*
X40Y1035D01*
G37*
D02*
G36*
X40Y1035D02*
X40Y1033D01*
X2090Y1033D01*
X2090Y1035D01*
X40Y1035D01*
G37*
D02*
G36*
X40Y1033D02*
X40Y843D01*
X1656Y843D01*
X1656Y841D01*
X1664Y841D01*
X1664Y839D01*
X1670Y839D01*
X1670Y837D01*
X1674Y837D01*
X1674Y835D01*
X1676Y835D01*
X1676Y833D01*
X1680Y833D01*
X1680Y831D01*
X1682Y831D01*
X1682Y829D01*
X1684Y829D01*
X1684Y827D01*
X1686Y827D01*
X1686Y825D01*
X1688Y825D01*
X1688Y823D01*
X1690Y823D01*
X1690Y821D01*
X1692Y821D01*
X1692Y819D01*
X1694Y819D01*
X1694Y815D01*
X1696Y815D01*
X1696Y811D01*
X1698Y811D01*
X1698Y805D01*
X1700Y805D01*
X1700Y797D01*
X1702Y797D01*
X1702Y779D01*
X1700Y779D01*
X1700Y771D01*
X1698Y771D01*
X1698Y767D01*
X1696Y767D01*
X1696Y763D01*
X1694Y763D01*
X1694Y759D01*
X1692Y759D01*
X1692Y757D01*
X1690Y757D01*
X1690Y755D01*
X1688Y755D01*
X1688Y751D01*
X1686Y751D01*
X1686Y749D01*
X1682Y749D01*
X1682Y747D01*
X1680Y747D01*
X1680Y745D01*
X1678Y745D01*
X1678Y743D01*
X1674Y743D01*
X1674Y741D01*
X1670Y741D01*
X1670Y739D01*
X1666Y739D01*
X1666Y737D01*
X1660Y737D01*
X1660Y735D01*
X2090Y735D01*
X2090Y1033D01*
X40Y1033D01*
G37*
D02*
G36*
X40Y843D02*
X40Y41D01*
X104Y41D01*
X104Y61D01*
X102Y61D01*
X102Y65D01*
X100Y65D01*
X100Y69D01*
X98Y69D01*
X98Y75D01*
X96Y75D01*
X96Y101D01*
X98Y101D01*
X98Y109D01*
X100Y109D01*
X100Y113D01*
X102Y113D01*
X102Y115D01*
X104Y115D01*
X104Y119D01*
X106Y119D01*
X106Y121D01*
X108Y121D01*
X108Y123D01*
X110Y123D01*
X110Y127D01*
X114Y127D01*
X114Y149D01*
X112Y149D01*
X112Y151D01*
X110Y151D01*
X110Y153D01*
X108Y153D01*
X108Y157D01*
X106Y157D01*
X106Y159D01*
X104Y159D01*
X104Y161D01*
X102Y161D01*
X102Y165D01*
X100Y165D01*
X100Y169D01*
X98Y169D01*
X98Y175D01*
X96Y175D01*
X96Y201D01*
X98Y201D01*
X98Y209D01*
X100Y209D01*
X100Y213D01*
X102Y213D01*
X102Y215D01*
X104Y215D01*
X104Y219D01*
X106Y219D01*
X106Y221D01*
X108Y221D01*
X108Y223D01*
X110Y223D01*
X110Y227D01*
X114Y227D01*
X114Y229D01*
X116Y229D01*
X116Y231D01*
X118Y231D01*
X118Y233D01*
X120Y233D01*
X120Y589D01*
X122Y589D01*
X122Y599D01*
X124Y599D01*
X124Y603D01*
X126Y603D01*
X126Y605D01*
X128Y605D01*
X128Y607D01*
X130Y607D01*
X130Y609D01*
X132Y609D01*
X132Y611D01*
X134Y611D01*
X134Y613D01*
X138Y613D01*
X138Y615D01*
X202Y615D01*
X202Y619D01*
X204Y619D01*
X204Y621D01*
X206Y621D01*
X206Y623D01*
X208Y623D01*
X208Y625D01*
X210Y625D01*
X210Y627D01*
X212Y627D01*
X212Y649D01*
X210Y649D01*
X210Y651D01*
X208Y651D01*
X208Y653D01*
X206Y653D01*
X206Y657D01*
X204Y657D01*
X204Y659D01*
X202Y659D01*
X202Y663D01*
X200Y663D01*
X200Y667D01*
X198Y667D01*
X198Y671D01*
X196Y671D01*
X196Y679D01*
X194Y679D01*
X194Y699D01*
X196Y699D01*
X196Y707D01*
X198Y707D01*
X198Y711D01*
X200Y711D01*
X200Y715D01*
X202Y715D01*
X202Y719D01*
X204Y719D01*
X204Y721D01*
X206Y721D01*
X206Y723D01*
X208Y723D01*
X208Y725D01*
X210Y725D01*
X210Y727D01*
X212Y727D01*
X212Y749D01*
X210Y749D01*
X210Y751D01*
X208Y751D01*
X208Y753D01*
X206Y753D01*
X206Y757D01*
X204Y757D01*
X204Y759D01*
X202Y759D01*
X202Y763D01*
X200Y763D01*
X200Y767D01*
X198Y767D01*
X198Y771D01*
X196Y771D01*
X196Y779D01*
X194Y779D01*
X194Y799D01*
X196Y799D01*
X196Y807D01*
X198Y807D01*
X198Y811D01*
X200Y811D01*
X200Y815D01*
X202Y815D01*
X202Y819D01*
X204Y819D01*
X204Y821D01*
X206Y821D01*
X206Y823D01*
X208Y823D01*
X208Y825D01*
X210Y825D01*
X210Y827D01*
X212Y827D01*
X212Y829D01*
X214Y829D01*
X214Y831D01*
X216Y831D01*
X216Y833D01*
X218Y833D01*
X218Y835D01*
X222Y835D01*
X222Y837D01*
X226Y837D01*
X226Y839D01*
X232Y839D01*
X232Y841D01*
X240Y841D01*
X240Y843D01*
X40Y843D01*
G37*
D02*
G36*
X256Y843D02*
X256Y841D01*
X264Y841D01*
X264Y839D01*
X270Y839D01*
X270Y837D01*
X274Y837D01*
X274Y835D01*
X276Y835D01*
X276Y833D01*
X280Y833D01*
X280Y831D01*
X282Y831D01*
X282Y829D01*
X284Y829D01*
X284Y827D01*
X286Y827D01*
X286Y825D01*
X288Y825D01*
X288Y823D01*
X290Y823D01*
X290Y821D01*
X292Y821D01*
X292Y819D01*
X294Y819D01*
X294Y815D01*
X296Y815D01*
X296Y811D01*
X298Y811D01*
X298Y805D01*
X300Y805D01*
X300Y797D01*
X302Y797D01*
X302Y779D01*
X300Y779D01*
X300Y771D01*
X298Y771D01*
X298Y767D01*
X296Y767D01*
X296Y763D01*
X294Y763D01*
X294Y759D01*
X292Y759D01*
X292Y757D01*
X290Y757D01*
X290Y755D01*
X288Y755D01*
X288Y751D01*
X286Y751D01*
X286Y749D01*
X282Y749D01*
X282Y735D01*
X536Y735D01*
X536Y737D01*
X530Y737D01*
X530Y739D01*
X526Y739D01*
X526Y741D01*
X522Y741D01*
X522Y743D01*
X518Y743D01*
X518Y745D01*
X516Y745D01*
X516Y747D01*
X512Y747D01*
X512Y749D01*
X510Y749D01*
X510Y751D01*
X508Y751D01*
X508Y753D01*
X506Y753D01*
X506Y757D01*
X504Y757D01*
X504Y759D01*
X502Y759D01*
X502Y763D01*
X500Y763D01*
X500Y767D01*
X498Y767D01*
X498Y771D01*
X496Y771D01*
X496Y779D01*
X494Y779D01*
X494Y799D01*
X496Y799D01*
X496Y807D01*
X498Y807D01*
X498Y811D01*
X500Y811D01*
X500Y815D01*
X502Y815D01*
X502Y819D01*
X504Y819D01*
X504Y821D01*
X506Y821D01*
X506Y823D01*
X508Y823D01*
X508Y825D01*
X510Y825D01*
X510Y827D01*
X512Y827D01*
X512Y829D01*
X514Y829D01*
X514Y831D01*
X516Y831D01*
X516Y833D01*
X518Y833D01*
X518Y835D01*
X522Y835D01*
X522Y837D01*
X526Y837D01*
X526Y839D01*
X532Y839D01*
X532Y841D01*
X540Y841D01*
X540Y843D01*
X256Y843D01*
G37*
D02*
G36*
X556Y843D02*
X556Y841D01*
X564Y841D01*
X564Y839D01*
X570Y839D01*
X570Y837D01*
X574Y837D01*
X574Y835D01*
X576Y835D01*
X576Y833D01*
X580Y833D01*
X580Y831D01*
X582Y831D01*
X582Y829D01*
X584Y829D01*
X584Y827D01*
X586Y827D01*
X586Y825D01*
X588Y825D01*
X588Y823D01*
X608Y823D01*
X608Y825D01*
X610Y825D01*
X610Y827D01*
X612Y827D01*
X612Y829D01*
X614Y829D01*
X614Y831D01*
X616Y831D01*
X616Y833D01*
X618Y833D01*
X618Y835D01*
X622Y835D01*
X622Y837D01*
X626Y837D01*
X626Y839D01*
X632Y839D01*
X632Y841D01*
X640Y841D01*
X640Y843D01*
X556Y843D01*
G37*
D02*
G36*
X656Y843D02*
X656Y841D01*
X664Y841D01*
X664Y839D01*
X670Y839D01*
X670Y837D01*
X674Y837D01*
X674Y835D01*
X676Y835D01*
X676Y833D01*
X680Y833D01*
X680Y831D01*
X682Y831D01*
X682Y829D01*
X684Y829D01*
X684Y827D01*
X686Y827D01*
X686Y825D01*
X688Y825D01*
X688Y823D01*
X708Y823D01*
X708Y825D01*
X710Y825D01*
X710Y827D01*
X712Y827D01*
X712Y829D01*
X714Y829D01*
X714Y831D01*
X716Y831D01*
X716Y833D01*
X718Y833D01*
X718Y835D01*
X722Y835D01*
X722Y837D01*
X726Y837D01*
X726Y839D01*
X732Y839D01*
X732Y841D01*
X740Y841D01*
X740Y843D01*
X656Y843D01*
G37*
D02*
G36*
X756Y843D02*
X756Y841D01*
X764Y841D01*
X764Y839D01*
X770Y839D01*
X770Y837D01*
X774Y837D01*
X774Y835D01*
X776Y835D01*
X776Y833D01*
X780Y833D01*
X780Y831D01*
X782Y831D01*
X782Y829D01*
X784Y829D01*
X784Y827D01*
X786Y827D01*
X786Y825D01*
X788Y825D01*
X788Y823D01*
X808Y823D01*
X808Y825D01*
X810Y825D01*
X810Y827D01*
X812Y827D01*
X812Y829D01*
X814Y829D01*
X814Y831D01*
X816Y831D01*
X816Y833D01*
X818Y833D01*
X818Y835D01*
X822Y835D01*
X822Y837D01*
X826Y837D01*
X826Y839D01*
X832Y839D01*
X832Y841D01*
X840Y841D01*
X840Y843D01*
X756Y843D01*
G37*
D02*
G36*
X856Y843D02*
X856Y841D01*
X864Y841D01*
X864Y839D01*
X870Y839D01*
X870Y837D01*
X874Y837D01*
X874Y835D01*
X876Y835D01*
X876Y833D01*
X880Y833D01*
X880Y831D01*
X882Y831D01*
X882Y829D01*
X884Y829D01*
X884Y827D01*
X886Y827D01*
X886Y825D01*
X888Y825D01*
X888Y823D01*
X908Y823D01*
X908Y825D01*
X910Y825D01*
X910Y827D01*
X912Y827D01*
X912Y829D01*
X914Y829D01*
X914Y831D01*
X916Y831D01*
X916Y833D01*
X918Y833D01*
X918Y835D01*
X922Y835D01*
X922Y837D01*
X926Y837D01*
X926Y839D01*
X932Y839D01*
X932Y841D01*
X940Y841D01*
X940Y843D01*
X856Y843D01*
G37*
D02*
G36*
X956Y843D02*
X956Y841D01*
X964Y841D01*
X964Y839D01*
X970Y839D01*
X970Y837D01*
X974Y837D01*
X974Y835D01*
X976Y835D01*
X976Y833D01*
X980Y833D01*
X980Y831D01*
X982Y831D01*
X982Y829D01*
X984Y829D01*
X984Y827D01*
X986Y827D01*
X986Y825D01*
X988Y825D01*
X988Y823D01*
X1008Y823D01*
X1008Y825D01*
X1010Y825D01*
X1010Y827D01*
X1012Y827D01*
X1012Y829D01*
X1014Y829D01*
X1014Y831D01*
X1016Y831D01*
X1016Y833D01*
X1018Y833D01*
X1018Y835D01*
X1022Y835D01*
X1022Y837D01*
X1026Y837D01*
X1026Y839D01*
X1032Y839D01*
X1032Y841D01*
X1040Y841D01*
X1040Y843D01*
X956Y843D01*
G37*
D02*
G36*
X1056Y843D02*
X1056Y841D01*
X1064Y841D01*
X1064Y839D01*
X1070Y839D01*
X1070Y837D01*
X1074Y837D01*
X1074Y835D01*
X1076Y835D01*
X1076Y833D01*
X1080Y833D01*
X1080Y831D01*
X1082Y831D01*
X1082Y829D01*
X1084Y829D01*
X1084Y827D01*
X1086Y827D01*
X1086Y825D01*
X1088Y825D01*
X1088Y823D01*
X1108Y823D01*
X1108Y825D01*
X1110Y825D01*
X1110Y827D01*
X1112Y827D01*
X1112Y829D01*
X1114Y829D01*
X1114Y831D01*
X1116Y831D01*
X1116Y833D01*
X1118Y833D01*
X1118Y835D01*
X1122Y835D01*
X1122Y837D01*
X1126Y837D01*
X1126Y839D01*
X1132Y839D01*
X1132Y841D01*
X1140Y841D01*
X1140Y843D01*
X1056Y843D01*
G37*
D02*
G36*
X1156Y843D02*
X1156Y841D01*
X1164Y841D01*
X1164Y839D01*
X1170Y839D01*
X1170Y837D01*
X1174Y837D01*
X1174Y835D01*
X1176Y835D01*
X1176Y833D01*
X1180Y833D01*
X1180Y831D01*
X1182Y831D01*
X1182Y829D01*
X1184Y829D01*
X1184Y827D01*
X1186Y827D01*
X1186Y825D01*
X1188Y825D01*
X1188Y823D01*
X1208Y823D01*
X1208Y825D01*
X1210Y825D01*
X1210Y827D01*
X1212Y827D01*
X1212Y829D01*
X1214Y829D01*
X1214Y831D01*
X1216Y831D01*
X1216Y833D01*
X1218Y833D01*
X1218Y835D01*
X1222Y835D01*
X1222Y837D01*
X1226Y837D01*
X1226Y839D01*
X1232Y839D01*
X1232Y841D01*
X1240Y841D01*
X1240Y843D01*
X1156Y843D01*
G37*
D02*
G36*
X1256Y843D02*
X1256Y841D01*
X1264Y841D01*
X1264Y839D01*
X1270Y839D01*
X1270Y837D01*
X1274Y837D01*
X1274Y835D01*
X1276Y835D01*
X1276Y833D01*
X1280Y833D01*
X1280Y831D01*
X1282Y831D01*
X1282Y829D01*
X1284Y829D01*
X1284Y827D01*
X1286Y827D01*
X1286Y825D01*
X1288Y825D01*
X1288Y823D01*
X1308Y823D01*
X1308Y825D01*
X1310Y825D01*
X1310Y827D01*
X1312Y827D01*
X1312Y829D01*
X1314Y829D01*
X1314Y831D01*
X1316Y831D01*
X1316Y833D01*
X1318Y833D01*
X1318Y835D01*
X1322Y835D01*
X1322Y837D01*
X1326Y837D01*
X1326Y839D01*
X1332Y839D01*
X1332Y841D01*
X1340Y841D01*
X1340Y843D01*
X1256Y843D01*
G37*
D02*
G36*
X1356Y843D02*
X1356Y841D01*
X1364Y841D01*
X1364Y839D01*
X1370Y839D01*
X1370Y837D01*
X1374Y837D01*
X1374Y835D01*
X1376Y835D01*
X1376Y833D01*
X1380Y833D01*
X1380Y831D01*
X1382Y831D01*
X1382Y829D01*
X1384Y829D01*
X1384Y827D01*
X1386Y827D01*
X1386Y825D01*
X1388Y825D01*
X1388Y823D01*
X1408Y823D01*
X1408Y825D01*
X1410Y825D01*
X1410Y827D01*
X1412Y827D01*
X1412Y829D01*
X1414Y829D01*
X1414Y831D01*
X1416Y831D01*
X1416Y833D01*
X1418Y833D01*
X1418Y835D01*
X1422Y835D01*
X1422Y837D01*
X1426Y837D01*
X1426Y839D01*
X1432Y839D01*
X1432Y841D01*
X1440Y841D01*
X1440Y843D01*
X1356Y843D01*
G37*
D02*
G36*
X1456Y843D02*
X1456Y841D01*
X1464Y841D01*
X1464Y839D01*
X1470Y839D01*
X1470Y837D01*
X1474Y837D01*
X1474Y835D01*
X1476Y835D01*
X1476Y833D01*
X1480Y833D01*
X1480Y831D01*
X1482Y831D01*
X1482Y829D01*
X1484Y829D01*
X1484Y827D01*
X1486Y827D01*
X1486Y825D01*
X1488Y825D01*
X1488Y823D01*
X1508Y823D01*
X1508Y825D01*
X1510Y825D01*
X1510Y827D01*
X1512Y827D01*
X1512Y829D01*
X1514Y829D01*
X1514Y831D01*
X1516Y831D01*
X1516Y833D01*
X1518Y833D01*
X1518Y835D01*
X1522Y835D01*
X1522Y837D01*
X1526Y837D01*
X1526Y839D01*
X1532Y839D01*
X1532Y841D01*
X1540Y841D01*
X1540Y843D01*
X1456Y843D01*
G37*
D02*
G36*
X1556Y843D02*
X1556Y841D01*
X1564Y841D01*
X1564Y839D01*
X1570Y839D01*
X1570Y837D01*
X1574Y837D01*
X1574Y835D01*
X1576Y835D01*
X1576Y833D01*
X1580Y833D01*
X1580Y831D01*
X1582Y831D01*
X1582Y829D01*
X1584Y829D01*
X1584Y827D01*
X1586Y827D01*
X1586Y825D01*
X1588Y825D01*
X1588Y823D01*
X1608Y823D01*
X1608Y825D01*
X1610Y825D01*
X1610Y827D01*
X1612Y827D01*
X1612Y829D01*
X1614Y829D01*
X1614Y831D01*
X1616Y831D01*
X1616Y833D01*
X1618Y833D01*
X1618Y835D01*
X1622Y835D01*
X1622Y837D01*
X1626Y837D01*
X1626Y839D01*
X1632Y839D01*
X1632Y841D01*
X1640Y841D01*
X1640Y843D01*
X1556Y843D01*
G37*
D02*
G36*
X588Y753D02*
X588Y751D01*
X586Y751D01*
X586Y749D01*
X582Y749D01*
X582Y747D01*
X580Y747D01*
X580Y745D01*
X578Y745D01*
X578Y743D01*
X574Y743D01*
X574Y741D01*
X570Y741D01*
X570Y739D01*
X566Y739D01*
X566Y737D01*
X560Y737D01*
X560Y735D01*
X636Y735D01*
X636Y737D01*
X630Y737D01*
X630Y739D01*
X626Y739D01*
X626Y741D01*
X622Y741D01*
X622Y743D01*
X618Y743D01*
X618Y745D01*
X616Y745D01*
X616Y747D01*
X612Y747D01*
X612Y749D01*
X610Y749D01*
X610Y751D01*
X608Y751D01*
X608Y753D01*
X588Y753D01*
G37*
D02*
G36*
X688Y753D02*
X688Y751D01*
X686Y751D01*
X686Y749D01*
X682Y749D01*
X682Y747D01*
X680Y747D01*
X680Y745D01*
X678Y745D01*
X678Y743D01*
X674Y743D01*
X674Y741D01*
X670Y741D01*
X670Y739D01*
X666Y739D01*
X666Y737D01*
X660Y737D01*
X660Y735D01*
X736Y735D01*
X736Y737D01*
X730Y737D01*
X730Y739D01*
X726Y739D01*
X726Y741D01*
X722Y741D01*
X722Y743D01*
X718Y743D01*
X718Y745D01*
X716Y745D01*
X716Y747D01*
X712Y747D01*
X712Y749D01*
X710Y749D01*
X710Y751D01*
X708Y751D01*
X708Y753D01*
X688Y753D01*
G37*
D02*
G36*
X788Y753D02*
X788Y751D01*
X786Y751D01*
X786Y749D01*
X782Y749D01*
X782Y747D01*
X780Y747D01*
X780Y745D01*
X778Y745D01*
X778Y743D01*
X774Y743D01*
X774Y741D01*
X770Y741D01*
X770Y739D01*
X766Y739D01*
X766Y737D01*
X760Y737D01*
X760Y735D01*
X836Y735D01*
X836Y737D01*
X830Y737D01*
X830Y739D01*
X826Y739D01*
X826Y741D01*
X822Y741D01*
X822Y743D01*
X818Y743D01*
X818Y745D01*
X816Y745D01*
X816Y747D01*
X812Y747D01*
X812Y749D01*
X810Y749D01*
X810Y751D01*
X808Y751D01*
X808Y753D01*
X788Y753D01*
G37*
D02*
G36*
X888Y753D02*
X888Y751D01*
X886Y751D01*
X886Y749D01*
X882Y749D01*
X882Y747D01*
X880Y747D01*
X880Y745D01*
X878Y745D01*
X878Y743D01*
X874Y743D01*
X874Y741D01*
X870Y741D01*
X870Y739D01*
X866Y739D01*
X866Y737D01*
X860Y737D01*
X860Y735D01*
X936Y735D01*
X936Y737D01*
X930Y737D01*
X930Y739D01*
X926Y739D01*
X926Y741D01*
X922Y741D01*
X922Y743D01*
X918Y743D01*
X918Y745D01*
X916Y745D01*
X916Y747D01*
X912Y747D01*
X912Y749D01*
X910Y749D01*
X910Y751D01*
X908Y751D01*
X908Y753D01*
X888Y753D01*
G37*
D02*
G36*
X988Y753D02*
X988Y751D01*
X986Y751D01*
X986Y749D01*
X982Y749D01*
X982Y747D01*
X980Y747D01*
X980Y745D01*
X978Y745D01*
X978Y743D01*
X974Y743D01*
X974Y741D01*
X970Y741D01*
X970Y739D01*
X966Y739D01*
X966Y737D01*
X960Y737D01*
X960Y735D01*
X1036Y735D01*
X1036Y737D01*
X1030Y737D01*
X1030Y739D01*
X1026Y739D01*
X1026Y741D01*
X1022Y741D01*
X1022Y743D01*
X1018Y743D01*
X1018Y745D01*
X1016Y745D01*
X1016Y747D01*
X1012Y747D01*
X1012Y749D01*
X1010Y749D01*
X1010Y751D01*
X1008Y751D01*
X1008Y753D01*
X988Y753D01*
G37*
D02*
G36*
X1088Y753D02*
X1088Y751D01*
X1086Y751D01*
X1086Y749D01*
X1082Y749D01*
X1082Y747D01*
X1080Y747D01*
X1080Y745D01*
X1078Y745D01*
X1078Y743D01*
X1074Y743D01*
X1074Y741D01*
X1070Y741D01*
X1070Y739D01*
X1066Y739D01*
X1066Y737D01*
X1060Y737D01*
X1060Y735D01*
X1136Y735D01*
X1136Y737D01*
X1130Y737D01*
X1130Y739D01*
X1126Y739D01*
X1126Y741D01*
X1122Y741D01*
X1122Y743D01*
X1118Y743D01*
X1118Y745D01*
X1116Y745D01*
X1116Y747D01*
X1112Y747D01*
X1112Y749D01*
X1110Y749D01*
X1110Y751D01*
X1108Y751D01*
X1108Y753D01*
X1088Y753D01*
G37*
D02*
G36*
X1188Y753D02*
X1188Y751D01*
X1186Y751D01*
X1186Y749D01*
X1182Y749D01*
X1182Y747D01*
X1180Y747D01*
X1180Y745D01*
X1178Y745D01*
X1178Y743D01*
X1174Y743D01*
X1174Y741D01*
X1170Y741D01*
X1170Y739D01*
X1166Y739D01*
X1166Y737D01*
X1160Y737D01*
X1160Y735D01*
X1236Y735D01*
X1236Y737D01*
X1230Y737D01*
X1230Y739D01*
X1226Y739D01*
X1226Y741D01*
X1222Y741D01*
X1222Y743D01*
X1218Y743D01*
X1218Y745D01*
X1216Y745D01*
X1216Y747D01*
X1212Y747D01*
X1212Y749D01*
X1210Y749D01*
X1210Y751D01*
X1208Y751D01*
X1208Y753D01*
X1188Y753D01*
G37*
D02*
G36*
X1288Y753D02*
X1288Y751D01*
X1286Y751D01*
X1286Y749D01*
X1282Y749D01*
X1282Y747D01*
X1280Y747D01*
X1280Y745D01*
X1278Y745D01*
X1278Y743D01*
X1274Y743D01*
X1274Y741D01*
X1270Y741D01*
X1270Y739D01*
X1266Y739D01*
X1266Y737D01*
X1260Y737D01*
X1260Y735D01*
X1336Y735D01*
X1336Y737D01*
X1330Y737D01*
X1330Y739D01*
X1326Y739D01*
X1326Y741D01*
X1322Y741D01*
X1322Y743D01*
X1318Y743D01*
X1318Y745D01*
X1316Y745D01*
X1316Y747D01*
X1312Y747D01*
X1312Y749D01*
X1310Y749D01*
X1310Y751D01*
X1308Y751D01*
X1308Y753D01*
X1288Y753D01*
G37*
D02*
G36*
X1388Y753D02*
X1388Y751D01*
X1386Y751D01*
X1386Y749D01*
X1382Y749D01*
X1382Y747D01*
X1380Y747D01*
X1380Y745D01*
X1378Y745D01*
X1378Y743D01*
X1374Y743D01*
X1374Y741D01*
X1370Y741D01*
X1370Y739D01*
X1366Y739D01*
X1366Y737D01*
X1360Y737D01*
X1360Y735D01*
X1436Y735D01*
X1436Y737D01*
X1430Y737D01*
X1430Y739D01*
X1426Y739D01*
X1426Y741D01*
X1422Y741D01*
X1422Y743D01*
X1418Y743D01*
X1418Y745D01*
X1416Y745D01*
X1416Y747D01*
X1412Y747D01*
X1412Y749D01*
X1410Y749D01*
X1410Y751D01*
X1408Y751D01*
X1408Y753D01*
X1388Y753D01*
G37*
D02*
G36*
X1488Y753D02*
X1488Y751D01*
X1486Y751D01*
X1486Y749D01*
X1482Y749D01*
X1482Y747D01*
X1480Y747D01*
X1480Y745D01*
X1478Y745D01*
X1478Y743D01*
X1474Y743D01*
X1474Y741D01*
X1470Y741D01*
X1470Y739D01*
X1466Y739D01*
X1466Y737D01*
X1460Y737D01*
X1460Y735D01*
X1536Y735D01*
X1536Y737D01*
X1530Y737D01*
X1530Y739D01*
X1526Y739D01*
X1526Y741D01*
X1522Y741D01*
X1522Y743D01*
X1518Y743D01*
X1518Y745D01*
X1516Y745D01*
X1516Y747D01*
X1512Y747D01*
X1512Y749D01*
X1510Y749D01*
X1510Y751D01*
X1508Y751D01*
X1508Y753D01*
X1488Y753D01*
G37*
D02*
G36*
X1588Y753D02*
X1588Y751D01*
X1586Y751D01*
X1586Y749D01*
X1582Y749D01*
X1582Y747D01*
X1580Y747D01*
X1580Y745D01*
X1578Y745D01*
X1578Y743D01*
X1574Y743D01*
X1574Y741D01*
X1570Y741D01*
X1570Y739D01*
X1566Y739D01*
X1566Y737D01*
X1560Y737D01*
X1560Y735D01*
X1636Y735D01*
X1636Y737D01*
X1630Y737D01*
X1630Y739D01*
X1626Y739D01*
X1626Y741D01*
X1622Y741D01*
X1622Y743D01*
X1618Y743D01*
X1618Y745D01*
X1616Y745D01*
X1616Y747D01*
X1612Y747D01*
X1612Y749D01*
X1610Y749D01*
X1610Y751D01*
X1608Y751D01*
X1608Y753D01*
X1588Y753D01*
G37*
D02*
G36*
X282Y735D02*
X282Y733D01*
X2090Y733D01*
X2090Y735D01*
X282Y735D01*
G37*
D02*
G36*
X282Y735D02*
X282Y733D01*
X2090Y733D01*
X2090Y735D01*
X282Y735D01*
G37*
D02*
G36*
X282Y735D02*
X282Y733D01*
X2090Y733D01*
X2090Y735D01*
X282Y735D01*
G37*
D02*
G36*
X282Y735D02*
X282Y733D01*
X2090Y733D01*
X2090Y735D01*
X282Y735D01*
G37*
D02*
G36*
X282Y735D02*
X282Y733D01*
X2090Y733D01*
X2090Y735D01*
X282Y735D01*
G37*
D02*
G36*
X282Y735D02*
X282Y733D01*
X2090Y733D01*
X2090Y735D01*
X282Y735D01*
G37*
D02*
G36*
X282Y735D02*
X282Y733D01*
X2090Y733D01*
X2090Y735D01*
X282Y735D01*
G37*
D02*
G36*
X282Y735D02*
X282Y733D01*
X2090Y733D01*
X2090Y735D01*
X282Y735D01*
G37*
D02*
G36*
X282Y735D02*
X282Y733D01*
X2090Y733D01*
X2090Y735D01*
X282Y735D01*
G37*
D02*
G36*
X282Y735D02*
X282Y733D01*
X2090Y733D01*
X2090Y735D01*
X282Y735D01*
G37*
D02*
G36*
X282Y735D02*
X282Y733D01*
X2090Y733D01*
X2090Y735D01*
X282Y735D01*
G37*
D02*
G36*
X282Y735D02*
X282Y733D01*
X2090Y733D01*
X2090Y735D01*
X282Y735D01*
G37*
D02*
G36*
X282Y735D02*
X282Y733D01*
X2090Y733D01*
X2090Y735D01*
X282Y735D01*
G37*
D02*
G36*
X282Y733D02*
X282Y729D01*
X284Y729D01*
X284Y727D01*
X286Y727D01*
X286Y725D01*
X288Y725D01*
X288Y723D01*
X290Y723D01*
X290Y721D01*
X292Y721D01*
X292Y719D01*
X294Y719D01*
X294Y715D01*
X296Y715D01*
X296Y711D01*
X298Y711D01*
X298Y705D01*
X300Y705D01*
X300Y697D01*
X302Y697D01*
X302Y679D01*
X300Y679D01*
X300Y671D01*
X298Y671D01*
X298Y667D01*
X296Y667D01*
X296Y663D01*
X294Y663D01*
X294Y659D01*
X292Y659D01*
X292Y657D01*
X290Y657D01*
X290Y655D01*
X288Y655D01*
X288Y651D01*
X286Y651D01*
X286Y649D01*
X282Y649D01*
X282Y629D01*
X284Y629D01*
X284Y627D01*
X286Y627D01*
X286Y625D01*
X288Y625D01*
X288Y623D01*
X290Y623D01*
X290Y621D01*
X292Y621D01*
X292Y619D01*
X294Y619D01*
X294Y615D01*
X296Y615D01*
X296Y611D01*
X298Y611D01*
X298Y605D01*
X300Y605D01*
X300Y597D01*
X302Y597D01*
X302Y579D01*
X300Y579D01*
X300Y571D01*
X298Y571D01*
X298Y567D01*
X1960Y567D01*
X1960Y565D01*
X1968Y565D01*
X1968Y563D01*
X1972Y563D01*
X1972Y561D01*
X1976Y561D01*
X1976Y559D01*
X1978Y559D01*
X1978Y557D01*
X1982Y557D01*
X1982Y555D01*
X1984Y555D01*
X1984Y553D01*
X1986Y553D01*
X1986Y551D01*
X1988Y551D01*
X1988Y549D01*
X1990Y549D01*
X1990Y545D01*
X1992Y545D01*
X1992Y543D01*
X1994Y543D01*
X1994Y539D01*
X1996Y539D01*
X1996Y535D01*
X1998Y535D01*
X1998Y531D01*
X2000Y531D01*
X2000Y523D01*
X2002Y523D01*
X2002Y505D01*
X2000Y505D01*
X2000Y497D01*
X1998Y497D01*
X1998Y491D01*
X1996Y491D01*
X1996Y487D01*
X1994Y487D01*
X1994Y485D01*
X1992Y485D01*
X1992Y481D01*
X1990Y481D01*
X1990Y479D01*
X1988Y479D01*
X1988Y477D01*
X1986Y477D01*
X1986Y475D01*
X1984Y475D01*
X1984Y473D01*
X1982Y473D01*
X1982Y471D01*
X1980Y471D01*
X1980Y469D01*
X1976Y469D01*
X1976Y467D01*
X1972Y467D01*
X1972Y465D01*
X1968Y465D01*
X1968Y463D01*
X1964Y463D01*
X1964Y461D01*
X1952Y461D01*
X1952Y459D01*
X2090Y459D01*
X2090Y733D01*
X282Y733D01*
G37*
D02*
G36*
X296Y567D02*
X296Y563D01*
X294Y563D01*
X294Y559D01*
X292Y559D01*
X292Y557D01*
X290Y557D01*
X290Y555D01*
X288Y555D01*
X288Y551D01*
X286Y551D01*
X286Y549D01*
X1132Y549D01*
X1132Y547D01*
X1138Y547D01*
X1138Y545D01*
X1142Y545D01*
X1142Y543D01*
X1146Y543D01*
X1146Y541D01*
X1150Y541D01*
X1150Y539D01*
X1152Y539D01*
X1152Y537D01*
X1154Y537D01*
X1154Y535D01*
X1156Y535D01*
X1156Y533D01*
X1158Y533D01*
X1158Y531D01*
X1160Y531D01*
X1160Y529D01*
X1162Y529D01*
X1162Y525D01*
X1164Y525D01*
X1164Y521D01*
X1166Y521D01*
X1166Y515D01*
X1168Y515D01*
X1168Y507D01*
X1170Y507D01*
X1170Y495D01*
X1168Y495D01*
X1168Y487D01*
X1166Y487D01*
X1166Y481D01*
X1164Y481D01*
X1164Y479D01*
X1162Y479D01*
X1162Y475D01*
X1160Y475D01*
X1160Y473D01*
X1158Y473D01*
X1158Y469D01*
X1156Y469D01*
X1156Y467D01*
X1154Y467D01*
X1154Y465D01*
X1150Y465D01*
X1150Y463D01*
X1148Y463D01*
X1148Y461D01*
X1144Y461D01*
X1144Y459D01*
X1844Y459D01*
X1844Y461D01*
X1832Y461D01*
X1832Y463D01*
X1826Y463D01*
X1826Y465D01*
X1824Y465D01*
X1824Y467D01*
X1820Y467D01*
X1820Y469D01*
X1816Y469D01*
X1816Y471D01*
X1814Y471D01*
X1814Y473D01*
X1812Y473D01*
X1812Y475D01*
X1810Y475D01*
X1810Y477D01*
X1808Y477D01*
X1808Y479D01*
X1806Y479D01*
X1806Y481D01*
X1804Y481D01*
X1804Y485D01*
X1802Y485D01*
X1802Y487D01*
X1800Y487D01*
X1800Y491D01*
X1798Y491D01*
X1798Y495D01*
X1796Y495D01*
X1796Y503D01*
X1794Y503D01*
X1794Y523D01*
X1796Y523D01*
X1796Y531D01*
X1798Y531D01*
X1798Y537D01*
X1800Y537D01*
X1800Y539D01*
X1802Y539D01*
X1802Y543D01*
X1804Y543D01*
X1804Y547D01*
X1806Y547D01*
X1806Y549D01*
X1808Y549D01*
X1808Y551D01*
X1810Y551D01*
X1810Y553D01*
X1812Y553D01*
X1812Y555D01*
X1814Y555D01*
X1814Y557D01*
X1818Y557D01*
X1818Y559D01*
X1820Y559D01*
X1820Y561D01*
X1824Y561D01*
X1824Y563D01*
X1828Y563D01*
X1828Y565D01*
X1836Y565D01*
X1836Y567D01*
X296Y567D01*
G37*
D02*
G36*
X1860Y567D02*
X1860Y565D01*
X1868Y565D01*
X1868Y563D01*
X1872Y563D01*
X1872Y561D01*
X1876Y561D01*
X1876Y559D01*
X1878Y559D01*
X1878Y557D01*
X1882Y557D01*
X1882Y555D01*
X1884Y555D01*
X1884Y553D01*
X1886Y553D01*
X1886Y551D01*
X1888Y551D01*
X1888Y549D01*
X1908Y549D01*
X1908Y551D01*
X1910Y551D01*
X1910Y553D01*
X1912Y553D01*
X1912Y555D01*
X1914Y555D01*
X1914Y557D01*
X1918Y557D01*
X1918Y559D01*
X1920Y559D01*
X1920Y561D01*
X1924Y561D01*
X1924Y563D01*
X1928Y563D01*
X1928Y565D01*
X1936Y565D01*
X1936Y567D01*
X1860Y567D01*
G37*
D02*
G36*
X174Y561D02*
X174Y535D01*
X236Y535D01*
X236Y537D01*
X230Y537D01*
X230Y539D01*
X226Y539D01*
X226Y541D01*
X222Y541D01*
X222Y543D01*
X218Y543D01*
X218Y545D01*
X216Y545D01*
X216Y547D01*
X212Y547D01*
X212Y549D01*
X210Y549D01*
X210Y551D01*
X208Y551D01*
X208Y553D01*
X206Y553D01*
X206Y557D01*
X204Y557D01*
X204Y559D01*
X202Y559D01*
X202Y561D01*
X174Y561D01*
G37*
D02*
G36*
X282Y549D02*
X282Y547D01*
X280Y547D01*
X280Y545D01*
X278Y545D01*
X278Y543D01*
X274Y543D01*
X274Y541D01*
X270Y541D01*
X270Y539D01*
X266Y539D01*
X266Y537D01*
X260Y537D01*
X260Y535D01*
X854Y535D01*
X854Y537D01*
X856Y537D01*
X856Y539D01*
X858Y539D01*
X858Y541D01*
X862Y541D01*
X862Y543D01*
X866Y543D01*
X866Y545D01*
X870Y545D01*
X870Y547D01*
X876Y547D01*
X876Y549D01*
X282Y549D01*
G37*
D02*
G36*
X894Y549D02*
X894Y547D01*
X902Y547D01*
X902Y545D01*
X906Y545D01*
X906Y543D01*
X910Y543D01*
X910Y541D01*
X914Y541D01*
X914Y539D01*
X938Y539D01*
X938Y541D01*
X940Y541D01*
X940Y543D01*
X944Y543D01*
X944Y545D01*
X948Y545D01*
X948Y547D01*
X956Y547D01*
X956Y549D01*
X894Y549D01*
G37*
D02*
G36*
X974Y549D02*
X974Y547D01*
X980Y547D01*
X980Y545D01*
X986Y545D01*
X986Y543D01*
X988Y543D01*
X988Y541D01*
X992Y541D01*
X992Y539D01*
X994Y539D01*
X994Y537D01*
X1014Y537D01*
X1014Y539D01*
X1016Y539D01*
X1016Y541D01*
X1018Y541D01*
X1018Y543D01*
X1022Y543D01*
X1022Y545D01*
X1028Y545D01*
X1028Y547D01*
X1034Y547D01*
X1034Y549D01*
X974Y549D01*
G37*
D02*
G36*
X1052Y549D02*
X1052Y547D01*
X1060Y547D01*
X1060Y545D01*
X1064Y545D01*
X1064Y543D01*
X1068Y543D01*
X1068Y541D01*
X1070Y541D01*
X1070Y539D01*
X1094Y539D01*
X1094Y541D01*
X1098Y541D01*
X1098Y543D01*
X1102Y543D01*
X1102Y545D01*
X1106Y545D01*
X1106Y547D01*
X1112Y547D01*
X1112Y549D01*
X1052Y549D01*
G37*
D02*
G36*
X174Y535D02*
X174Y533D01*
X852Y533D01*
X852Y535D01*
X174Y535D01*
G37*
D02*
G36*
X174Y535D02*
X174Y533D01*
X852Y533D01*
X852Y535D01*
X174Y535D01*
G37*
D02*
G36*
X174Y533D02*
X174Y455D01*
X874Y455D01*
X874Y457D01*
X866Y457D01*
X866Y459D01*
X864Y459D01*
X864Y461D01*
X860Y461D01*
X860Y463D01*
X858Y463D01*
X858Y465D01*
X854Y465D01*
X854Y467D01*
X852Y467D01*
X852Y469D01*
X850Y469D01*
X850Y471D01*
X848Y471D01*
X848Y475D01*
X846Y475D01*
X846Y477D01*
X844Y477D01*
X844Y481D01*
X842Y481D01*
X842Y487D01*
X840Y487D01*
X840Y495D01*
X838Y495D01*
X838Y509D01*
X840Y509D01*
X840Y517D01*
X842Y517D01*
X842Y521D01*
X844Y521D01*
X844Y525D01*
X846Y525D01*
X846Y529D01*
X848Y529D01*
X848Y531D01*
X850Y531D01*
X850Y533D01*
X174Y533D01*
G37*
D02*
G36*
X1888Y479D02*
X1888Y477D01*
X1886Y477D01*
X1886Y475D01*
X1884Y475D01*
X1884Y473D01*
X1882Y473D01*
X1882Y471D01*
X1880Y471D01*
X1880Y469D01*
X1876Y469D01*
X1876Y467D01*
X1872Y467D01*
X1872Y465D01*
X1868Y465D01*
X1868Y463D01*
X1864Y463D01*
X1864Y461D01*
X1852Y461D01*
X1852Y459D01*
X1944Y459D01*
X1944Y461D01*
X1932Y461D01*
X1932Y463D01*
X1926Y463D01*
X1926Y465D01*
X1924Y465D01*
X1924Y467D01*
X1920Y467D01*
X1920Y469D01*
X1916Y469D01*
X1916Y471D01*
X1914Y471D01*
X1914Y473D01*
X1912Y473D01*
X1912Y475D01*
X1910Y475D01*
X1910Y477D01*
X1908Y477D01*
X1908Y479D01*
X1888Y479D01*
G37*
D02*
G36*
X914Y465D02*
X914Y463D01*
X912Y463D01*
X912Y461D01*
X908Y461D01*
X908Y459D01*
X904Y459D01*
X904Y457D01*
X898Y457D01*
X898Y455D01*
X952Y455D01*
X952Y457D01*
X946Y457D01*
X946Y459D01*
X942Y459D01*
X942Y461D01*
X938Y461D01*
X938Y463D01*
X936Y463D01*
X936Y465D01*
X914Y465D01*
G37*
D02*
G36*
X994Y465D02*
X994Y463D01*
X990Y463D01*
X990Y461D01*
X988Y461D01*
X988Y459D01*
X984Y459D01*
X984Y457D01*
X978Y457D01*
X978Y455D01*
X1030Y455D01*
X1030Y457D01*
X1024Y457D01*
X1024Y459D01*
X1020Y459D01*
X1020Y461D01*
X1018Y461D01*
X1018Y463D01*
X1014Y463D01*
X1014Y465D01*
X994Y465D01*
G37*
D02*
G36*
X1072Y465D02*
X1072Y463D01*
X1070Y463D01*
X1070Y461D01*
X1066Y461D01*
X1066Y459D01*
X1062Y459D01*
X1062Y457D01*
X1056Y457D01*
X1056Y455D01*
X1110Y455D01*
X1110Y457D01*
X1104Y457D01*
X1104Y459D01*
X1100Y459D01*
X1100Y461D01*
X1096Y461D01*
X1096Y463D01*
X1094Y463D01*
X1094Y465D01*
X1072Y465D01*
G37*
D02*
G36*
X1140Y459D02*
X1140Y457D01*
X2090Y457D01*
X2090Y459D01*
X1140Y459D01*
G37*
D02*
G36*
X1140Y459D02*
X1140Y457D01*
X2090Y457D01*
X2090Y459D01*
X1140Y459D01*
G37*
D02*
G36*
X1140Y459D02*
X1140Y457D01*
X2090Y457D01*
X2090Y459D01*
X1140Y459D01*
G37*
D02*
G36*
X1134Y457D02*
X1134Y455D01*
X2090Y455D01*
X2090Y457D01*
X1134Y457D01*
G37*
D02*
G36*
X174Y455D02*
X174Y453D01*
X2090Y453D01*
X2090Y455D01*
X174Y455D01*
G37*
D02*
G36*
X174Y455D02*
X174Y453D01*
X2090Y453D01*
X2090Y455D01*
X174Y455D01*
G37*
D02*
G36*
X174Y455D02*
X174Y453D01*
X2090Y453D01*
X2090Y455D01*
X174Y455D01*
G37*
D02*
G36*
X174Y455D02*
X174Y453D01*
X2090Y453D01*
X2090Y455D01*
X174Y455D01*
G37*
D02*
G36*
X174Y455D02*
X174Y453D01*
X2090Y453D01*
X2090Y455D01*
X174Y455D01*
G37*
D02*
G36*
X174Y453D02*
X174Y417D01*
X1960Y417D01*
X1960Y415D01*
X1968Y415D01*
X1968Y413D01*
X1972Y413D01*
X1972Y411D01*
X1976Y411D01*
X1976Y409D01*
X1978Y409D01*
X1978Y407D01*
X1982Y407D01*
X1982Y405D01*
X1984Y405D01*
X1984Y403D01*
X1986Y403D01*
X1986Y401D01*
X1988Y401D01*
X1988Y399D01*
X1990Y399D01*
X1990Y395D01*
X1992Y395D01*
X1992Y393D01*
X1994Y393D01*
X1994Y389D01*
X1996Y389D01*
X1996Y385D01*
X1998Y385D01*
X1998Y381D01*
X2000Y381D01*
X2000Y373D01*
X2002Y373D01*
X2002Y355D01*
X2000Y355D01*
X2000Y347D01*
X1998Y347D01*
X1998Y341D01*
X1996Y341D01*
X1996Y337D01*
X1994Y337D01*
X1994Y335D01*
X1992Y335D01*
X1992Y331D01*
X1990Y331D01*
X1990Y329D01*
X1988Y329D01*
X1988Y327D01*
X1986Y327D01*
X1986Y325D01*
X1984Y325D01*
X1984Y323D01*
X1982Y323D01*
X1982Y321D01*
X1980Y321D01*
X1980Y319D01*
X1976Y319D01*
X1976Y317D01*
X1972Y317D01*
X1972Y315D01*
X1968Y315D01*
X1968Y313D01*
X1964Y313D01*
X1964Y311D01*
X1952Y311D01*
X1952Y309D01*
X2090Y309D01*
X2090Y453D01*
X174Y453D01*
G37*
D02*
G36*
X174Y417D02*
X174Y309D01*
X1844Y309D01*
X1844Y311D01*
X1832Y311D01*
X1832Y313D01*
X1826Y313D01*
X1826Y315D01*
X1824Y315D01*
X1824Y317D01*
X1820Y317D01*
X1820Y319D01*
X1816Y319D01*
X1816Y321D01*
X1814Y321D01*
X1814Y323D01*
X1812Y323D01*
X1812Y325D01*
X1810Y325D01*
X1810Y327D01*
X1808Y327D01*
X1808Y329D01*
X1806Y329D01*
X1806Y331D01*
X1804Y331D01*
X1804Y335D01*
X1802Y335D01*
X1802Y337D01*
X1800Y337D01*
X1800Y341D01*
X1798Y341D01*
X1798Y345D01*
X1796Y345D01*
X1796Y353D01*
X1794Y353D01*
X1794Y373D01*
X1796Y373D01*
X1796Y381D01*
X1798Y381D01*
X1798Y387D01*
X1800Y387D01*
X1800Y389D01*
X1802Y389D01*
X1802Y393D01*
X1804Y393D01*
X1804Y397D01*
X1806Y397D01*
X1806Y399D01*
X1808Y399D01*
X1808Y401D01*
X1810Y401D01*
X1810Y403D01*
X1812Y403D01*
X1812Y405D01*
X1814Y405D01*
X1814Y407D01*
X1818Y407D01*
X1818Y409D01*
X1820Y409D01*
X1820Y411D01*
X1824Y411D01*
X1824Y413D01*
X1828Y413D01*
X1828Y415D01*
X1836Y415D01*
X1836Y417D01*
X174Y417D01*
G37*
D02*
G36*
X1860Y417D02*
X1860Y415D01*
X1868Y415D01*
X1868Y413D01*
X1872Y413D01*
X1872Y411D01*
X1876Y411D01*
X1876Y409D01*
X1878Y409D01*
X1878Y407D01*
X1882Y407D01*
X1882Y405D01*
X1884Y405D01*
X1884Y403D01*
X1886Y403D01*
X1886Y401D01*
X1888Y401D01*
X1888Y399D01*
X1908Y399D01*
X1908Y401D01*
X1910Y401D01*
X1910Y403D01*
X1912Y403D01*
X1912Y405D01*
X1914Y405D01*
X1914Y407D01*
X1918Y407D01*
X1918Y409D01*
X1920Y409D01*
X1920Y411D01*
X1924Y411D01*
X1924Y413D01*
X1928Y413D01*
X1928Y415D01*
X1936Y415D01*
X1936Y417D01*
X1860Y417D01*
G37*
D02*
G36*
X1888Y329D02*
X1888Y327D01*
X1886Y327D01*
X1886Y325D01*
X1884Y325D01*
X1884Y323D01*
X1882Y323D01*
X1882Y321D01*
X1880Y321D01*
X1880Y319D01*
X1876Y319D01*
X1876Y317D01*
X1872Y317D01*
X1872Y315D01*
X1868Y315D01*
X1868Y313D01*
X1864Y313D01*
X1864Y311D01*
X1852Y311D01*
X1852Y309D01*
X1944Y309D01*
X1944Y311D01*
X1932Y311D01*
X1932Y313D01*
X1926Y313D01*
X1926Y315D01*
X1924Y315D01*
X1924Y317D01*
X1920Y317D01*
X1920Y319D01*
X1916Y319D01*
X1916Y321D01*
X1914Y321D01*
X1914Y323D01*
X1912Y323D01*
X1912Y325D01*
X1910Y325D01*
X1910Y327D01*
X1908Y327D01*
X1908Y329D01*
X1888Y329D01*
G37*
D02*
G36*
X174Y309D02*
X174Y307D01*
X2090Y307D01*
X2090Y309D01*
X174Y309D01*
G37*
D02*
G36*
X174Y309D02*
X174Y307D01*
X2090Y307D01*
X2090Y309D01*
X174Y309D01*
G37*
D02*
G36*
X174Y309D02*
X174Y307D01*
X2090Y307D01*
X2090Y309D01*
X174Y309D01*
G37*
D02*
G36*
X174Y307D02*
X174Y241D01*
X2060Y241D01*
X2060Y239D01*
X2066Y239D01*
X2066Y237D01*
X2070Y237D01*
X2070Y235D01*
X2090Y235D01*
X2090Y307D01*
X174Y307D01*
G37*
D02*
G36*
X174Y241D02*
X174Y233D01*
X178Y233D01*
X178Y231D01*
X180Y231D01*
X180Y229D01*
X182Y229D01*
X182Y227D01*
X186Y227D01*
X186Y223D01*
X188Y223D01*
X188Y221D01*
X208Y221D01*
X208Y223D01*
X210Y223D01*
X210Y227D01*
X214Y227D01*
X214Y229D01*
X216Y229D01*
X216Y231D01*
X218Y231D01*
X218Y233D01*
X222Y233D01*
X222Y235D01*
X226Y235D01*
X226Y237D01*
X230Y237D01*
X230Y239D01*
X236Y239D01*
X236Y241D01*
X174Y241D01*
G37*
D02*
G36*
X260Y241D02*
X260Y239D01*
X266Y239D01*
X266Y237D01*
X270Y237D01*
X270Y235D01*
X274Y235D01*
X274Y233D01*
X278Y233D01*
X278Y231D01*
X280Y231D01*
X280Y229D01*
X282Y229D01*
X282Y227D01*
X286Y227D01*
X286Y223D01*
X288Y223D01*
X288Y221D01*
X308Y221D01*
X308Y223D01*
X310Y223D01*
X310Y227D01*
X314Y227D01*
X314Y229D01*
X316Y229D01*
X316Y231D01*
X318Y231D01*
X318Y233D01*
X322Y233D01*
X322Y235D01*
X326Y235D01*
X326Y237D01*
X330Y237D01*
X330Y239D01*
X336Y239D01*
X336Y241D01*
X260Y241D01*
G37*
D02*
G36*
X360Y241D02*
X360Y239D01*
X366Y239D01*
X366Y237D01*
X370Y237D01*
X370Y235D01*
X374Y235D01*
X374Y233D01*
X378Y233D01*
X378Y231D01*
X380Y231D01*
X380Y229D01*
X382Y229D01*
X382Y227D01*
X386Y227D01*
X386Y223D01*
X388Y223D01*
X388Y221D01*
X408Y221D01*
X408Y223D01*
X410Y223D01*
X410Y227D01*
X414Y227D01*
X414Y229D01*
X416Y229D01*
X416Y231D01*
X418Y231D01*
X418Y233D01*
X422Y233D01*
X422Y235D01*
X426Y235D01*
X426Y237D01*
X430Y237D01*
X430Y239D01*
X436Y239D01*
X436Y241D01*
X360Y241D01*
G37*
D02*
G36*
X460Y241D02*
X460Y239D01*
X466Y239D01*
X466Y237D01*
X470Y237D01*
X470Y235D01*
X474Y235D01*
X474Y233D01*
X478Y233D01*
X478Y231D01*
X480Y231D01*
X480Y229D01*
X482Y229D01*
X482Y227D01*
X486Y227D01*
X486Y223D01*
X488Y223D01*
X488Y221D01*
X508Y221D01*
X508Y223D01*
X510Y223D01*
X510Y227D01*
X514Y227D01*
X514Y229D01*
X516Y229D01*
X516Y231D01*
X518Y231D01*
X518Y233D01*
X522Y233D01*
X522Y235D01*
X526Y235D01*
X526Y237D01*
X530Y237D01*
X530Y239D01*
X536Y239D01*
X536Y241D01*
X460Y241D01*
G37*
D02*
G36*
X560Y241D02*
X560Y239D01*
X566Y239D01*
X566Y237D01*
X570Y237D01*
X570Y235D01*
X574Y235D01*
X574Y233D01*
X578Y233D01*
X578Y231D01*
X580Y231D01*
X580Y229D01*
X582Y229D01*
X582Y227D01*
X586Y227D01*
X586Y223D01*
X588Y223D01*
X588Y221D01*
X608Y221D01*
X608Y223D01*
X610Y223D01*
X610Y227D01*
X614Y227D01*
X614Y229D01*
X616Y229D01*
X616Y231D01*
X618Y231D01*
X618Y233D01*
X622Y233D01*
X622Y235D01*
X626Y235D01*
X626Y237D01*
X630Y237D01*
X630Y239D01*
X636Y239D01*
X636Y241D01*
X560Y241D01*
G37*
D02*
G36*
X660Y241D02*
X660Y239D01*
X666Y239D01*
X666Y237D01*
X670Y237D01*
X670Y235D01*
X674Y235D01*
X674Y233D01*
X678Y233D01*
X678Y231D01*
X680Y231D01*
X680Y229D01*
X682Y229D01*
X682Y227D01*
X686Y227D01*
X686Y223D01*
X688Y223D01*
X688Y221D01*
X708Y221D01*
X708Y223D01*
X710Y223D01*
X710Y227D01*
X714Y227D01*
X714Y229D01*
X716Y229D01*
X716Y231D01*
X718Y231D01*
X718Y233D01*
X722Y233D01*
X722Y235D01*
X726Y235D01*
X726Y237D01*
X730Y237D01*
X730Y239D01*
X736Y239D01*
X736Y241D01*
X660Y241D01*
G37*
D02*
G36*
X760Y241D02*
X760Y239D01*
X766Y239D01*
X766Y237D01*
X770Y237D01*
X770Y235D01*
X774Y235D01*
X774Y233D01*
X778Y233D01*
X778Y231D01*
X780Y231D01*
X780Y229D01*
X782Y229D01*
X782Y227D01*
X786Y227D01*
X786Y223D01*
X788Y223D01*
X788Y221D01*
X808Y221D01*
X808Y223D01*
X810Y223D01*
X810Y227D01*
X814Y227D01*
X814Y229D01*
X816Y229D01*
X816Y231D01*
X818Y231D01*
X818Y233D01*
X822Y233D01*
X822Y235D01*
X826Y235D01*
X826Y237D01*
X830Y237D01*
X830Y239D01*
X836Y239D01*
X836Y241D01*
X760Y241D01*
G37*
D02*
G36*
X860Y241D02*
X860Y239D01*
X866Y239D01*
X866Y237D01*
X870Y237D01*
X870Y235D01*
X874Y235D01*
X874Y233D01*
X878Y233D01*
X878Y231D01*
X880Y231D01*
X880Y229D01*
X882Y229D01*
X882Y227D01*
X886Y227D01*
X886Y223D01*
X888Y223D01*
X888Y221D01*
X908Y221D01*
X908Y223D01*
X910Y223D01*
X910Y227D01*
X914Y227D01*
X914Y229D01*
X916Y229D01*
X916Y231D01*
X918Y231D01*
X918Y233D01*
X922Y233D01*
X922Y235D01*
X926Y235D01*
X926Y237D01*
X930Y237D01*
X930Y239D01*
X936Y239D01*
X936Y241D01*
X860Y241D01*
G37*
D02*
G36*
X960Y241D02*
X960Y239D01*
X966Y239D01*
X966Y237D01*
X970Y237D01*
X970Y235D01*
X974Y235D01*
X974Y233D01*
X978Y233D01*
X978Y231D01*
X980Y231D01*
X980Y229D01*
X982Y229D01*
X982Y227D01*
X986Y227D01*
X986Y223D01*
X988Y223D01*
X988Y221D01*
X1008Y221D01*
X1008Y223D01*
X1010Y223D01*
X1010Y227D01*
X1014Y227D01*
X1014Y229D01*
X1016Y229D01*
X1016Y231D01*
X1018Y231D01*
X1018Y233D01*
X1022Y233D01*
X1022Y235D01*
X1026Y235D01*
X1026Y237D01*
X1030Y237D01*
X1030Y239D01*
X1036Y239D01*
X1036Y241D01*
X960Y241D01*
G37*
D02*
G36*
X1060Y241D02*
X1060Y239D01*
X1066Y239D01*
X1066Y237D01*
X1070Y237D01*
X1070Y235D01*
X1074Y235D01*
X1074Y233D01*
X1078Y233D01*
X1078Y231D01*
X1080Y231D01*
X1080Y229D01*
X1082Y229D01*
X1082Y227D01*
X1086Y227D01*
X1086Y223D01*
X1088Y223D01*
X1088Y221D01*
X1108Y221D01*
X1108Y223D01*
X1110Y223D01*
X1110Y227D01*
X1114Y227D01*
X1114Y229D01*
X1116Y229D01*
X1116Y231D01*
X1118Y231D01*
X1118Y233D01*
X1122Y233D01*
X1122Y235D01*
X1126Y235D01*
X1126Y237D01*
X1130Y237D01*
X1130Y239D01*
X1136Y239D01*
X1136Y241D01*
X1060Y241D01*
G37*
D02*
G36*
X1160Y241D02*
X1160Y239D01*
X1166Y239D01*
X1166Y237D01*
X1170Y237D01*
X1170Y235D01*
X1174Y235D01*
X1174Y233D01*
X1178Y233D01*
X1178Y231D01*
X1180Y231D01*
X1180Y229D01*
X1182Y229D01*
X1182Y227D01*
X1186Y227D01*
X1186Y223D01*
X1188Y223D01*
X1188Y221D01*
X1208Y221D01*
X1208Y223D01*
X1210Y223D01*
X1210Y227D01*
X1214Y227D01*
X1214Y229D01*
X1216Y229D01*
X1216Y231D01*
X1218Y231D01*
X1218Y233D01*
X1222Y233D01*
X1222Y235D01*
X1226Y235D01*
X1226Y237D01*
X1230Y237D01*
X1230Y239D01*
X1236Y239D01*
X1236Y241D01*
X1160Y241D01*
G37*
D02*
G36*
X1260Y241D02*
X1260Y239D01*
X1266Y239D01*
X1266Y237D01*
X1270Y237D01*
X1270Y235D01*
X1274Y235D01*
X1274Y233D01*
X1278Y233D01*
X1278Y231D01*
X1280Y231D01*
X1280Y229D01*
X1282Y229D01*
X1282Y227D01*
X1286Y227D01*
X1286Y223D01*
X1288Y223D01*
X1288Y221D01*
X1308Y221D01*
X1308Y223D01*
X1310Y223D01*
X1310Y227D01*
X1314Y227D01*
X1314Y229D01*
X1316Y229D01*
X1316Y231D01*
X1318Y231D01*
X1318Y233D01*
X1322Y233D01*
X1322Y235D01*
X1326Y235D01*
X1326Y237D01*
X1330Y237D01*
X1330Y239D01*
X1336Y239D01*
X1336Y241D01*
X1260Y241D01*
G37*
D02*
G36*
X1360Y241D02*
X1360Y239D01*
X1366Y239D01*
X1366Y237D01*
X1370Y237D01*
X1370Y235D01*
X1374Y235D01*
X1374Y233D01*
X1378Y233D01*
X1378Y231D01*
X1380Y231D01*
X1380Y229D01*
X1382Y229D01*
X1382Y227D01*
X1386Y227D01*
X1386Y223D01*
X1388Y223D01*
X1388Y221D01*
X1408Y221D01*
X1408Y223D01*
X1410Y223D01*
X1410Y227D01*
X1414Y227D01*
X1414Y229D01*
X1416Y229D01*
X1416Y231D01*
X1418Y231D01*
X1418Y233D01*
X1422Y233D01*
X1422Y235D01*
X1426Y235D01*
X1426Y237D01*
X1430Y237D01*
X1430Y239D01*
X1436Y239D01*
X1436Y241D01*
X1360Y241D01*
G37*
D02*
G36*
X1460Y241D02*
X1460Y239D01*
X1466Y239D01*
X1466Y237D01*
X1470Y237D01*
X1470Y235D01*
X1474Y235D01*
X1474Y233D01*
X1478Y233D01*
X1478Y231D01*
X1480Y231D01*
X1480Y229D01*
X1482Y229D01*
X1482Y227D01*
X1486Y227D01*
X1486Y223D01*
X1488Y223D01*
X1488Y221D01*
X1508Y221D01*
X1508Y223D01*
X1510Y223D01*
X1510Y227D01*
X1514Y227D01*
X1514Y229D01*
X1516Y229D01*
X1516Y231D01*
X1518Y231D01*
X1518Y233D01*
X1522Y233D01*
X1522Y235D01*
X1526Y235D01*
X1526Y237D01*
X1530Y237D01*
X1530Y239D01*
X1536Y239D01*
X1536Y241D01*
X1460Y241D01*
G37*
D02*
G36*
X1560Y241D02*
X1560Y239D01*
X1566Y239D01*
X1566Y237D01*
X1570Y237D01*
X1570Y235D01*
X1574Y235D01*
X1574Y233D01*
X1578Y233D01*
X1578Y231D01*
X1580Y231D01*
X1580Y229D01*
X1582Y229D01*
X1582Y227D01*
X1586Y227D01*
X1586Y223D01*
X1588Y223D01*
X1588Y221D01*
X1608Y221D01*
X1608Y223D01*
X1610Y223D01*
X1610Y227D01*
X1614Y227D01*
X1614Y229D01*
X1616Y229D01*
X1616Y231D01*
X1618Y231D01*
X1618Y233D01*
X1622Y233D01*
X1622Y235D01*
X1626Y235D01*
X1626Y237D01*
X1630Y237D01*
X1630Y239D01*
X1636Y239D01*
X1636Y241D01*
X1560Y241D01*
G37*
D02*
G36*
X1660Y241D02*
X1660Y239D01*
X1666Y239D01*
X1666Y237D01*
X1670Y237D01*
X1670Y235D01*
X1674Y235D01*
X1674Y233D01*
X1678Y233D01*
X1678Y231D01*
X1680Y231D01*
X1680Y229D01*
X1682Y229D01*
X1682Y227D01*
X1686Y227D01*
X1686Y223D01*
X1688Y223D01*
X1688Y221D01*
X1708Y221D01*
X1708Y223D01*
X1710Y223D01*
X1710Y227D01*
X1714Y227D01*
X1714Y229D01*
X1716Y229D01*
X1716Y231D01*
X1718Y231D01*
X1718Y233D01*
X1722Y233D01*
X1722Y235D01*
X1726Y235D01*
X1726Y237D01*
X1730Y237D01*
X1730Y239D01*
X1736Y239D01*
X1736Y241D01*
X1660Y241D01*
G37*
D02*
G36*
X1760Y241D02*
X1760Y239D01*
X1766Y239D01*
X1766Y237D01*
X1770Y237D01*
X1770Y235D01*
X1774Y235D01*
X1774Y233D01*
X1778Y233D01*
X1778Y231D01*
X1780Y231D01*
X1780Y229D01*
X1782Y229D01*
X1782Y227D01*
X1786Y227D01*
X1786Y223D01*
X1788Y223D01*
X1788Y221D01*
X1808Y221D01*
X1808Y223D01*
X1810Y223D01*
X1810Y227D01*
X1814Y227D01*
X1814Y229D01*
X1816Y229D01*
X1816Y231D01*
X1818Y231D01*
X1818Y233D01*
X1822Y233D01*
X1822Y235D01*
X1826Y235D01*
X1826Y237D01*
X1830Y237D01*
X1830Y239D01*
X1836Y239D01*
X1836Y241D01*
X1760Y241D01*
G37*
D02*
G36*
X1860Y241D02*
X1860Y239D01*
X1866Y239D01*
X1866Y237D01*
X1870Y237D01*
X1870Y235D01*
X1874Y235D01*
X1874Y233D01*
X1878Y233D01*
X1878Y231D01*
X1880Y231D01*
X1880Y229D01*
X1882Y229D01*
X1882Y227D01*
X1886Y227D01*
X1886Y223D01*
X1888Y223D01*
X1888Y221D01*
X1908Y221D01*
X1908Y223D01*
X1910Y223D01*
X1910Y227D01*
X1914Y227D01*
X1914Y229D01*
X1916Y229D01*
X1916Y231D01*
X1918Y231D01*
X1918Y233D01*
X1922Y233D01*
X1922Y235D01*
X1926Y235D01*
X1926Y237D01*
X1930Y237D01*
X1930Y239D01*
X1936Y239D01*
X1936Y241D01*
X1860Y241D01*
G37*
D02*
G36*
X1960Y241D02*
X1960Y239D01*
X1966Y239D01*
X1966Y237D01*
X1970Y237D01*
X1970Y235D01*
X1974Y235D01*
X1974Y233D01*
X1978Y233D01*
X1978Y231D01*
X1980Y231D01*
X1980Y229D01*
X1982Y229D01*
X1982Y227D01*
X1986Y227D01*
X1986Y223D01*
X1988Y223D01*
X1988Y221D01*
X2008Y221D01*
X2008Y223D01*
X2010Y223D01*
X2010Y227D01*
X2014Y227D01*
X2014Y229D01*
X2016Y229D01*
X2016Y231D01*
X2018Y231D01*
X2018Y233D01*
X2022Y233D01*
X2022Y235D01*
X2026Y235D01*
X2026Y237D01*
X2030Y237D01*
X2030Y239D01*
X2036Y239D01*
X2036Y241D01*
X1960Y241D01*
G37*
D02*
G36*
X190Y814D02*
X226Y814D01*
X226Y769D01*
X190Y769D01*
X190Y814D01*
G37*
D02*
G36*
X264Y814D02*
X302Y814D01*
X302Y769D01*
X264Y769D01*
X264Y814D01*
G37*
D02*
G36*
X723Y1147D02*
X768Y1147D01*
X768Y1109D01*
X723Y1109D01*
X723Y1147D01*
G37*
D02*
G36*
X1024Y245D02*
X1067Y245D01*
X1067Y213D01*
X1024Y213D01*
X1024Y245D01*
G37*
D02*
G36*
X524Y71D02*
X567Y71D01*
X567Y41D01*
X524Y41D01*
X524Y71D01*
G37*
D02*
G36*
X724Y245D02*
X767Y245D01*
X767Y213D01*
X724Y213D01*
X724Y245D01*
G37*
D02*
G36*
X324Y245D02*
X367Y245D01*
X367Y213D01*
X324Y213D01*
X324Y245D01*
G37*
D02*
G36*
X1324Y71D02*
X1367Y71D01*
X1367Y41D01*
X1324Y41D01*
X1324Y71D01*
G37*
D02*
G36*
X2024Y71D02*
X2067Y71D01*
X2067Y41D01*
X2024Y41D01*
X2024Y71D01*
G37*
D02*
G36*
X2066Y113D02*
X2090Y113D01*
X2090Y70D01*
X2066Y70D01*
X2066Y113D01*
G37*
D02*
G36*
X1724Y245D02*
X1767Y245D01*
X1767Y213D01*
X1724Y213D01*
X1724Y245D01*
G37*
D02*
G36*
X1523Y1147D02*
X1568Y1147D01*
X1568Y1109D01*
X1523Y1109D01*
X1523Y1147D01*
G37*
D02*
G36*
X433Y1127D02*
X458Y1127D01*
X458Y1097D01*
X433Y1097D01*
X433Y1127D01*
G37*
D02*
G36*
X410Y1102D02*
X438Y1102D01*
X438Y1077D01*
X410Y1077D01*
X410Y1102D01*
G37*
D02*
G36*
X452Y1102D02*
X482Y1102D01*
X482Y1077D01*
X452Y1077D01*
X452Y1102D01*
G37*
D02*
G36*
X1323Y1147D02*
X1368Y1147D01*
X1368Y1109D01*
X1323Y1109D01*
X1323Y1147D01*
G37*
D02*
G04 End of Copper0*
M02*